<?xml version="1.0" encoding="UTF-8"?>
<svg version="1.1" xmlns="http://www.w3.org/2000/svg" width="1338" height="1231">
<path d="M0 0 C3.75190219 10.243025 6.108449 20.68647059 8.1875 31.375 C8.43709473 32.63836182 8.68668945 33.90172363 8.94384766 35.20336914 C12.08329415 51.76537834 13.41416341 68.08932376 13.375 84.9375 C13.37418427 86.27137756 13.37418427 86.27137756 13.37335205 87.63220215 C13.26532095 126.2900514 4.65818185 165.34388203 -20 196 C-20.69222656 196.90492188 -20.69222656 196.90492188 -21.3984375 197.828125 C-52.71547643 237.76260417 -116.55675161 244.49698964 -162.75 253.1875 C-194.61942676 259.24016486 -227.49987745 268.08569766 -248.12109375 295.1640625 C-260.64086384 314.06084645 -263.90695935 337.06214925 -259.47900391 359.09545898 C-254.30584932 381.9762819 -241.64701216 400.79997177 -223 415 C-222.04867187 415.76570313 -221.09734375 416.53140625 -220.1171875 417.3203125 C-211.40948982 424.24638406 -202.15658684 430.22364634 -192.79003906 436.21435547 C-159.87831529 457.27808908 -159.87831529 457.27808908 -147.2421875 468.9453125 C-145.30893687 470.71689757 -143.33710666 472.39782341 -141.3125 474.0625 C-137.4503141 477.36781259 -134.21484793 481.07074142 -131 485 C-130.24847656 485.91394531 -129.49695312 486.82789063 -128.72265625 487.76953125 C-113.73046479 506.59858688 -102.68512143 527.56540064 -97 551 C-96.6803125 552.26585937 -96.360625 553.53171875 -96.03125 554.8359375 C-86.20245058 599.04917175 -99.47531148 647.05726778 -120.03515625 686.14697266 C-120.95428962 687.91221109 -121.8375312 689.69600067 -122.71875 691.48046875 C-136.10305484 717.92621144 -155.09859561 741.22236894 -175 763 C-175.9194139 764.01289099 -176.83867779 765.02591816 -177.7578125 766.0390625 C-184.46593446 773.41696623 -191.22280977 780.55826932 -198.7890625 787.06640625 C-201.2812389 789.24595981 -203.69838668 791.4977328 -206.125 793.75 C-211.88851487 798.99891533 -217.93475796 803.80075396 -224.11669922 808.54492188 C-225.99825516 809.9986519 -227.86144695 811.47346603 -229.72265625 812.953125 C-295.54027835 864.84096057 -376.1886824 899.75802444 -529 925 C-529.63508484 925.04236786 -530.27016968 925.08473572 -530.92449951 925.12838745 C-544.86536997 926.03511566 -558.78269758 926.20148012 -572.75 926.1875 C-573.87072906 926.18689575 -574.99145813 926.1862915 -576.14614868 926.18566895 C-594.17341395 926.15937401 -612.04803458 925.78537331 -630 924 C-631.24491211 923.87641113 -632.48982422 923.75282227 -633.77246094 923.62548828 C-728.53238051 913.77704615 -821.51234914 881.95118534 -957 789 C-958.00546875 788.16984375 -959.0109375 787.3396875 -960.046875 786.484375 C-973.88113648 774.98788672 -986.72649032 762.44285146 -999.41894531 749.71142578 C-1001.52293737 747.60200343 -1003.63232035 745.49807561 -1005.7421875 743.39453125 C-1007.10969622 742.02636265 -1008.4768952 740.65788439 -1009.84375 739.2890625 C-1010.46052612 738.67431061 -1011.07730225 738.05955872 -1011.71276855 737.42617798 C-1016.00460221 733.11148123 -1020.02933004 728.61016013 -1024 724 C-1025.05718691 722.79693937 -1026.11557627 721.59493304 -1027.17578125 720.39453125 C-1034.11287501 712.49213435 -1040.75296213 704.46482711 -1047 696 C-1047.5053125 695.31534668 -1048.010625 694.63069336 -1048.53125 693.92529297 C-1064.70880005 671.91935274 -1078.99177404 649.01752796 -1092 625 C-1092.42603516 624.22172852 -1092.85207031 623.44345703 -1093.29101562 622.64160156 C-1124.73953997 565.03256401 -1143.75812975 501.80761423 -1152.3125 436.875 C-1152.45969482 435.76600342 -1152.60688965 434.65700684 -1152.75854492 433.5144043 C-1155.4275385 411.78295569 -1156.38318966 390.0058716 -1156.3125 368.125 C-1156.30976578 366.34482483 -1156.30976578 366.34482483 -1156.30697632 364.52868652 C-1156.25401458 343.89120548 -1155.42939902 323.49560231 -1153 303 C-1152.87271515 301.91733856 -1152.87271515 301.91733856 -1152.74285889 300.81280518 C-1150.06645713 278.30480703 -1146.06291941 256.09019768 -1141 234 C-1140.85067017 233.34833862 -1140.70134033 232.69667725 -1140.54748535 232.02526855 C-1127.57871436 175.85077423 -1105.411798 121.22515272 -1076.41064453 71.44677734 C-1075.14806839 69.25682614 -1073.92096055 67.053427 -1072.71484375 64.83203125 C-1052.31768787 27.31768787 -1052.31768787 27.31768787 -1040 15 C-1024.72294368 14.24682087 -1009.44446601 15.59330863 -994.21615601 16.67974854 C-953.39479717 19.58060216 -912.52781531 21.7090769 -871.66189957 23.8626709 C-867.57029468 24.07832599 -863.47873374 24.29480133 -859.38718861 24.5115869 C-849.89340398 25.01458895 -840.39945571 25.51439987 -830.90532708 26.01086712 C-829.35456122 26.09199108 -827.80380013 26.17320623 -826.25304389 26.25451374 C-809.3731021 27.13950342 -792.49274166 27.99438465 -775.60588253 28.73725629 C-773.32556491 28.83771087 -771.04529239 28.93913438 -768.76503086 29.0408535 C-767.28287464 29.10684867 -765.80071694 29.17281085 -764.31855774 29.23873901 C-763.59644153 29.27086121 -762.87432532 29.30298341 -762.13032681 29.336079 C-757.9151913 29.52256299 -753.69980346 29.70062985 -749.48403406 29.87215424 C-746.30914764 30.00329335 -743.13472653 30.14501133 -739.96020508 30.28466797 C-738.26282794 30.34913935 -738.26282794 30.34913935 -736.53116035 30.41491318 C-724.03006123 30.98508848 -724.03006123 30.98508848 -720.52783203 34.46118164 C-720.02292236 35.30217407 -720.02292236 35.30217407 -719.5078125 36.16015625 C-719.11754883 36.78438477 -718.72728516 37.40861328 -718.32519531 38.05175781 C-717.92913086 38.71530273 -717.53306641 39.37884766 -717.125 40.0625 C-716.25211101 41.43660042 -715.37449813 42.80771141 -714.4921875 44.17578125 C-713.85361816 45.16892334 -713.85361816 45.16892334 -713.20214844 46.18212891 C-701.65746277 63.63983188 -679.67958875 76.77130337 -659.57885742 81.57910156 C-632.56399731 86.89520574 -607.19421174 82.14967795 -583.87109375 68.00390625 C-575.09167474 61.87623012 -563.90093364 52.47390876 -558.92553711 42.94140625 C-557.48170372 40.42758173 -556.28673787 38.80108488 -554 37 C-549.10381489 35.92891098 -544.28817984 36.15879593 -539.3125 36.375 C-537.37407227 36.40400391 -537.37407227 36.40400391 -535.39648438 36.43359375 C-528.19877527 36.59645387 -521.13878103 37.1807382 -513.9921875 38.02734375 C-503.64509688 39.22331773 -493.35577564 39.26822766 -482.94995117 39.20581055 C-479.83308591 39.18762014 -476.71652221 39.18530158 -473.59960938 39.18554688 C-465.1597063 39.16780344 -456.74559832 39.13463076 -448.31835938 38.62792969 C-447.23109055 38.5657576 -446.14382172 38.50358551 -445.02360535 38.43952942 C-442.95100563 38.31391281 -440.87938895 38.17031347 -438.80952454 38.00566101 C-432.77644111 37.6396327 -429.57442647 37.96326278 -424.875 41.875 C-424.08867188 42.70257813 -423.30234375 43.53015625 -422.4921875 44.3828125 C-419.59416502 47.42619034 -416.54139553 49.52777194 -413 51.75 C-412.4023584 52.12713135 -411.8047168 52.5042627 -411.18896484 52.89282227 C-390.53133057 65.67724425 -364.63707356 69.72943834 -340.79492188 64.87280273 C-337.46542558 64.0622914 -334.25483994 63.08158768 -331 62 C-330.35144043 61.78569336 -329.70288086 61.57138672 -329.03466797 61.35058594 C-310.99315004 55.22529668 -293.74605484 42.51844549 -283.2890625 26.35546875 C-280.26910738 23.24790401 -277.50801102 23.00190009 -273.375 22.6875 C-272.65932861 22.62336914 -271.94365723 22.55923828 -271.20629883 22.49316406 C-269.78209474 22.37165427 -268.35698948 22.26021833 -266.93115234 22.15966797 C-265.31726644 22.02623164 -263.71207817 21.79260799 -262.11328125 21.53515625 C-257.93684587 21.04420652 -255.84053383 21.37846068 -252.40625 23.91796875 C-250.53998934 25.64747755 -248.70658209 27.41291487 -246.90234375 29.20703125 C-223.27884452 52.60531496 -188.86578972 59.33014325 -157.01879883 59.24438477 C-104.32507363 58.89056543 -53.76985643 34.10653632 -11 5 C-3.51126126 0 -3.51126126 0 0 0 Z M-925.66015625 84.3203125 C-943.31601261 104.54054199 -950.51133823 129.38365451 -949 156 C-946.68352666 182.11348087 -934.67186698 204.29814777 -914.953125 221.6484375 C-894.03904176 238.30224452 -870.18479611 243.54077604 -844 242 C-837.83255069 241.29720561 -831.91672571 239.84951194 -826 238 C-825.02111816 237.69449219 -825.02111816 237.69449219 -824.02246094 237.3828125 C-802.20202385 230.25238222 -783.65965042 214.29012998 -773 194 C-760.71086245 169.57122779 -757.67500437 141.49149301 -766.21875 115.2578125 C-774.70496674 91.42819922 -792.701986 72.77434093 -815.3125 61.8125 C-853.96942685 44.55988587 -896.77661622 54.26645075 -925.66015625 84.3203125 Z M-1042.6875 338.125 C-1055.40549397 354.32832444 -1062.18246085 373.36966157 -1062.24023438 393.8527832 C-1062.2498259 395.90033422 -1062.28083162 397.94682959 -1062.3125 399.99414062 C-1062.51380402 424.79277143 -1052.9922461 446.63952508 -1035.80078125 464.2578125 C-1022.9417821 476.84779493 -1008.33322075 485.29611569 -991 490 C-990.12730469 490.24492188 -989.25460937 490.48984375 -988.35546875 490.7421875 C-968.06295797 495.40786714 -946.60710218 491.52474704 -928 483 C-927.04609375 482.57074219 -926.0921875 482.14148438 -925.109375 481.69921875 C-903.40370248 470.94158281 -888.08371125 450.0215066 -879.80859375 427.80078125 C-871.54803342 402.04368353 -874.39675251 375.01168466 -886.48828125 351.05078125 C-899.1838529 327.87151559 -919.65693411 313.64961378 -944.57421875 305.96484375 C-945.70472656 305.64644531 -946.83523438 305.32804687 -948 305 C-948.87269531 304.75378906 -949.74539063 304.50757813 -950.64453125 304.25390625 C-985.49994926 296.29479505 -1019.98597825 312.20284714 -1042.6875 338.125 Z M-440 515.0625 C-449.06442238 525.61319406 -455.66754446 537.83105098 -460 551 C-460.50853516 552.51787109 -460.50853516 552.51787109 -461.02734375 554.06640625 C-467.94533688 579.53864825 -462.84526411 607.13966469 -449.93359375 629.69140625 C-444.92524166 638.03941651 -438.86218071 645.12801618 -432 652 C-430.83210937 653.18529297 -430.83210937 653.18529297 -429.640625 654.39453125 C-408.96284091 674.20495863 -380.06277855 684.16753149 -351.8449707 684.24023438 C-349.60003135 684.24983942 -347.35604928 684.28085984 -345.11132812 684.3125 C-317.99101033 684.51328461 -292.10431583 674.46047364 -272.51611328 655.54833984 C-256.07096081 638.75362857 -249.88058147 615.51170934 -249.96484375 592.48828125 C-250.75998441 560.68606739 -266.18943398 532.8789963 -288.26171875 510.73046875 C-312.39485824 487.95357181 -341.33444094 479.82577246 -373.9074707 480.64833069 C-399.9039988 481.65770252 -422.58121694 496.70121766 -440 515.0625 Z M-940 570.9375 C-951.34896015 583.84309583 -960.23986766 599.925693 -963 617 C-963.11085938 617.64453125 -963.22171875 618.2890625 -963.3359375 618.953125 C-966.91232494 644.27781446 -961.51695073 669.49882603 -946.37866211 690.16870117 C-934.15252435 706.19958443 -919.33862903 717.96443776 -900 724 C-899.33194336 724.20882812 -898.66388672 724.41765625 -897.97558594 724.6328125 C-873.72226257 731.83925367 -847.62180038 729.01694459 -825 718 C-815.90494193 712.90989985 -808.38061219 706.26512608 -801 699 C-800.26910156 698.29359375 -799.53820312 697.5871875 -798.78515625 696.859375 C-783.04512476 680.5271443 -776.22263763 656.55415764 -775.6875 634.3125 C-775.75315478 632.539821 -775.86090976 630.76843301 -776 629 C-776.0928125 627.7934375 -776.185625 626.586875 -776.28125 625.34375 C-778.73236802 599.07900316 -790.54207414 577.08397447 -810.52734375 559.94921875 C-850.43859543 528.48679444 -905.42105615 535.32391058 -940 570.9375 Z M-696 678 C-713.22274607 698.7221885 -718.53552761 724.70301746 -717 751 C-714.22290027 775.63602385 -699.94145873 797.30579236 -681.421875 813.1328125 C-661.03684915 828.84900985 -636.16478585 835.15140596 -610.71655273 832.10131836 C-593.41040078 829.66249591 -576.16977015 822.60134762 -563 811 C-562.20464844 810.35804688 -561.40929687 809.71609375 -560.58984375 809.0546875 C-543.12013581 794.42009445 -532.05300198 771.55767613 -530 749 C-528.44462509 721.72949663 -534.47855692 696.86099379 -553 676 C-568.87541087 658.78971975 -590.04833475 646.4138392 -613.8581543 644.80712891 C-647.32883514 643.89797386 -673.10013728 652.55570809 -696 678 Z " fill="#020202" transform="translate(1290,293)"/>
<path d="M0 0 C3.68097841 0.01128856 7.3616641 0.00466655 11.0426321 -0.00687027 C38.3295837 -0.07942372 65.71452455 0.66639846 92.76464844 4.51074219 C93.54012024 4.61712006 94.31559204 4.72349792 95.11456299 4.83309937 C152.84788425 12.76282916 209.63875638 28.86428396 262.57714844 53.26074219 C263.60549805 53.73237793 264.63384766 54.20401367 265.69335938 54.68994141 C295.7843302 68.56976597 324.69064114 85.17154333 351.47021484 104.72314453 C353.72175477 106.36627297 355.98338288 107.99496157 358.24511719 109.62402344 C385.58905213 129.43349286 385.58905213 129.43349286 392.57714844 137.26074219 C392.57714844 137.92074219 392.57714844 138.58074219 392.57714844 139.26074219 C389.70575028 138.63254896 387.2836907 137.7290017 384.66308594 136.40527344 C352.7662542 120.60724983 317.44937077 113.39247517 282.78417969 124.71777344 C267.0165048 130.27142164 250.94183647 139.83155897 240.25874329 152.86979675 C237.95674806 154.77391162 236.53376014 154.58920689 233.57788086 154.49633789 C232.59604828 154.4689151 231.6142157 154.44149231 230.60263062 154.41323853 C225.91575962 154.17700158 221.24233412 153.87848677 216.56542969 153.49121094 C215.55353073 153.40954178 214.54163177 153.32787262 213.49906921 153.24372864 C211.37198922 153.07035504 209.24510215 152.89459927 207.1184082 152.71655273 C203.91588497 152.45042245 200.71247464 152.19798788 197.50878906 151.94628906 C183.94917155 150.84600763 170.83878915 149.34231929 157.71777344 145.60449219 C150.4906133 143.73816435 143.28156335 143.8249737 135.86361694 143.77883911 C120.7857383 143.67126308 105.7936998 143.02262489 90.76464844 141.82324219 C89.51648346 141.72369232 89.51648346 141.72369232 88.24310303 141.62213135 C84.9804066 141.35998383 81.7179885 141.09477897 78.45599365 140.82403564 C73.39804591 140.40424033 68.33896994 140.01451021 63.27636719 139.65527344 C61.4013855 139.52173462 61.4013855 139.52173462 59.48852539 139.38549805 C57.21501124 139.2249316 54.94141686 139.0654951 52.66772461 138.9074707 C47.90612414 138.563515 43.28554525 138.06175575 38.57714844 137.26074219 C35.72629697 137.00524816 32.87290579 136.84584744 30.01464844 136.69824219 C29.21454346 136.65650879 28.41443848 136.61477539 27.59008789 136.57177734 C17.24237625 136.06336676 6.98578192 136.23833511 -3.36035156 136.69824219 C-4.26116455 136.73739746 -5.16197754 136.77655273 -6.09008789 136.81689453 C-6.95142334 136.8589502 -7.81275879 136.90100586 -8.70019531 136.94433594 C-9.46581787 136.98099365 -10.23144043 137.01765137 -11.02026367 137.05541992 C-13.47863601 137.22736297 -13.47863601 137.22736297 -16.09594727 137.74707031 C-20.51745991 138.42974901 -24.90930539 138.61172387 -29.37597656 138.79589844 C-30.34480774 138.83763687 -31.31363892 138.87937531 -32.31182861 138.92237854 C-41.89197315 139.31484671 -51.47263147 139.49900046 -61.05914307 139.64834595 C-147.28391344 141.03007191 -233.41550329 144.72746959 -319.55269241 148.72369003 C-322.99611669 148.88334351 -326.43957004 149.04235857 -329.88302612 149.20132446 C-362.16525091 150.67916699 -362.16525091 150.67916699 -394.41885376 152.67056274 C-402.09992697 153.19330667 -409.72449894 153.3583509 -417.42285156 153.26074219 C-416.31224646 149.92892688 -415.71329841 149.45887811 -412.97753906 147.46777344 C-412.24269287 146.92854248 -411.50784668 146.38931152 -410.75073242 145.83374023 C-409.94128174 145.25277588 -409.13183105 144.67181152 -408.29785156 144.07324219 C-407.45037354 143.45811768 -406.60289551 142.84299316 -405.72973633 142.20922852 C-402.96910816 140.21447956 -400.19812456 138.23505882 -397.42285156 136.26074219 C-396.52066895 135.6184668 -395.61848633 134.97619141 -394.68896484 134.31445312 C-373.56823936 119.33773271 -352.0896142 104.80638364 -329.42285156 92.26074219 C-328.13918701 91.5438623 -328.13918701 91.5438623 -326.82958984 90.8125 C-250.82164959 48.46892889 -168.22665844 18.14514156 -71.92285156 4.51074219 C-71.16917297 4.40932922 -70.41549438 4.30791626 -69.63897705 4.20343018 C-64.24084424 3.48611706 -58.83659748 2.84824346 -53.42285156 2.26074219 C-52.13577301 2.11880432 -52.13577301 2.11880432 -50.82269287 1.97399902 C-33.88499945 0.16783149 -17.01124969 -0.05248991 0 0 Z " fill="#050505" transform="translate(797.4228515625,10.7392578125)"/>
<path d="M0 0 C0 41.91 0 83.82 0 127 C-42.32138687 126.14107886 -42.32138687 126.14107886 -57.49609375 125.76171875 C-59.08052182 125.72211312 -59.08052182 125.72211312 -60.69695854 125.68170738 C-144.07068884 123.57322107 -227.49260548 120.76897326 -316.1725235 116.14762878 C-319.13505234 115.99294862 -322.09764084 115.8394515 -325.0602417 115.68615723 C-422.08469322 110.65944822 -518.97027989 103.99986314 -756 69 C-757.61683609 65.76632783 -757.56698608 62.49641417 -757 59 C-749.53649565 48.30231043 -732.68000432 45.98317169 -720.65234375 43.7265625 C-624.72735033 27.40322223 -525.70793521 23.14202377 -263 7 C-261.64466408 6.93790218 -261.64466408 6.93790218 -260.26194763 6.87454987 C-178.20298031 3.1231574 -96.26567675 0.73830738 -14.12329102 0.06005859 C-13.0135621 0.05073665 -13.0135621 0.05073665 -11.88141441 0.04122639 C-7.92060107 0.00959226 -3.96108386 0 0 0 Z " fill="#060606" transform="translate(765,177)"/>
<path d="M0 0 C0.7518457 0.27344238 1.50369141 0.54688477 2.27832031 0.82861328 C21.09401049 7.81628132 38.25566923 18.25102126 55.3125 28.6875 C73.12523958 39.57208911 90.26970868 48.02625516 110 55 C110 55.99 110 56.98 110 58 C104.10258813 61.05746968 98.26873698 63.79433329 92 66 C116.84800354 74.28266785 151.17706354 64.08706924 174.82128906 56.57910156 C177 56 177 56 180 56 C178.52259835 61.03064614 175.54624235 63.84122252 171.875 67.375 C171.28460937 67.9529834 170.69421875 68.5309668 170.0859375 69.12646484 C165.85296754 73.2445598 161.52048972 77.19944013 157 81 C155.67742187 82.15628906 155.67742187 82.15628906 154.328125 83.3359375 C132.4391746 102.37431708 108.14529503 118.6028258 83 133 C81.86908936 133.6489624 81.86908936 133.6489624 80.71533203 134.31103516 C43.33793014 155.49400427 -6.27144834 172.800391 -49.6328125 162.03515625 C-66.16850805 156.95167676 -80.02026101 149.73561522 -93 138 C-93.65602203 137.46317093 -94.31204407 136.92634186 -94.98794556 136.37324524 C-98.86916666 132.95056843 -101.47257214 130.42919383 -101.92407227 125.12768555 C-101.92942871 123.2970193 -101.89099036 121.46587287 -101.81640625 119.63671875 C-101.80795685 118.63115936 -101.79950745 117.62559998 -101.790802 116.58956909 C-101.75346435 113.28699846 -101.65879893 109.98883405 -101.5625 106.6875 C-101.52308086 104.38604155 -101.4870795 102.08452223 -101.4543457 99.78295898 C-101.37935743 94.9772994 -101.2800979 90.1729791 -101.16308594 85.36816406 C-100.9899144 78.04516948 -100.91546628 70.72306342 -100.8515625 63.3984375 C-100.81330444 59.91155055 -100.77199162 56.42472199 -100.72848511 52.93789673 C-100.70124612 50.69458495 -100.6770773 48.4512337 -100.65603638 46.20785522 C-100.62280983 43.07693282 -100.57008603 39.94694784 -100.51171875 36.81640625 C-100.50528351 35.89165497 -100.49884827 34.96690369 -100.49221802 34.01412964 C-100.28086338 24.86681735 -96.13840703 20.72964066 -89.734375 14.4921875 C-82.06199442 7.49936063 -73.62947595 2.8144157 -64 -1 C-62.46085937 -1.62455078 -62.46085937 -1.62455078 -60.890625 -2.26171875 C-41.92278374 -8.60659523 -18.57535429 -6.9460366 0 0 Z " fill="#060606" transform="translate(1151,162)"/>
<path d="M0 0 C14.2225444 0.00610579 28.35748412 1.32919575 42.51179886 2.58569717 C44.79400631 2.7873185 47.07648889 2.98547265 49.35910034 3.1824646 C74.09320928 5.31719677 98.80976733 7.63616803 123.51953125 10.03515625 C124.30891209 10.11169056 125.09829292 10.18822487 125.91159439 10.2670784 C130.45068713 10.7074921 134.98947502 11.15086019 139.52783966 11.59871674 C140.9017683 11.7341605 142.27575475 11.8690193 143.64980316 12.00324249 C145.53114178 12.18736461 147.41218499 12.37449772 149.29321289 12.56176758 C150.34481094 12.66580399 151.396409 12.76984039 152.47987366 12.87702942 C155.49403378 13.22695198 158.46868149 13.69842505 161.45703125 14.22265625 C161.48015257 26.8526111 161.49794526 39.48256095 161.50884342 52.11253262 C161.51407271 57.97647789 161.52117119 63.84040874 161.5324707 69.7043457 C161.54329795 75.35827337 161.54930774 81.01218712 161.55190849 86.66612434 C161.55376304 88.82839235 161.5573842 90.99065956 161.56276131 93.15292168 C161.56996958 96.17024282 161.57102228 99.18750568 161.57055664 102.20483398 C161.57415192 103.10826035 161.57774719 104.01168671 161.58145142 104.94248962 C161.57108341 111.10860409 161.57108341 111.10860409 160.45703125 112.22265625 C157.58196806 112.60952796 154.72005841 112.93640864 151.8347168 113.22729492 C150.92452349 113.3223488 150.01433018 113.41740269 149.07655525 113.51533699 C146.02026715 113.83279311 142.96331302 114.14322564 139.90625 114.453125 C137.74182892 114.67531533 135.57741562 114.89758142 133.41300964 115.11991882 C110.09055857 117.50305179 86.75129607 119.71007687 63.4074707 121.87231445 C57.36511047 122.43226315 51.32354515 123.00037926 45.28210926 123.57020283 C40.54079971 124.01609173 35.79899803 124.45656193 31.05704308 124.89552879 C28.82636115 125.10289117 26.59585611 125.31216679 24.36554909 125.52352333 C2.37553096 127.60345104 2.37553096 127.60345104 -8.54296875 127.22265625 C-9.1027989 92.93238448 -9.64232659 58.64316888 -9.66796875 24.34765625 C-9.67046631 23.16227264 -9.67296387 21.97688904 -9.67553711 20.75558472 C-9.68131459 17.45551459 -9.68001748 14.15553937 -9.67578125 10.85546875 C-9.6777652 9.8828862 -9.67974915 8.91030365 -9.68179321 7.9082489 C-9.67868134 7.03376602 -9.67556946 6.15928314 -9.67236328 5.25830078 C-9.67156769 4.49760284 -9.67077209 3.73690491 -9.66995239 2.95315552 C-9.3347594 -1.61476527 -3.46256734 0.00499192 0 0 Z " fill="#070707" transform="translate(862.54296875,176.77734375)"/>
<path d="M0 0 C9.89151473 0.02266097 19.55258543 0.58169745 29.47265625 1.1328125 C29.47265625 45.0228125 29.47265625 88.9128125 29.47265625 134.1328125 C13.13765625 134.6278125 13.13765625 134.6278125 -3.52734375 135.1328125 C-3.54989031 117.67865214 -3.56832265 100.22450415 -3.57915592 82.77033329 C-3.584319 74.66662641 -3.59136191 66.56292919 -3.6027832 58.45922852 C-3.61272969 51.39859128 -3.61919709 44.33796104 -3.62143224 37.27731699 C-3.62273941 33.53646792 -3.62582564 29.79563888 -3.63307381 26.05479622 C-3.64108699 21.88556137 -3.64133491 17.71636166 -3.64086914 13.54711914 C-3.64446442 12.29771545 -3.64805969 11.04831177 -3.65176392 9.76104736 C-3.65038925 8.63217606 -3.64901459 7.50330475 -3.64759827 6.34022522 C-3.64852006 5.35298493 -3.64944185 4.36574465 -3.65039158 3.34858799 C-3.47361252 0.16525091 -3.20137307 0.1682329 0 0 Z " fill="#0C0C0C" transform="translate(796.52734375,172.8671875)"/>
<path d="M0 0 C0.33 0 0.66 0 1 0 C0.85552017 1.50013097 0.70932785 3.00009702 0.5625 4.5 C0.48128906 5.3353125 0.40007812 6.170625 0.31640625 7.03125 C0.07366724 9.30880117 -0.21334894 11.58166956 -0.51953125 13.8515625 C-3.75729826 39.66857421 2.79530051 64.06739726 18.16015625 84.93359375 C33.07513487 103.89955421 54.85804877 116.98584438 79 120 C104.45295716 121.46848904 127.17820062 117.2770744 148 102 C148.66 102.33 149.32 102.66 150 103 C137.11453532 113.51038963 123.06751246 118.49230362 107 122 C106.37085693 122.1750708 105.74171387 122.3501416 105.09350586 122.53051758 C84.44707185 127.16061584 59.86905206 120.51167792 42.1875 109.625 C19.52145559 94.33468178 4.10563997 73.42709675 -2.0859375 46.5390625 C-3.364951 39.9249647 -3.32988085 33.3409588 -3.3125 26.625 C-3.32861328 25.3875 -3.34472656 24.15 -3.36132812 22.875 C-3.36556485 14.82522783 -2.35378736 7.69990371 0 0 Z " fill="#DDDDDD" transform="translate(343,414)"/>
<path d="M0 0 C-0.66 0.33 -1.32 0.66 -2 1 C-4.30436409 0.00164331 -6.5133379 -1.05391453 -8.75 -2.1875 C-29.18603929 -12.15375875 -55.26131029 -15.14691014 -77.2109375 -8.44921875 C-90.52173794 -3.53681485 -102.32548883 2.59626397 -113 12 C-113.81726563 12.71800781 -114.63453125 13.43601562 -115.4765625 14.17578125 C-127.26507988 25.25536718 -135.15714548 39.67599173 -140 55 C-140.33 55 -140.66 55 -141 55 C-140.52091256 49.01140703 -139.26929027 44.55934338 -136.5 39.25 C-135.96487793 38.21020996 -135.96487793 38.21020996 -135.41894531 37.14941406 C-123.24567017 14.16957613 -103.07221916 -1.78880977 -78.75 -10.375 C-52.16416965 -18.42915236 -23.67021847 -14.06432502 0 0 Z " fill="#DDDDDC" transform="translate(485,359)"/>
<path d="M0 0 C1.3671875 1.30208333 2.734375 2.60416667 4.1015625 3.90625 C3.1115625 3.90625 2.1215625 3.90625 1.1015625 3.90625 C0.1115625 2.91625 0.1115625 2.91625 -0.8984375 1.90625 C-3.17653272 1.61215888 -3.17653272 1.61215888 -5.80078125 1.67578125 C-7.25967773 1.67868164 -7.25967773 1.67868164 -8.74804688 1.68164062 C-9.76705078 1.69388672 -10.78605469 1.70613281 -11.8359375 1.71875 C-12.85107422 1.71939453 -13.86621094 1.72003906 -14.91210938 1.72070312 C-20.4953899 1.69928153 -20.4953899 1.69928153 -25.8984375 2.90625 C-27.57453156 3.00363892 -29.25419941 3.04441896 -30.93310547 3.05151367 C-31.95781952 3.05789352 -32.98253357 3.06427338 -34.03829956 3.07084656 C-35.14456696 3.07195938 -36.25083435 3.0730722 -37.390625 3.07421875 C-38.52871613 3.07754715 -39.66680725 3.08087555 -40.83938599 3.08430481 C-43.24855139 3.08937072 -45.65772381 3.09171324 -48.06689453 3.09155273 C-51.75174541 3.09373714 -55.43629595 3.11189097 -59.12109375 3.13085938 C-61.46093648 3.13379377 -63.80078062 3.13577826 -66.140625 3.13671875 C-67.7939534 3.14749702 -67.7939534 3.14749702 -69.48068237 3.15849304 C-70.51170074 3.15541641 -71.54271912 3.15233978 -72.60498047 3.14916992 C-73.50860321 3.15059494 -74.41222595 3.15201996 -75.3432312 3.15348816 C-78.16578973 2.88038138 -80.32700319 2.07370411 -82.8984375 0.90625 C-82.8984375 0.57625 -82.8984375 0.24625 -82.8984375 -0.09375 C-82.22430817 -0.09152939 -81.55017883 -0.08930878 -80.85562134 -0.08702087 C-73.74847959 -0.06465164 -66.64134807 -0.04971358 -59.53417969 -0.03881836 C-56.8925575 -0.03440563 -54.25099185 -0.02704344 -51.609375 -0.01831055 C-38.17540277 0.02494277 -24.78667904 0.06401312 -11.38037109 -0.87719727 C-2.48302918 -1.43055179 -2.48302918 -1.43055179 0 0 Z " fill="#CCCCCC" transform="translate(860.8984375,332.09375)"/>
<path d="M0 0 C2.6911901 2.6911901 3.15804464 5.66656851 4.0625 9.25 C4.23587891 9.90613281 4.40925781 10.56226563 4.58789062 11.23828125 C8.48720504 26.26782262 9.38537939 45.92086125 5 61 C3.42578125 62.85546875 3.42578125 62.85546875 2 64 C2.12375 62.989375 2.2475 61.97875 2.375 60.9375 C2.46394531 60.21046875 2.55289062 59.4834375 2.64453125 58.734375 C2.91434749 56.65886546 3.2076046 54.58638699 3.51171875 52.515625 C5.83205795 36.38844475 5.43193551 20.80224697 0.5859375 5.13671875 C0 3 0 3 0 0 Z " fill="#C1C1C1" transform="translate(508,892)"/>
<path d="M0 0 C0.98613281 -0.020625 1.97226562 -0.04125 2.98828125 -0.0625 C9.73573703 -0.09805971 15.41213268 0.93739349 21.75 3.25 C21.75 3.58 21.75 3.91 21.75 4.25 C21.14953857 4.1785376 20.54907715 4.1070752 19.93041992 4.03344727 C11.30328645 3.11906535 2.72325245 3.13623005 -5.9375 3.1875 C-7.42903494 3.19252856 -8.92057154 3.19708905 -10.41210938 3.20117188 C-14.02477462 3.21206196 -17.63737632 3.22925064 -21.25 3.25 C-14.49454169 -0.28004055 -7.46547664 0.03843231 0 0 Z " fill="#B5B5B5" transform="translate(668.25,935.75)"/>
<path d="M0 0 C10.49244202 -0.27938455 20.80046875 -0.37873547 31.1875 1.3125 C32.32614502 1.48906128 32.32614502 1.48906128 33.48779297 1.66918945 C35.60546875 2.05078125 35.60546875 2.05078125 39 3 C39.66 3.99 40.32 4.98 41 6 C40.40574219 5.87882813 39.81148438 5.75765625 39.19921875 5.6328125 C37.42687692 5.27448523 35.65331046 4.92218953 33.87890625 4.57421875 C32.11179264 4.22175511 30.34770911 3.85304954 28.58984375 3.45703125 C19.17680099 1.47298262 9.58366764 1.3566889 0 1 C0 0.67 0 0.34 0 0 Z " fill="#C4C4C4" transform="translate(311,595)"/>
<path d="M0 0 C3.5218253 1.95656961 6.34442785 3.95100975 9 7 C9 7.66 9 8.32 9 9 C5.98782888 8.35550393 3.48344164 7.34977818 0.75 5.9375 C0.04359375 5.57527344 -0.6628125 5.21304688 -1.390625 4.83984375 C-1.92171875 4.56269531 -2.4528125 4.28554687 -3 4 C-1.68 3.67 -0.36 3.34 1 3 C0.67 2.01 0.34 1.02 0 0 Z " fill="#B5B5B5" transform="translate(1181,141)"/>
<path d="M0 0 C-1.56583596 4.03721561 -4.44173865 6.47070582 -7.625 9.25 C-8.140625 9.70890625 -8.65625 10.1678125 -9.1875 10.640625 C-10.4534602 11.76592296 -11.72607942 12.88372177 -13 14 C-13 11 -13 11 -10.6640625 8.30078125 C-9.65880492 7.29685338 -8.64541032 6.3010225 -7.625 5.3125 C-7.11710937 4.80138672 -6.60921875 4.29027344 -6.0859375 3.76367188 C-2.26699141 0 -2.26699141 0 0 0 Z " fill="#8C8C8C" transform="translate(1066,174)"/>
<path d="M0 0 C-1.45281065 5.32697239 -5.08111378 8.36402802 -9 12 C-9 7.61031544 -6.87194899 6.23094261 -4 3 C-5.65 3 -7.3 3 -9 3 C-5.73209435 0.82139623 -3.91954654 0 0 0 Z " fill="#A7A7A7" transform="translate(1331,218)"/>
</svg>
