<svg version="1.1" id="Layer_1" xmlns="http://www.w3.org/2000/svg" xmlns:xlink="http://www.w3.org/1999/xlink" x="0px" y="0px"
	 width="100%" viewBox="0 0 1024 1024" enable-background="new 0 0 1024 1024" xml:space="preserve">
<path fill="#000000" opacity="1.000000" stroke="none" 
	d="
M678.354858,600.658142 
	C679.670105,612.019714 680.992859,622.912170 682.260742,633.811035 
	C682.979614,639.990845 683.615112,640.390991 689.400269,638.539429 
	C710.318115,631.844543 730.555176,623.059570 752.110474,618.310913 
	C765.420959,615.378784 778.809143,614.344543 792.244751,616.764282 
	C814.033264,620.688354 824.879944,638.823792 818.266541,659.926819 
	C812.751343,677.525085 800.379333,689.673584 785.811768,699.905090 
	C760.542297,717.652893 732.166138,728.595398 702.783447,737.201050 
	C666.735718,747.758911 629.874084,753.770874 592.530823,757.552917 
	C558.814880,760.967651 525.055359,762.062195 491.245728,761.115601 
	C436.715393,759.588867 382.661835,753.890015 329.911804,739.256348 
	C299.644928,730.859802 270.305878,720.025269 243.965134,702.365356 
	C231.387863,693.933167 220.118790,684.140259 212.443817,670.825928 
	C207.331573,661.957336 204.526062,652.534241 206.300980,642.142517 
	C208.213669,630.944397 214.746902,623.580811 225.089371,619.378845 
	C238.931091,613.755249 253.221588,614.773376 267.410126,617.175415 
	C290.853363,621.144287 312.697998,630.539001 335.118073,637.954590 
	C342.830200,640.505493 342.682312,640.645447 343.795074,632.384766 
	C348.337646,598.662964 350.181183,564.776917 349.608917,530.783264 
	C349.011566,495.299438 345.615021,460.048492 340.081726,424.979706 
	C334.762665,391.268860 327.202698,358.050751 319.174347,324.914185 
	C317.814606,319.302002 316.334808,313.557007 317.184845,307.673828 
	C318.129791,301.133636 321.975403,296.452026 327.379089,292.941772 
	C337.582611,286.313477 348.991333,282.609589 360.643341,279.679321 
	C387.019775,273.046112 413.909851,269.819580 440.974609,267.562836 
	C474.389465,264.776642 507.851929,264.018738 541.326904,265.039154 
	C582.962769,266.308350 624.418579,269.634949 665.045288,279.640442 
	C675.416565,282.194672 685.537354,285.505524 694.920166,290.770386 
	C707.025391,297.562775 710.613586,304.841980 707.759338,318.530365 
	C702.089111,345.723572 694.937073,372.591003 689.880127,399.924469 
	C685.218933,425.118713 681.536072,450.432404 679.147583,475.953705 
	C676.396057,505.353882 675.782593,534.806152 676.405701,564.290527 
	C676.658752,576.265869 677.672058,588.225159 678.354858,600.658142 
M410.302948,690.038391 
	C438.928589,696.771179 468.054626,699.651489 497.351715,700.500061 
	C543.808105,701.845520 589.796570,698.156677 634.765137,685.563782 
	C650.813904,681.069458 666.592712,675.792603 681.523682,668.250610 
	C683.796204,667.102722 686.156738,666.064087 685.591064,662.804443 
	C684.487915,656.448059 683.395020,650.089905 682.157898,642.921448 
	C676.688477,644.552979 671.641724,645.976685 666.646179,647.561646 
	C630.345642,659.079285 593.197754,666.415344 555.227234,668.998474 
	C531.152405,670.636169 507.019012,670.872314 482.863068,669.496399 
	C454.906525,667.903992 427.261108,664.334412 399.924591,658.366272 
	C382.687744,654.603210 365.694366,649.892578 348.984772,644.224182 
	C345.224335,642.948547 343.410614,643.501038 343.051270,647.788513 
	C342.704987,651.919922 342.274231,656.150513 341.042084,660.074219 
	C339.519623,664.922485 341.556732,666.925903 345.607208,668.794128 
	C366.110016,678.250671 387.490662,684.970093 410.302948,690.038391 
z"/>
</svg>