<svg version="1.1" id="Layer_1" xmlns="http://www.w3.org/2000/svg" xmlns:xlink="http://www.w3.org/1999/xlink" x="0px" y="0px"
	 width="100%" viewBox="0 0 1024 704" enable-background="new 0 0 1024 704" xml:space="preserve">
<path fill="#000000" opacity="1.000000" stroke="none" 
	d="
M664.278809,377.228455 
	C682.296631,370.416992 698.881165,361.483826 715.663757,352.964355 
	C724.748230,348.352753 734.021851,344.160461 744.323120,343.163513 
	C752.859680,342.337402 760.994141,343.631409 767.879089,349.217621 
	C776.126038,355.908875 776.350891,363.753845 768.350525,370.679688 
	C752.175293,384.682495 734.163147,396.135193 716.229980,407.673126 
	C708.105957,412.899994 699.824036,417.882141 691.595947,422.946167 
	C679.752502,430.235229 667.102417,435.619995 653.741272,439.517822 
	C631.052856,446.136627 608.355530,452.750031 585.833557,459.906036 
	C567.481689,465.737061 549.385376,465.938660 530.843262,460.830231 
	C502.918671,453.136993 475.489838,443.828583 447.640106,435.907867 
	C429.057739,430.622894 410.417877,425.826721 390.992493,424.641357 
	C384.103241,424.220947 377.355682,425.135345 370.545349,425.383484 
	C366.556854,425.528778 364.837311,424.426788 364.851532,420.140961 
	C364.969299,384.644653 364.961731,349.147766 364.888184,313.651245 
	C364.879791,309.591675 366.013367,307.837891 370.509888,307.539764 
	C384.326172,306.623779 396.865784,300.769806 409.771881,296.425354 
	C423.363983,291.849945 437.057190,287.942566 451.430847,286.615997 
	C467.635010,285.120514 483.465424,287.434967 498.715485,292.282532 
	C540.964539,305.712433 583.826172,316.548157 627.392212,324.665924 
	C627.883240,324.757446 628.375000,324.852112 628.858704,324.975464 
	C634.074646,326.305542 639.559998,327.398468 640.934204,333.825378 
	C642.307068,340.246399 640.086426,345.728058 635.586670,350.194824 
	C628.276489,357.451447 618.732239,359.491211 609.030579,360.178589 
	C592.865540,361.324005 576.771790,359.633575 560.703918,357.865692 
	C549.281311,356.608917 537.830261,355.644318 526.314087,356.227814 
	C525.318176,356.278259 524.284485,356.283569 523.342957,356.561981 
	C521.461426,357.118347 519.149536,357.391418 518.670837,359.746185 
	C518.250244,361.815094 519.947327,363.101227 521.321350,364.260498 
	C528.843567,370.607300 537.968750,373.886078 546.884888,377.610474 
	C568.818970,386.772766 591.540161,388.747803 614.988098,386.054169 
	C626.548889,384.726074 638.177307,384.030212 649.629456,381.795013 
	C654.560547,380.832581 659.252930,379.158295 664.278809,377.228455 
z"/>
<path fill="#000000" opacity="1.000000" stroke="none" 
	d="
M351.267639,311.003845 
	C351.274200,354.001404 350.998291,396.502716 351.427948,438.996887 
	C351.596161,455.632721 341.046295,463.297333 328.797272,463.626099 
	C308.634644,464.167267 288.476776,463.967468 268.318970,464.237274 
	C263.374023,464.303467 263.739594,461.115509 263.740967,457.851074 
	C263.756958,419.352478 263.752441,380.853882 263.753754,342.355286 
	C263.754395,323.022644 263.864532,303.688965 263.673645,284.358215 
	C263.630859,280.023438 264.917938,278.539703 269.350555,278.582825 
	C289.514587,278.778931 309.682037,278.593109 329.847382,278.704132 
	C342.811615,278.775513 351.100067,287.139465 351.267883,300.005157 
	C351.313538,303.504425 351.270020,307.004852 351.267639,311.003845 
z"/>
</svg>