<svg version="1.1" id="Layer_1" xmlns="http://www.w3.org/2000/svg" xmlns:xlink="http://www.w3.org/1999/xlink" x="0px" y="0px"
	 width="100%" viewBox="0 0 1024 1024" enable-background="new 0 0 1024 1024" xml:space="preserve">
<path fill="#000000" opacity="1.000000" stroke="none" 
	d="
M528.520569,199.402328 
	C551.951843,222.524216 580.956726,235.009918 610.988403,245.517670 
	C638.925415,255.292496 667.837891,260.636200 697.213806,263.863464 
	C717.276672,266.067627 737.385132,266.768402 757.537415,267.021362 
	C774.103027,267.229309 783.084595,275.847015 784.436340,292.160339 
	C786.971924,322.759583 786.865845,353.423737 786.054077,384.051300 
	C784.831482,430.178772 780.842651,476.067261 771.380066,521.354553 
	C759.916382,576.219299 739.978760,627.569458 708.550842,674.215210 
	C688.252197,704.342834 664.785095,731.656372 637.467590,755.707397 
	C605.371826,783.965393 569.993347,807.117493 531.773254,826.204773 
	C519.134766,832.516541 507.787109,832.968323 494.825256,826.482971 
	C432.045380,795.071716 377.671997,753.354675 334.364624,697.811951 
	C300.017700,653.761292 276.015350,604.583862 261.408630,550.645996 
	C251.187836,512.903870 245.792450,474.478577 242.534042,435.621094 
	C240.263901,408.549011 239.484665,381.423767 239.240616,354.300537 
	C239.056458,333.832703 240.056305,313.343231 240.929001,292.880463 
	C241.606750,276.988647 250.339890,268.461761 266.039948,267.560059 
	C284.819366,266.481506 303.656769,266.535858 322.397034,264.682892 
	C375.298523,259.452209 426.079254,247.195511 472.074432,219.255661 
	C481.064209,213.794815 489.160706,207.145996 496.973145,200.070236 
	C506.910278,191.070190 517.492249,191.001205 528.520569,199.402328 
M454.990906,278.601166 
	C403.265991,300.062073 349.039429,309.243835 293.401215,311.273499 
	C288.249786,311.461456 285.771118,312.815247 285.663910,318.282471 
	C285.256042,339.085724 284.110443,359.844818 284.859619,380.701965 
	C285.834045,407.830292 287.188568,434.897308 290.180328,461.879364 
	C293.893158,495.365295 300.215759,528.278381 311.006592,560.278381 
	C345.586182,662.823364 414.415131,734.851135 509.558289,783.513794 
	C512.018066,784.771973 514.084534,784.766724 516.589172,783.495789 
	C556.093872,763.451233 592.248108,738.639771 623.683655,707.336060 
	C672.769775,658.455566 705.415710,600.126221 722.746277,533.122314 
	C734.181580,488.910645 738.277283,443.718689 740.599915,398.323883 
	C741.953247,371.874756 742.195312,345.390411 740.735779,318.912781 
	C740.496155,314.565643 739.853943,311.448883 734.515198,311.370697 
	C717.854248,311.126709 701.304749,309.447998 684.772827,307.407043 
	C658.956360,304.219818 633.462402,299.405518 608.585083,291.830902 
	C575.442688,281.739838 543.732666,268.430206 515.545654,247.806458 
	C513.180237,246.075745 511.601959,247.058167 509.798035,248.403046 
	C493.127167,260.832245 474.715515,270.116333 454.990906,278.601166 
z"/>
<path fill="#000000" opacity="1.000000" stroke="none" 
	d="
M624.387817,684.371216 
	C593.422363,717.383728 557.924927,743.844666 518.416138,765.060059 
	C514.891418,766.952698 511.943054,767.393921 508.206146,765.374817 
	C437.593658,727.221741 381.396088,674.653870 345.226288,602.185852 
	C328.155853,567.984192 317.266815,531.730774 310.693878,494.117096 
	C305.701965,465.550629 303.083862,436.764557 301.536682,407.824951 
	C300.201630,382.852478 299.912384,357.900391 300.628937,332.913452 
	C300.748596,328.740326 301.533783,326.802124 306.401062,326.512390 
	C355.338135,323.599365 403.246033,315.440216 449.220795,297.712952 
	C469.954865,289.718170 489.823181,279.995850 508.721344,268.321167 
	C511.541626,266.578888 513.694458,265.989288 516.834595,267.962463 
	C555.675171,292.368561 598.106140,307.560455 642.871460,316.688538 
	C668.515625,321.917633 694.413391,325.190613 720.533752,326.659607 
	C723.953064,326.851898 725.280579,328.167633 725.267822,331.502106 
	C725.156494,360.644196 726.038940,389.782288 723.590027,418.906647 
	C721.526489,443.448242 719.454773,467.963898 715.377686,492.268433 
	C703.985229,560.182617 678.186279,621.599243 633.204590,674.353821 
	C630.395813,677.647949 627.490295,680.859802 624.387817,684.371216 
z"/>
</svg>