<svg version="1.1" id="Layer_1" xmlns="http://www.w3.org/2000/svg" xmlns:xlink="http://www.w3.org/1999/xlink" x="0px" y="0px"
	 width="100%" viewBox="0 0 1024 704" enable-background="new 0 0 1024 704" xml:space="preserve">
<path fill="#000000" opacity="1.000000" stroke="none" 
	d="
M356.634033,436.093689 
	C358.824951,429.924713 363.042908,427.556335 369.069550,427.571320 
	C393.055573,427.630951 417.041901,427.572845 441.028107,427.560364 
	C449.790100,427.555786 449.868866,427.481750 450.069305,418.766602 
	C450.330017,407.428955 454.583679,403.216125 465.987457,403.001251 
	C473.930420,402.851593 474.042877,402.875580 475.699951,395.120087 
	C480.570068,372.326569 481.558289,349.622864 473.724976,327.188660 
	C470.621185,318.299469 465.708923,310.394592 460.534454,302.601807 
	C443.991486,277.688049 445.371277,248.840195 464.059723,226.714615 
	C479.387512,208.567764 505.542236,201.436050 529.603333,208.842545 
	C551.429321,215.561035 567.713135,235.997177 570.486816,259.070068 
	C572.286133,274.038055 568.872986,287.563293 560.879211,299.962036 
	C552.879211,312.370392 545.575562,325.072662 542.945129,339.767334 
	C539.380615,359.679779 540.403015,379.516327 545.065063,399.198761 
	C545.737366,402.037170 547.210327,403.058868 549.938599,403.006927 
	C552.433777,402.959381 554.955139,402.919617 557.425720,403.210022 
	C564.762207,404.072388 569.041138,408.858948 569.305786,416.257416 
	C569.721313,427.872498 569.718933,427.517639 581.159912,427.439148 
	C604.812073,427.276825 628.467651,427.458771 652.120483,427.661346 
	C658.914062,427.719482 663.126648,432.281708 663.355652,439.097778 
	C663.575989,445.655823 663.575989,445.655823 670.484924,445.677338 
	C678.287048,445.701630 678.283875,445.701630 678.287231,453.611908 
	C678.290710,461.776978 678.307251,469.942078 678.306580,478.107147 
	C678.306030,484.871277 678.212708,484.944397 671.207397,484.942474 
	C662.209167,484.939972 653.210999,484.961151 644.212769,484.961029 
	C545.898560,484.959656 447.584320,484.957031 349.270111,484.951538 
	C341.672974,484.951111 341.671082,484.940033 341.670135,477.176086 
	C341.669067,468.344452 341.784821,459.510712 341.617584,450.682251 
	C341.550201,447.124756 342.620636,445.644775 346.417480,445.617096 
	C354.885132,445.555420 354.883820,445.376831 356.634033,436.093689 
M465.225891,261.618317 
	C463.545959,271.475677 465.565155,280.761810 469.583740,289.734039 
	C470.981873,292.855713 473.247192,294.621552 476.723724,293.364044 
	C480.420898,292.026764 480.299011,288.971985 479.425415,285.871002 
	C479.067535,284.600769 478.376801,283.427826 477.892029,282.189270 
	C471.617432,266.157654 475.744873,249.726318 488.809052,238.973877 
	C491.645325,236.639481 493.722809,233.993698 491.157379,230.508713 
	C488.406464,226.771820 485.257935,228.609131 482.514618,230.795105 
	C472.840363,238.503922 467.220581,248.580872 465.225891,261.618317 
z"/>
<path fill="#000000" opacity="1.000000" stroke="none" 
	d="
M381.000061,495.664551 
	C472.828583,495.667786 564.157043,495.670532 655.485535,495.675323 
	C663.309204,495.675720 663.309998,495.682037 663.315796,503.608154 
	C663.317871,506.441315 663.362549,509.275482 663.304749,512.107483 
	C663.152649,519.558594 658.806946,524.245544 651.400757,524.949158 
	C650.077576,525.074890 648.736755,525.038574 647.404114,525.038635 
	C555.909058,525.044189 464.414001,525.049377 372.918945,525.026611 
	C370.599945,525.026062 368.222900,524.982849 365.973450,524.495605 
	C360.377380,523.283508 357.006226,519.295288 356.740875,513.570740 
	C356.540466,509.246674 356.838593,504.899231 356.631256,500.575806 
	C356.457520,496.953461 357.749115,495.478333 361.503082,495.609589 
	C367.828308,495.830841 374.167023,495.666687 381.000061,495.664551 
z"/>
</svg>