<?xml version="1.0" encoding="UTF-8"?>
<svg version="1.1" xmlns="http://www.w3.org/2000/svg" width="1259" height="480">
<path d="M0 0 C0.74301935 5.48073063 1.223438 10.89474513 1.46484375 16.41845703 C1.50239777 17.2199971 1.53995178 18.02153717 1.5786438 18.84736633 C1.70135642 21.48404937 1.81952699 24.12091348 1.9375 26.7578125 C2.02313448 28.62508139 2.10899499 30.49233992 2.19506836 32.35958862 C2.37518325 36.28163092 2.55315371 40.20376269 2.72949219 44.12597656 C2.95134289 49.05869763 3.17752818 53.99120728 3.40516949 58.92366409 C6.18779919 119.28558292 6.18779919 119.28558292 6.18530273 142.71728516 C6.18753307 145.03435565 6.20601356 147.35097811 6.22460938 149.66796875 C6.25436076 157.97821542 5.86334078 166.11997056 5.0078125 174.38671875 C3.64461754 187.85117856 3.65156124 201.29027585 3.6875 214.8125 C3.68832581 216.13216766 3.68915161 217.45183533 3.69000244 218.81149292 C3.71553534 243.77757502 4.90808848 268.60606681 6.80999756 293.49816895 C7.19822861 298.61014806 7.56053496 303.72401801 7.92626953 308.83764648 C8.09143383 311.11367223 8.26224991 313.38930111 8.44091797 315.66430664 C8.91149278 321.79240503 9.0797229 327.85503508 9 334 C2.41126487 336.4224497 -4.11191239 337.92971235 -11.01953125 339.12890625 C-12.08531403 339.31932495 -13.1510968 339.50974365 -14.24917603 339.70593262 C-17.76900337 340.33228927 -21.29058232 340.94801313 -24.8125 341.5625 C-27.31976383 342.00370558 -29.82700625 342.44503288 -32.33422852 342.88647461 C-38.91412511 344.04143199 -45.49607688 345.18411616 -52.07897949 346.32177734 C-55.87111449 346.97770655 -59.66264938 347.63701203 -63.45410156 348.296875 C-148.55361765 363.07103249 -234.3174633 373.65967684 -561 385 C-562.0798114 384.9720636 -563.1596228 384.9441272 -564.27215576 384.91534424 C-593.13915681 384.15140484 -621.93903783 382.39074912 -650.75 380.5 C-651.57550858 380.44592484 -652.40101715 380.39184967 -653.25154114 380.33613586 C-684.62787082 378.27692801 -684.62787082 378.27692801 -700.140625 376.90625 C-701.03440857 376.82886597 -701.92819214 376.75148193 -702.84906006 376.67175293 C-708.75293432 376.12353284 -708.75293432 376.12353284 -711 375 C-713.29878053 366.2909023 -713.69689989 356.95219022 -714.515625 348.0078125 C-714.65311305 346.53592444 -714.79076767 345.06405193 -714.92857361 343.5921936 C-715.37743917 338.77054912 -715.81429157 333.94784838 -716.25 329.125 C-716.32581425 328.28999466 -716.40162849 327.45498932 -716.47974014 326.59468079 C-720.22822958 285.29580205 -723.19334365 243.9504492 -725.83557892 202.56735992 C-725.99789653 200.03284479 -726.16174925 197.49843363 -726.32611084 194.96405029 C-728.48515797 161.63218378 -730.35424657 128.34831555 -730.4375 94.9375 C-730.44376404 93.76408051 -730.45002808 92.59066101 -730.45648193 91.38168335 C-730.53151326 69.54815098 -729.15095088 48.77863108 -715 31 C-714.22914063 30.01 -713.45828125 29.02 -712.6640625 28 C-701.21346613 14.38243228 -681.92536987 8.30178115 -664.87010193 6.58560181 C-656.27937666 5.88841885 -647.70230745 5.83088838 -639.08984375 5.8359375 C-638.28740801 5.83577322 -637.48497227 5.83560894 -636.65822029 5.83543968 C-619.3425043 5.85114443 -602.10479141 6.66583729 -584.8228569 7.67493439 C-580.69237327 7.91314298 -576.56113467 8.13746704 -572.42993164 8.36279297 C-565.74468534 8.72851911 -559.05970917 9.09870389 -552.375 9.47412109 C-486.14275448 13.19185353 -420.08637225 15.18045719 -353.75 15.1875 C-352.1003594 15.18828363 -352.1003594 15.18828363 -350.41739273 15.1890831 C-308.38427996 15.20749483 -266.36943585 14.63898365 -224.3719368 12.84078598 C-222.16652727 12.74642866 -219.96105869 12.65353737 -217.75558472 12.56069946 C-170.58801899 10.56268956 -123.47460544 7.53825448 -76.375 4.34375 C-75.35311018 4.27450632 -74.33122036 4.20526264 -73.27836418 4.13392067 C-63.28978958 3.45669029 -53.301511 2.77568616 -43.31438637 2.07736778 C-39.64644172 1.82142459 -35.97829106 1.5685182 -32.31010437 1.31607056 C-30.61509153 1.19857888 -28.9201806 1.07960535 -27.22538757 0.95898438 C-18.14150481 0.31260723 -9.11386994 -0.18193146 0 0 Z M-668 67.75 C-674.92620254 76.74220916 -676.17085978 85.81044317 -675 97 C-673.0752415 105.46210396 -668.44323888 111.7355796 -661.51171875 116.828125 C-652.87503901 121.94084828 -643.75955458 122.426032 -634 121 C-624.80798984 118.56272458 -618.74219184 111.68826347 -614.0625 103.6875 C-610.6928182 95.16418722 -610.52933263 84.55463477 -613.9765625 76.015625 C-618.21823514 67.66179643 -624.90388253 61.52372378 -633.8671875 58.3359375 C-646.86214118 56.28911329 -658.48702492 57.85489696 -668 67.75 Z " fill="#000000" transform="translate(775,24)"/>
<path d="M0 0 C2.2999829 -0.00322927 4.59996561 -0.00659445 6.89994812 -0.01008606 C11.68061803 -0.01601198 16.46127004 -0.01793267 21.24194336 -0.01733398 C26.08312712 -0.01725264 30.92421643 -0.02421919 35.76538086 -0.0378418 C127.20858156 -0.29108656 127.20858156 -0.29108656 150.19921875 17.16796875 C151.19695312 17.91820312 151.19695312 17.91820312 152.21484375 18.68359375 C165.8078464 29.70783999 173.89514841 45.97448384 176.19921875 63.16796875 C178.07612816 85.88449966 174.20020274 108.28376308 159.09375 126.15234375 C149.03441828 136.85464306 137.55049076 144.77661156 122.46484375 145.50390625 C102.79841125 145.85949929 90.31954046 140.11949497 75.984375 126.609375 C66.20732211 118.0390271 58.49462942 115.40246747 45.85144043 115.95318604 C37.98202965 116.59046814 30.24724341 118.48245621 22.54708862 120.15698242 C17.0272403 121.35328843 11.49441436 122.48586972 5.9609375 123.6171875 C4.31627251 123.95422195 4.31627251 123.95422195 2.63838196 124.29806519 C-12.08346397 127.28232843 -26.88580304 129.42189357 -41.80078125 131.16796875 C-43.38415283 131.36060303 -43.38415283 131.36060303 -44.99951172 131.55712891 C-91.88449834 137.04097733 -138.80347223 131.73851941 -184.99414062 123.60571289 C-193.97209781 122.20544521 -205.50305656 121.0425083 -213.61328125 125.66796875 C-215.85756048 127.30281685 -215.85756048 127.30281685 -217.80078125 129.16796875 C-218.72310547 130.02068359 -218.72310547 130.02068359 -219.6640625 130.890625 C-225.07431082 136.54079564 -228.84209039 143.47312392 -232.80078125 150.16796875 C-234.41179445 152.88960468 -236.04527382 155.53470761 -237.80078125 158.16796875 C-238.46078125 158.16796875 -239.12078125 158.16796875 -239.80078125 158.16796875 C-240.50954587 154.26444376 -240.96109907 150.48357956 -241.1108551 146.52027893 C-241.15430054 145.41989288 -241.19774597 144.31950684 -241.24250793 143.18577576 C-241.28566635 141.99339798 -241.32882477 140.8010202 -241.37329102 139.57250977 C-241.4222049 138.30515991 -241.47111877 137.03781006 -241.52151489 135.73205566 C-241.65511623 132.26730141 -241.78393991 128.80238448 -241.91182065 125.33741498 C-242.04667167 121.70376163 -242.18569767 118.07026786 -242.32420349 114.43675232 C-242.55620095 108.33480177 -242.78530256 102.23274812 -243.01245117 96.13061523 C-243.30353966 88.31121849 -243.5994287 80.49201116 -243.89683628 72.67285252 C-244.153061 65.93530673 -244.40702697 59.19767606 -244.6606586 52.46003222 C-244.74200198 50.30179737 -244.82366127 48.14357464 -244.9053669 45.98535347 C-245.05779696 41.95457081 -245.20787298 37.92370379 -245.35766602 33.89282227 C-245.40284866 32.70246872 -245.44803131 31.51211517 -245.49458313 30.28569031 C-245.69257577 24.90911537 -245.85587248 19.5482419 -245.80078125 14.16796875 C-242.93115295 13.37328633 -240.224173 12.97054051 -237.25532532 12.7709198 C-235.89100498 12.67657072 -235.89100498 12.67657072 -234.49912262 12.58031559 C-233.5059478 12.51538127 -232.51277298 12.45044695 -231.48950195 12.38354492 C-230.43436653 12.31172469 -229.37923111 12.23990446 -228.29212189 12.16590786 C-224.77050493 11.92725689 -221.24855419 11.69398822 -217.7265625 11.4609375 C-215.239055 11.29394931 -212.75156239 11.12673918 -210.26408386 10.95932007 C-203.59379858 10.51171433 -196.92316916 10.06949966 -190.25241089 9.62901688 C-186.12360224 9.35633768 -181.99490337 9.08201883 -177.86621094 8.80758667 C-145.02017789 6.62584018 -112.17195829 4.50167395 -79.30078125 2.73046875 C-78.21831808 2.67194544 -78.21831808 2.67194544 -77.11398697 2.61223984 C-72.37441512 2.35642833 -67.63458984 2.10600844 -62.89453125 1.859375 C-61.2565583 1.77397964 -61.2565583 1.77397964 -59.585495 1.68685913 C-56.70638578 1.54116631 -53.82707656 1.40192625 -50.94737816 1.26841545 C-49.38134248 1.19513522 -47.81539616 1.11993796 -46.249506 1.04361153 C-30.82639152 0.29849826 -15.43997302 0.00522836 0 0 Z " fill="#010101" transform="translate(1040.80078125,8.83203125)"/>
<path d="M0 0 C1.21825857 5.9172559 1.33647378 11.85751516 1.5625 17.875 C1.62727539 19.47988281 1.62727539 19.47988281 1.69335938 21.1171875 C1.79892817 23.74467754 1.90103791 26.37225422 2 29 C-5.43936253 31.70454367 -12.87580424 33.3118277 -20.64453125 34.78515625 C-21.99010329 35.04442959 -23.3356011 35.30408847 -24.68103027 35.56410217 C-28.30053266 36.26119874 -31.92171679 36.94910592 -35.54361343 37.6336441 C-37.8325311 38.0662862 -40.12116043 38.50042958 -42.40975952 38.93475342 C-129.95048607 55.52684995 -218.18004321 68.03459212 -388.19641876 81.64919281 C-390.75745085 81.80906359 -393.31839246 81.97033096 -395.8793335 82.13165283 C-433.63890451 84.49693784 -471.26448548 85.16729795 -509.09521484 85.13037109 C-514.95513347 85.12466761 -520.81500679 85.12807734 -526.6749239 85.13379574 C-561.7297082 85.1631299 -596.57218272 84.50041274 -631.5625 82.1875 C-632.90508317 82.10008924 -634.2476736 82.01279003 -635.590271 81.92559814 C-652.29326071 80.83650585 -668.97476925 79.60593671 -685.625 77.875 C-686.78686325 77.75479996 -686.78686325 77.75479996 -687.97219849 77.63217163 C-712.39836006 75.06775996 -712.39836006 75.06775996 -717 72 C-717.6159668 70.11157227 -717.6159668 70.11157227 -717.94921875 67.81640625 C-718.07514404 66.97561523 -718.20106934 66.13482422 -718.33081055 65.26855469 C-718.44851807 64.37555664 -718.56622559 63.48255859 -718.6875 62.5625 C-718.87856323 61.20946777 -718.87856323 61.20946777 -719.07348633 59.82910156 C-719.91934902 53.51831911 -720.30783552 47.36594234 -720 41 C-705.06291008 41.59973531 -690.20090105 42.76910645 -675.30773926 44.04138184 C-652.63768049 45.96450536 -629.97408282 47.59374621 -607.25 48.75 C-606.11600769 48.80871277 -604.98201538 48.86742554 -603.81365967 48.92791748 C-570.3121788 50.64138417 -536.85262593 51.21086254 -503.3125 51.1875 C-501.86786566 51.18687876 -501.86786566 51.18687876 -500.39404678 51.18624496 C-467.88538201 51.16881697 -435.46874237 50.73803121 -403 49 C-401.50531687 48.92131821 -400.01062661 48.84277187 -398.51593018 48.76434326 C-324.24447964 44.856752 -250.32315386 38.87835398 -19.33984375 2.23388672 C-18.53727646 2.0796524 -17.73470917 1.92541809 -16.90782166 1.76651001 C-15.45831206 1.48767418 -14.00974361 1.20386544 -12.56251526 0.91342163 C-8.3238462 0.10257027 -4.31046542 -0.11835244 0 0 Z " fill="#040505" transform="translate(785,366)"/>
<path d="M0 0 C0.66 0.33 1.32 0.66 2 1 C-2.29 5.29 -6.58 9.58 -11 14 C-11 9.40845608 -8.09282279 7.18698368 -5 4 C-3.3719908 2.61973133 -1.71956118 1.26438322 0 0 Z " fill="#2B2B2B" transform="translate(70,45)"/>
</svg>
