<svg version="1.1" id="Layer_1" xmlns="http://www.w3.org/2000/svg" xmlns:xlink="http://www.w3.org/1999/xlink" x="0px" y="0px"
	 width="100%" viewBox="0 0 1024 704" enable-background="new 0 0 1024 704" xml:space="preserve">
<path fill="#000000" opacity="1.000000" stroke="none" 
	d="
M313.326355,339.370239 
	C352.577484,282.168671 406.047699,247.723709 474.086670,235.976974 
	C476.380524,235.580948 478.710052,235.396347 481.015594,235.062332 
	C487.044830,234.188889 487.565308,233.526077 486.905548,227.399155 
	C486.307739,221.847015 483.309174,217.869186 478.666962,214.968246 
	C473.281281,211.602707 470.228088,206.884354 471.081055,200.378250 
	C472.058960,192.919266 477.850677,187.794891 485.506805,187.736801 
	C502.001221,187.611649 518.497681,187.642380 534.992493,187.735672 
	C542.013367,187.775375 547.282410,191.589844 549.135803,197.557571 
	C551.200684,204.206177 549.387939,209.861328 543.148926,214.005188 
	C537.297058,217.891937 533.615295,222.675720 533.977539,230.006256 
	C534.120911,232.908432 535.112183,234.287003 538.346924,234.784210 
	C625.684998,248.209122 688.603516,294.528320 725.531433,375.043701 
	C735.635742,397.074402 741.131775,420.583984 743.498047,444.813934 
	C744.344238,453.478729 743.972351,462.113617 744.428955,470.746826 
	C744.667847,475.264404 742.852844,476.390045 738.607544,476.365845 
	C712.782227,476.218506 686.955688,476.307251 661.129517,476.306335 
	C534.997986,476.301758 408.866425,476.294342 282.734863,476.285614 
	C274.780823,476.285065 274.732635,476.275940 274.736145,468.446442 
	C274.757111,421.715790 287.917206,378.895020 313.326355,339.370239 
M425.467987,282.045959 
	C347.939758,319.525513 312.085632,397.369598 311.629150,448.666626 
	C324.250153,448.666626 336.874084,448.749268 349.495575,448.610809 
	C352.813354,448.574402 352.577545,445.677643 352.687927,443.371277 
	C353.134003,434.053192 354.358429,424.799591 356.040588,415.663788 
	C366.379456,359.513763 394.223999,313.985321 439.510101,279.161804 
	C440.727539,278.225647 442.284363,277.535004 442.707458,275.321808 
	C436.478821,276.458160 431.472046,279.519897 425.467987,282.045959 
z"/>
<path fill="#000000" opacity="1.000000" stroke="none" 
	d="
M471.000061,495.672241 
	C572.808167,495.678528 674.116211,495.681702 775.424255,495.696655 
	C785.224121,495.698090 790.689697,500.656891 790.308167,509.103119 
	C790.000488,515.915955 785.030640,520.962463 778.196289,521.336914 
	C776.368286,521.437073 774.528687,521.445862 772.699341,521.373108 
	C770.120178,521.270569 768.949951,522.387939 768.223206,524.952637 
	C764.160156,539.292358 758.862915,543.176086 743.809692,543.177917 
	C589.681702,543.196899 435.553680,543.211060 281.425690,543.219849 
	C266.451141,543.220642 261.357635,539.709656 256.865631,525.678162 
	C255.788895,522.314819 254.155991,521.162231 250.797043,521.369202 
	C248.008453,521.541077 245.154007,521.708740 242.458649,520.389160 
	C237.419052,517.922058 234.308121,512.132935 235.283249,506.777405 
	C236.408508,500.597382 240.682312,496.373718 246.560074,495.761627 
	C248.210190,495.589783 249.889130,495.675293 251.554840,495.675232 
	C324.536591,495.671967 397.518311,495.672394 471.000061,495.672241 
z"/>
</svg>