<svg version="1.1" id="Layer_1" xmlns="http://www.w3.org/2000/svg" xmlns:xlink="http://www.w3.org/1999/xlink" x="0px" y="0px"
	 width="100%" viewBox="0 0 1024 1024" enable-background="new 0 0 1024 1024" xml:space="preserve">
<path fill="#000000" opacity="1.000000" stroke="none" 
	d="
M695.277039,307.760742 
	C703.016663,318.277893 709.381470,329.212128 715.071045,340.545166 
	C720.660828,351.679565 725.150452,363.277588 729.292847,375.030243 
	C729.198669,351.226410 722.677368,328.976349 712.018433,307.005585 
	C719.853577,306.725281 726.139282,308.256470 732.282349,310.138702 
	C774.354919,323.029572 801.196045,351.505127 814.172424,392.824890 
	C829.409241,441.342651 821.254395,486.508270 790.306763,526.782104 
	C768.413757,555.272705 738.711548,570.501587 702.666809,571.969360 
	C683.301086,572.757935 664.653992,568.299561 646.736755,560.932373 
	C645.714661,560.512146 644.701660,560.069824 643.547302,559.955444 
	C657.769043,572.131104 673.946899,580.099426 692.572632,582.718140 
	C700.187317,583.788879 700.222595,583.681824 700.220459,591.119141 
	C700.212219,620.448120 700.108521,649.777466 700.260620,679.105591 
	C700.283508,683.524109 699.000671,685.495667 694.532471,686.642334 
	C657.686523,696.097656 620.271973,701.871704 582.426880,705.484131 
	C543.383606,709.210938 504.276978,709.928528 465.130768,709.191467 
	C446.512482,708.841003 427.915222,707.372437 409.222473,706.810547 
	C418.759460,708.380798 428.269104,710.145935 437.838257,711.486267 
	C472.684784,716.367004 507.735077,718.960876 542.900269,718.484436 
	C593.579712,717.797729 643.985718,713.799561 693.654297,702.961304 
	C699.924866,701.593018 700.224854,701.858093 700.226562,708.189331 
	C700.231384,726.020020 700.238770,743.850769 700.181580,761.681274 
	C700.148499,771.978088 695.359680,778.678589 685.311707,781.555176 
	C670.411682,785.820801 655.101990,788.149841 639.777649,790.297546 
	C601.149475,795.711121 562.319641,798.428467 523.324280,798.624390 
	C491.694855,798.783264 460.099182,798.346130 428.534454,795.548401 
	C401.144836,793.120667 373.990417,789.564575 347.219635,783.263977 
	C344.308655,782.578857 341.411438,781.754822 338.601135,780.737488 
	C330.104675,777.661987 325.824677,770.822754 325.813110,760.253540 
	C325.773468,724.092224 325.784027,687.930847 325.773407,651.769531 
	C325.767670,632.272400 325.862213,612.774292 325.665985,593.279053 
	C325.624237,589.133179 327.101532,587.453735 331.069672,586.548157 
	C348.893616,582.480530 364.136993,573.600891 377.246796,560.952942 
	C378.398865,559.841431 379.868439,558.906982 379.854187,556.867615 
	C377.319611,556.973145 375.576447,558.621826 373.591217,559.691833 
	C341.484650,576.996155 308.278717,581.945679 274.374542,566.047852 
	C244.929367,552.240784 225.001114,528.758362 213.920624,498.480713 
	C198.368027,455.982971 199.818054,413.935577 222.499176,374.147125 
	C243.897736,336.608643 276.933838,314.272400 318.866821,304.674438 
	C333.651123,301.290497 348.604309,301.414062 363.599762,301.844208 
	C365.243469,301.891357 366.948944,301.923187 369.019470,303.636261 
	C350.452911,330.210083 338.666748,359.645203 334.545471,392.009186 
	C339.296936,378.846161 344.789825,366.014099 351.493195,353.734924 
	C380.130096,301.277863 420.920227,262.204163 477.157471,240.416229 
	C503.901886,230.054642 531.688293,224.893036 560.355408,227.909851 
	C608.075195,232.931717 648.069336,253.637772 680.332764,289.202484 
	C685.599182,295.007812 690.535950,301.075439 695.277039,307.760742 
z"/>
</svg>