<svg version="1.1" id="Layer_1" xmlns="http://www.w3.org/2000/svg" xmlns:xlink="http://www.w3.org/1999/xlink" x="0px" y="0px"
	 width="100%" viewBox="0 0 1024 704" enable-background="new 0 0 1024 704" xml:space="preserve">
<path fill="#000000" opacity="1.000000" stroke="none" 
	d="
M476.133301,324.129761 
	C453.034241,357.750793 456.540070,391.487244 474.529663,425.344818 
	C482.950684,441.193726 494.099152,455.099670 506.079407,468.368683 
	C506.961212,469.345306 507.791931,470.368042 508.870178,471.631500 
	C506.333618,475.423981 502.403778,477.381378 499.031403,479.932007 
	C491.321747,485.763092 483.368195,491.226349 474.884552,495.907166 
	C466.579315,500.489502 458.455658,500.420105 450.180634,495.773010 
	C433.396179,486.347168 418.205658,474.685486 403.437531,462.465515 
	C374.633514,438.631531 349.048981,411.843750 329.270935,379.905914 
	C318.585907,362.651611 310.397278,344.385620 307.132324,324.109375 
	C299.540894,276.964142 329.513397,230.479340 378.074219,222.092804 
	C404.548126,217.520676 428.284943,224.309875 448.343262,242.610336 
	C452.032898,245.976639 455.625763,249.476013 458.988892,253.164200 
	C461.454590,255.868195 463.375458,256.014587 465.968903,253.351242 
	C470.847565,248.341171 475.759979,243.358017 481.254700,238.980576 
	C529.587158,200.476303 605.630249,225.481445 618.567139,291.414612 
	C619.236938,294.828308 618.543945,296.665192 615.338135,298.035706 
	C609.166626,300.674133 603.654236,304.479431 598.606018,308.851746 
	C595.923645,311.175018 594.184692,310.985535 591.431458,308.717834 
	C576.797058,296.664154 560.009399,289.981659 540.900269,290.323700 
	C515.762146,290.773682 495.295929,301.198090 479.146759,320.325104 
	C478.179810,321.470337 477.271851,322.665375 476.133301,324.129761 
z"/>
<path fill="#000000" opacity="1.000000" stroke="none" 
	d="
M544.610046,304.235962 
	C562.699158,305.456665 577.290527,312.947021 589.508179,325.521423 
	C594.767151,330.933960 594.949707,330.919525 600.197205,325.739624 
	C610.741760,315.330841 622.712219,307.837860 637.606506,305.071625 
	C674.619751,298.197449 711.609863,326.171936 715.508728,363.479340 
	C718.331116,390.486542 708.232544,413.140015 693.431824,434.234039 
	C670.442444,466.998596 640.904846,492.918854 607.269531,514.349731 
	C598.942200,519.655579 590.887329,519.759888 582.520020,514.302734 
	C547.284790,491.322174 516.113037,464.058167 492.748749,428.706146 
	C483.117493,414.133331 476.232758,398.380707 474.272369,380.687561 
	C470.309906,344.924164 495.568939,309.647705 533.217957,304.741821 
	C536.839600,304.269867 540.477417,303.631805 544.610046,304.235962 
z"/>
</svg>