<?xml version="1.0" encoding="UTF-8"?>
<svg version="1.1" xmlns="http://www.w3.org/2000/svg" width="1346" height="1106">
<path d="M0 0 C73.76403751 45.17748398 153.44717883 79.98940296 326.50683594 114.34716797 C327.34428345 114.44830902 328.18173096 114.54945007 329.04455566 114.65365601 C334.96375851 115.36111387 340.88819917 115.99848817 346.81933594 116.59716797 C347.73127716 116.69179321 348.64321838 116.78641846 349.58279419 116.88391113 C367.00911561 118.64640206 384.36003863 118.91103803 401.85473633 118.85791016 C405.60641501 118.84658891 409.35780745 118.85325836 413.10947609 118.86478901 C439.4374069 118.93329827 465.63222123 117.74947901 491.81933594 114.90966797 C492.56875458 114.83123657 493.31817322 114.75280518 494.09030151 114.67199707 C504.15349477 113.61264541 514.16176082 112.29186105 524.16699219 110.78076172 C525.22236176 110.62211136 526.27773132 110.463461 527.36508179 110.30000305 C532.52677167 109.51995033 537.68391305 108.71906418 542.83691406 107.88354492 C552.34867626 106.38178241 561.65830899 105.30921287 571.29980469 105.28857422 C572.15228287 105.28670105 573.00476105 105.28482788 573.8830719 105.28289795 C586.42715978 105.46388375 598.67064457 110.10661981 607.99902344 118.63232422 C623.49694826 135.36077097 625.59302715 154.83803551 624.99414062 176.8515625 C621.61758662 249.20224903 597.1711968 322.98738224 572.81933594 390.59716797 C572.53014282 391.40051575 572.24094971 392.20386353 571.94299316 393.03155518 C552.36511936 447.2825426 529.17931935 500.32543958 500.81933594 550.59716797 C500.24747559 551.61198242 499.67561523 552.62679687 499.08642578 553.67236328 C487.00414083 575.03298631 474.09869783 595.79500384 460.50683594 616.22216797 C460.09640045 616.83974976 459.68596497 617.45733154 459.26309204 618.09362793 C453.29455499 627.06028944 447.12846774 635.86719102 440.81933594 644.59716797 C440.19551025 645.4626123 439.57168457 646.32805664 438.92895508 647.21972656 C431.34497235 657.70311329 423.49567039 667.90834393 415.24316406 677.87353516 C413.23093121 680.30946862 411.24625844 682.76759272 409.25683594 685.22216797 C401.33190152 694.88566203 393.17995318 704.33452555 384.68237305 713.49853516 C382.88610776 715.43776605 381.10351139 717.3868619 379.328125 719.34545898 C372.97825642 726.34742049 366.44455582 733.12874437 359.74780273 739.79907227 C358.11877022 741.42269026 356.49522865 743.051664 354.87207031 744.68115234 C349.35932412 750.19740454 343.76034594 755.53995913 337.81933594 760.59716797 C336.21165221 762.05162314 334.60693879 763.50937692 333.00683594 764.97216797 C327.75758176 769.7028788 322.32381673 774.16811273 316.81933594 778.59716797 C315.63941434 779.55781801 314.4597387 780.51877021 313.28027344 781.47998047 C305.01474079 788.18957177 296.59201995 794.56647746 287.81933594 800.59716797 C287.06974609 801.11504883 286.32015625 801.63292969 285.54785156 802.16650391 C230.10469144 840.30872611 162.29206561 872.24673824 93.22241211 860.16308594 C88.36485601 859.1549952 83.58858249 857.96139035 78.81933594 856.59716797 C77.90603516 856.34016113 76.99273438 856.0831543 76.05175781 855.81835938 C44.63072061 846.7236775 17.11532446 829.3861479 -6.18066406 806.59716797 C-7.57744385 805.23906006 -7.57744385 805.23906006 -9.00244141 803.85351562 C-32.9891465 780.48978971 -32.9891465 780.48978971 -40.90234375 769.37158203 C-42.37878331 767.32216211 -43.90624079 765.31613614 -45.43847656 763.30810547 C-97.22448092 695.00353123 -127.78223265 610.94480195 -159.86816406 442.97216797 C-159.96512573 442.20265808 -160.0620874 441.43314819 -160.1619873 440.64031982 C-160.78163441 435.67099566 -161.33918961 430.69730652 -161.85601807 425.71624756 C-162.08760877 423.49120908 -162.32593686 421.26686757 -162.56878662 419.04302979 C-165.26015873 393.93532446 -165.58565947 369.00774292 -165.44494629 343.77301025 C-165.42585625 339.69516485 -165.42183735 335.61736413 -165.41808796 331.53948021 C-165.38905377 302.55311343 -165.26153164 273.60080036 -162.49316406 244.72216797 C-162.40829742 243.81427521 -162.32343079 242.90638245 -162.23599243 241.97097778 C-143.91826293 46.97059233 -143.91826293 46.97059233 -103.18066406 -3.40283203 C-102.64054688 -4.10408203 -102.10042969 -4.80533203 -101.54394531 -5.52783203 C-71.39498836 -42.63424059 -31.91792711 -19.55147612 0 0 Z M-29.18066406 135.59716797 C-25.96780628 138.90069094 -22.68229895 141.88048741 -19.06347656 144.72998047 C-13.02072406 149.62616981 -7.52811418 154.95353683 -2.05566406 160.47216797 C-1.13140625 161.38869141 -0.20714844 162.30521484 0.74511719 163.24951172 C6.86842563 169.39009324 12.42399835 175.81400854 17.81933594 182.59716797 C18.90444618 183.91380559 19.99263332 185.22791818 21.08496094 186.53857422 C28.5154151 195.52883791 35.4381277 204.80280801 42.18994141 214.31054688 C44.35810044 217.35324653 46.55132074 220.37743686 48.74487305 223.40185547 C57.86212259 235.97699697 66.78624669 248.68594099 75.69433594 261.40966797 C76.27803955 262.24320801 76.86174316 263.07674805 77.46313477 263.93554688 C80.44888384 268.20160548 83.42833672 272.47186363 86.39746094 276.74951172 C102.80415426 304.15019686 102.80415426 304.15019686 126.81933594 322.59716797 C135.0995325 323.58864782 142.99343022 323.79448622 149.81933594 318.59716797 C150.60566406 318.01064453 151.39199219 317.42412109 152.20214844 316.81982422 C159.84297789 310.54593214 166.22001446 302.24428779 169.84277344 292.97998047 C170.05151464 290.4109535 170.05151464 290.4109535 168.01074219 288.16748047 C167.14320313 287.36052734 166.27566406 286.55357422 165.38183594 285.72216797 C164.5375 284.92037109 163.69316406 284.11857422 162.82324219 283.29248047 C160.56427323 281.24233029 158.26552099 279.23979326 155.96386719 277.23779297 C151.86283018 273.66312592 147.89583694 269.96057172 143.94433594 266.22216797 C138.82756084 261.4019834 133.67322201 256.63788507 128.42871094 251.95654297 C124.42731896 248.33851789 120.49599636 244.64628298 116.55737305 240.96020508 C112.49251979 237.15658 108.41453408 233.36809431 104.31933594 229.59716797 C99.56938566 225.223335 94.84638733 220.8216181 90.13183594 216.40966797 C81.83174361 208.64935048 73.41168535 201.03313646 64.81933594 193.59716797 C63.82546875 192.73607422 62.83160156 191.87498047 61.80761719 190.98779297 C58.16101961 187.8384829 54.49418977 184.71343675 50.81933594 181.59716797 C50.15192383 181.0301416 49.48451172 180.46311523 48.796875 179.87890625 C13.71240691 149.44196772 13.71240691 149.44196772 -29.18066406 135.59716797 Z M-39.18066406 232.59716797 C-42.15827664 235.57478054 -40.49290151 245.04434809 -40.49536133 249.05249023 C-40.20553689 274.36325263 -31.58333407 299.18106381 -15.18066406 318.59716797 C-14.49101563 319.42087891 -13.80136719 320.24458984 -13.09082031 321.09326172 C4.18006103 341.03521083 29.89307002 353.90482708 56.20092773 356.44262695 C62.06892054 356.78896163 67.94331492 356.73945038 73.81933594 356.72216797 C75.13417969 356.72603516 76.44902344 356.72990234 77.80371094 356.73388672 C84.56087641 356.72710242 91.12384384 356.52220306 97.81933594 355.59716797 C91.3857704 338.40033877 76.74669453 323.27313623 64.81933594 309.59716797 C64.10777344 308.77345703 63.39621094 307.94974609 62.66308594 307.10107422 C53.41043561 296.58826815 43.54576338 286.41337081 32.52636719 277.74951172 C30.10282968 275.82257208 27.77194937 273.81848064 25.44726562 271.77441406 C10.48479604 258.73009014 -6.21183453 248.43763943 -23.61962891 239.00292969 C-25.3305696 238.06378798 -27.02905756 237.10160415 -28.71435547 236.1171875 C-29.50374512 235.65812012 -30.29313477 235.19905273 -31.10644531 234.72607422 C-31.79778564 234.31558838 -32.48912598 233.90510254 -33.20141602 233.48217773 C-35.42791008 232.32503751 -35.42791008 232.32503751 -39.18066406 232.59716797 Z M429.81933594 244.59716797 C427.64135643 245.17811894 425.46294719 245.75746051 423.28417969 246.33544922 C385.66625088 256.58005653 348.98883329 270.38690634 312.48168945 283.96655273 C296.16568192 290.03144868 279.79322209 295.89671678 263.31689453 301.51196289 C262.5420723 301.77827515 261.76725006 302.0445874 260.96894836 302.31896973 C259.54424948 302.80844939 258.11790688 303.29318283 256.68962097 303.77209473 C253.83681436 304.7546897 251.98330844 305.43319546 249.81933594 307.59716797 C247.81239557 318.68201301 252.5739966 331.84528209 258.10839844 341.28466797 C261.86076364 346.35635792 267.62342569 350.58492503 273.82714844 352.08154297 C293.50472992 354.55031703 311.9361876 340.48457749 327.81933594 330.59716797 C328.75696777 330.01515625 329.69459961 329.43314453 330.66064453 328.83349609 C336.70277634 325.07951485 342.73117744 321.30396847 348.75488281 317.52050781 C354.7684073 313.74624507 360.79172738 309.98763381 366.81396484 306.22729492 C371.84434012 303.08525648 376.87077789 299.93724358 381.88964844 296.77685547 C460.18060878 247.52972272 460.18060878 247.52972272 494.81933594 242.59716797 C489.19422742 236.97205945 476.65440709 239.23911659 469.05212402 239.21438599 C455.34780485 239.22670939 443.0247238 240.81637227 429.81933594 244.59716797 Z M291.81933594 392.59716797 C293.42956974 397.42786936 297.70930731 398.58965403 302.06933594 400.84716797 C303.00358398 401.3337085 303.93783203 401.82024902 304.90039062 402.3215332 C332.56847414 416.30136697 365.00069202 421.6939998 395.07714844 412.34326172 C410.9961202 406.94143662 423.74538902 398.08965002 435.81933594 386.59716797 C436.33657227 386.10732422 436.85380859 385.61748047 437.38671875 385.11279297 C448.13961427 374.7237977 455.1985323 362.03438675 460.94433594 348.34716797 C461.23985352 347.64438721 461.53537109 346.94160645 461.83984375 346.2175293 C463.29397183 342.56134706 464.17095416 339.54140716 463.81933594 335.59716797 C403.79464977 332.65050156 340.26178919 359.21604548 291.81933594 392.59716797 Z M-2.18066406 531.59716797 C2.24136801 553.663328 13.52204682 575.31525957 27.81933594 592.59716797 C28.2630957 593.13954102 28.70685547 593.68191406 29.1640625 594.24072266 C59.50145361 631.24521147 103.77663602 654.22319556 151.38183594 659.28466797 C161.16919367 659.93893881 171.0174372 659.76199417 180.81933594 659.59716797 C181.94227051 659.57831543 181.94227051 659.57831543 183.08789062 659.55908203 C228.0179283 658.50317227 268.11290409 637.30146769 298.98339844 605.63623047 C302.27229642 602.17867105 305.11867237 598.5324206 307.81933594 594.59716797 C305.81075513 593.31958201 305.81075513 593.31958201 303.41870117 594.21459961 C302.41524658 594.55869873 301.41179199 594.90279785 300.37792969 595.25732422 C298.68446411 595.82567993 298.68446411 595.82567993 296.95678711 596.40551758 C295.73580322 596.81938721 294.51481934 597.23325684 293.25683594 597.65966797 C275.2044442 603.61520391 256.82618337 608.91890378 237.81933594 610.59716797 C236.47427979 610.72309326 236.47427979 610.72309326 235.10205078 610.8515625 C226.04857793 611.63607518 217.02500176 611.83890509 207.94433594 611.84716797 C207.16709167 611.84817505 206.38984741 611.84918213 205.58905029 611.85021973 C133.32205484 611.78765886 65.61963032 588.52335746 10.52294922 541.54711914 C6.40888585 538.05380222 2.18937747 534.76759026 -2.18066406 531.59716797 Z " fill="#040404" transform="translate(706.1806640625,225.40283203125)"/>
<path d="M0 0 C42.70121374 32.92551453 56.95680181 109.71296724 69.6015625 159.37890625 C69.79371338 160.13362717 69.98586426 160.88834808 70.18383789 161.66593933 C74.09916925 177.21678286 74.09916925 177.21678286 73.78125 182.14453125 C67.02972592 180.12122322 60.86514068 177.40579276 54.59375 174.20703125 C53.63742676 173.72250488 52.68110352 173.23797852 51.69580078 172.73876953 C33.27421542 163.3454206 15.5056538 153.05710162 -2.11807251 142.26264954 C-33.5549824 123.0166844 -65.7917005 103.68103695 -104.28125 112.76953125 C-131.41302859 119.84348274 -152.28704346 138.01603339 -166.34375 161.83203125 C-167.67928 164.24770458 -168.95630972 166.68999376 -170.21875 169.14453125 C-170.73985352 170.14202393 -170.73985352 170.14202393 -171.27148438 171.15966797 C-209.65975309 245.4723264 -219.0677791 340.25710059 -227.21875 448.14453125 C-227.26111786 448.9630658 -227.30348572 449.78160034 -227.34713745 450.62493896 C-228.3153944 469.83779697 -228.42078345 489.03796291 -228.40625 508.26953125 C-228.40598312 509.06289761 -228.40571625 509.85626396 -228.40544128 510.67367172 C-228.39100321 544.92515134 -227.0204474 578.70814409 -223.54003906 612.79223633 C-222.64944659 621.60587995 -221.91541061 630.27016881 -222.21875 639.14453125 C-234.93117227 645.50074239 -256.97204437 642.5107353 -270.96875 642.45703125 C-272.01623413 642.45454376 -273.06371826 642.45205627 -274.14294434 642.44949341 C-300.46004803 642.35321376 -325.34706094 638.87872943 -351.09765625 633.66796875 C-351.78894119 633.52951035 -352.48022614 633.39105194 -353.19245911 633.24839783 C-357.97939228 632.26421011 -357.97939228 632.26421011 -360.21875 631.14453125 C-330.48339104 666.56309875 -289.4595735 687.94758762 -244.21875 696.14453125 C-243.02378906 696.36625 -241.82882812 696.58796875 -240.59765625 696.81640625 C-230.88090157 698.4503064 -221.02391192 699.22560281 -211.21875 700.14453125 C-209.40694623 705.2237584 -208.16977277 710.35059245 -206.96875 715.59765625 C-206.52685219 717.4981976 -206.08427849 719.3985819 -205.64111328 721.29882812 C-205.4097467 722.29261475 -205.17838013 723.28640137 -204.94000244 724.31030273 C-192.99315887 775.39754142 -176.75522612 825.07712554 -154.87475586 872.80932617 C-154.39530518 873.86224854 -153.91585449 874.9151709 -153.421875 876 C-152.99551758 876.92449951 -152.56916016 877.84899902 -152.12988281 878.80151367 C-151.21875 881.14453125 -151.21875 881.14453125 -151.21875 884.14453125 C-198.38350874 883.01067266 -241.37861504 870.9548333 -283.22021484 849.18066406 C-285.34444512 848.0793651 -287.47847613 846.99861221 -289.61328125 845.91796875 C-321.44287185 829.65789532 -351.93792577 809.25347532 -379.21875 786.14453125 C-380.28480475 785.25218407 -381.35123115 784.36028077 -382.41796875 783.46875 C-388.36269306 778.48550667 -394.20992157 773.41538409 -399.94921875 768.1953125 C-402.05527418 766.29225037 -404.19195469 764.43299304 -406.34375 762.58203125 C-409.80539449 759.57220783 -413.01708031 756.36483148 -416.234375 753.09765625 C-418.0865447 751.27465458 -419.9905018 749.57849459 -421.96875 747.89453125 C-429.71066998 741.22151541 -436.89136691 733.85043401 -443.51171875 726.0703125 C-445.49474795 723.83316514 -447.59068386 721.74398473 -449.71875 719.64453125 C-453.11143399 716.29196346 -456.30975684 712.84977443 -459.4140625 709.23046875 C-461.43526276 706.89427624 -463.51253839 704.61488274 -465.59375 702.33203125 C-469.48799618 698.01678549 -473.18529724 693.5736137 -476.83984375 689.0546875 C-478.94829837 686.4753793 -481.0920609 683.93493449 -483.25805664 681.40429688 C-488.69045007 675.05275045 -493.87526026 668.55471001 -498.90771484 661.88085938 C-500.27236208 660.07352769 -501.64569872 658.27301311 -503.01953125 656.47265625 C-528.52789427 622.91126801 -550.89280394 587.04788836 -571.21875 550.14453125 C-571.755 549.17499512 -572.29125 548.20545898 -572.84375 547.20654297 C-589.53085457 516.9464073 -604.64058292 485.98709773 -618.3092041 454.25463867 C-619.19128636 452.20824572 -620.07714676 450.16352733 -620.96386719 448.11914062 C-629.78958017 427.73355445 -637.76593638 407.06951828 -645.21875 386.14453125 C-645.51843689 385.30345825 -645.81812378 384.46238525 -646.12689209 383.5958252 C-658.74008454 348.10988197 -670.45096193 312.0432884 -678.21875 275.14453125 C-678.39229004 274.34821289 -678.56583008 273.55189453 -678.74462891 272.73144531 C-680.93262596 262.40825445 -681.50672777 252.25260554 -681.59375 241.70703125 C-681.60776855 240.54582764 -681.62178711 239.38462402 -681.63623047 238.18823242 C-681.54424439 221.69324114 -676.52030917 207.59216887 -664.98046875 195.62109375 C-660.48267843 191.5877146 -655.75842563 188.54485377 -650.21875 186.14453125 C-649.47072113 185.8096167 -648.72269226 185.47470215 -647.95199585 185.12963867 C-637.13243848 181.04134026 -626.12631362 181.67274713 -614.72109795 181.81330681 C-610.8833108 181.86037495 -607.04605863 181.8821665 -603.20802307 181.89808655 C-595.71290821 181.93352774 -588.21821681 181.9956943 -580.72333527 182.06349945 C-530.88693075 182.6782412 -530.88693075 182.6782412 -481.21875 179.14453125 C-479.32526347 178.94187588 -477.43164161 178.74047802 -475.5378418 178.54077148 C-471.12962163 178.05990758 -466.73649539 177.4994297 -462.34375 176.89453125 C-461.58255859 176.79192993 -460.82136719 176.68932861 -460.03710938 176.58361816 C-375.55095887 165.13202655 -294.23258395 139.31163977 -183.21875 84.14453125 C-182.28272949 83.60844238 -181.34670898 83.07235352 -180.38232422 82.52001953 C-146.33707244 62.86778968 -113.92207129 40.25350494 -83.43969727 15.45361328 C-59.04110989 -4.32728086 -29.73681309 -20.29452043 0 0 Z M-478.81640625 381.40234375 C-496.90427 402.04897847 -506.61122736 427.80530584 -508.21875 455.14453125 C-502.1146725 451.8811597 -496.35841018 448.31150117 -490.65625 444.39453125 C-482.41444564 438.82690203 -473.9994564 433.80921267 -465.21875 429.14453125 C-464.5882373 428.80470215 -463.95772461 428.46487305 -463.30810547 428.11474609 C-444.55089441 418.06572526 -424.95849883 411.71272498 -404.21875 407.14453125 C-403.43032715 406.97050781 -402.6419043 406.79648437 -401.82958984 406.6171875 C-386.81324181 403.38053088 -371.83696197 402.96973046 -356.53125 403.01953125 C-355.35109314 403.0208606 -355.35109314 403.0208606 -354.14709473 403.0222168 C-342.48016884 403.03764531 -330.85700925 403.26379812 -319.21875 404.14453125 C-323.79910863 396.36997516 -329.66778205 390.03236637 -335.87646484 383.55859375 C-336.93656439 382.44180646 -337.967944 381.29776011 -338.98828125 380.14453125 C-354.79040207 362.79972317 -379.64626865 352.30204678 -402.72241211 351.00366211 C-432.79023352 349.87282407 -457.76519024 359.49816113 -478.81640625 381.40234375 Z " fill="#050504" transform="translate(729.21875,48.85546875)"/>
<path d="M0 0 C0.33 0 0.66 0 1 0 C0.61479843 9.20498935 -0.00974667 18.37318334 -0.85073853 27.54833984 C-4.045861 62.43787708 -5.18221391 97.16228487 -5.1875 132.1875 C-5.18802242 132.9680563 -5.18854485 133.74861259 -5.1890831 134.55282211 C-5.19950576 151.50866923 -5.11720703 168.43133878 -4.21826172 185.36865234 C-3.89550814 191.57911104 -3.90301788 197.78236823 -4 204 C-4.33 204 -4.66 204 -5 204 C-7.19152977 181.84284219 -7.35971477 159.77330587 -7.31765366 137.5293541 C-7.31244398 134.59342991 -7.31050611 131.65751635 -7.30899048 128.72158813 C-7.28639456 103.51899894 -6.94372248 78.36064504 -5.6875 53.1875 C-5.59935532 51.36004242 -5.59935532 51.36004242 -5.50942993 49.4956665 C-4.82852591 35.86662067 -3.62269072 22.4871823 -1.33657837 9.03067017 C-0.83877584 6.02729013 -0.41801236 3.01542884 0 0 Z " fill="#CFCFCF" transform="translate(506,427)"/>
<path d="M0 0 C2.97 0.495 2.97 0.495 6 1 C4.02 1.99 4.02 1.99 2 3 C1.19443269 29.46288601 4.5137706 52.82054321 18 76 C17.67 76.66 17.34 77.32 17 78 C11.779192 70.38871215 8.61310959 62.27389819 5.41796875 53.68359375 C4.380494 50.24520109 4.380494 50.24520109 3 49 C-1.1063653 32.95751586 -0.30526618 16.41549334 0 0 Z " fill="#DFDFDE" transform="translate(665,456)"/>
<path d="M0 0 C0.33 0 0.66 0 1 0 C0.53020795 10.01398846 -0.09635161 20.00992258 -0.9375 30 C-1.01210449 30.96115723 -1.08670898 31.92231445 -1.16357422 32.91259766 C-1.28176514 34.25523682 -1.28176514 34.25523682 -1.40234375 35.625 C-1.46929443 36.42164063 -1.53624512 37.21828125 -1.60522461 38.0390625 C-2 40 -2 40 -4 42 C-4.45872687 30.78667643 -3.22085166 20.25581145 -1.36376953 9.2109375 C-0.85963795 6.14690018 -0.4258183 3.07581372 0 0 Z " fill="#ABABAA" transform="translate(506,427)"/>
<path d="M0 0 C2 2 2 2 2 5 C-1.79186964 4.85917465 -5.58343979 4.71140653 -9.375 4.5625 C-10.43589844 4.52318359 -11.49679687 4.48386719 -12.58984375 4.44335938 C-19.09206713 4.18406826 -25.53417092 3.73783964 -32 3 C-32 2.67 -32 2.34 -32 2 C-21.28399677 1.87174996 -10.687163 2.20414744 0 3 C0 2.01 0 1.02 0 0 Z " fill="#979797" transform="translate(576,928)"/>
<path d="M0 0 C-0.66 1.65 -1.32 3.3 -2 5 C-2.66 4.34 -3.32 3.68 -4 3 C-4.52432617 3.18699463 -5.04865234 3.37398926 -5.58886719 3.56665039 C-7.97216557 4.40965918 -10.36086158 5.23619523 -12.75 6.0625 C-13.575 6.35705078 -14.4 6.65160156 -15.25 6.95507812 C-16.04921875 7.22900391 -16.8484375 7.50292969 -17.671875 7.78515625 C-18.4050293 8.04176025 -19.13818359 8.29836426 -19.89355469 8.56274414 C-22.27364818 9.05680388 -23.71574672 8.76066537 -26 8 C-22.04328884 6.6618184 -18.08437472 5.330278 -14.125 4 C-12.99707031 3.6184375 -11.86914062 3.236875 -10.70703125 2.84375 C-9.63066406 2.4828125 -8.55429687 2.121875 -7.4453125 1.75 C-6.45031738 1.41484375 -5.45532227 1.0796875 -4.43017578 0.734375 C-2 0 -2 0 0 0 Z " fill="#C7C7C7" transform="translate(1016,817)"/>
<path d="M0 0 C-1.55603771 3.81936528 -3.95604931 6.26044438 -7 9 C-7.66 9 -8.32 9 -9 9 C-7.45665977 5.21180126 -4.44676575 0 0 0 Z " fill="#676868" transform="translate(69,242)"/>
<path d="M0 0 C3.7952131 1.49097658 5.61042731 3.75700849 8 7 C4.125 5.125 4.125 5.125 3 4 C2.34 4.66 1.68 5.32 1 6 C0.67 4.02 0.34 2.04 0 0 Z " fill="#CACACA" transform="translate(702,754)"/>
</svg>
