<svg version="1.1" id="Layer_1" xmlns="http://www.w3.org/2000/svg" xmlns:xlink="http://www.w3.org/1999/xlink" x="0px" y="0px"
	 width="100%" viewBox="0 0 1024 1024" enable-background="new 0 0 1024 1024" xml:space="preserve">
<path fill="#000000" opacity="1.000000" stroke="none" 
	d="
M621.768066,304.657166 
	C634.333740,301.904205 645.788696,296.509644 658.390808,295.466278 
	C673.730164,294.196320 685.909790,300.446594 691.687317,314.751923 
	C697.070068,328.079926 701.916138,341.345123 710.070862,353.546448 
	C716.848083,363.686554 717.501892,376.158325 714.087158,388.263977 
	C712.309692,394.565277 708.353760,399.213013 703.846436,400.811462 
	C702.399353,400.008667 702.737122,398.531616 702.674561,397.283569 
	C702.178284,387.376831 696.828003,380.875671 688.167603,376.850769 
	C673.370117,369.973602 658.161987,370.142670 642.893799,374.918182 
	C630.960938,378.650482 619.905884,383.875641 613.222595,396.269470 
	C606.576416,387.732178 598.637817,383.031464 588.167725,383.165070 
	C577.918396,383.295868 569.953979,387.681335 563.246521,396.171356 
	C556.821594,388.038788 548.962036,382.891113 538.742493,382.355804 
	C528.355042,381.811768 520.020020,386.019257 513.050781,394.318085 
	C506.126007,386.746490 497.971344,381.950623 487.661285,382.411346 
	C477.483765,382.866089 469.093048,387.073334 462.683197,396.155518 
	C456.057220,387.953186 447.992218,383.269897 437.682983,383.257477 
	C427.339691,383.245026 418.935883,387.133240 412.879761,395.962463 
	C412.109985,395.436584 411.426147,395.204742 411.126190,394.730225 
	C402.158569,380.546295 387.906403,375.464447 372.540680,372.432220 
	C361.649048,370.282867 350.966949,371.470428 340.682343,375.546570 
	C330.334686,379.647675 323.045807,386.251892 323.163696,398.460876 
	C323.170929,399.211731 322.714050,399.967072 322.407532,400.925354 
	C319.330200,400.782562 317.862183,398.695526 316.395325,396.777405 
	C309.110809,387.252258 308.916168,376.512878 311.103668,365.364899 
	C312.846252,356.484131 316.779602,348.658691 322.744873,341.941833 
	C325.724487,338.586884 327.626953,334.921051 328.525085,330.564026 
	C329.568329,325.503021 331.184021,320.602631 333.395844,315.914001 
	C341.531281,298.668518 355.254608,291.824097 373.889923,296.396698 
	C390.677673,300.515991 407.086334,306.056702 424.164825,309.151886 
	C462.354218,316.073090 500.794373,317.852722 539.503540,316.080627 
	C567.160339,314.814514 594.492004,311.514587 621.768066,304.657166 
z"/>
<path fill="#000000" opacity="1.000000" stroke="none" 
	d="
M456.838623,668.093933 
	C461.887878,666.827026 465.527588,663.882324 469.468964,660.531128 
	C475.168945,667.116272 481.736633,671.488892 490.527405,671.754700 
	C499.291229,672.019653 506.286713,668.376221 512.191101,662.514038 
	C532.744995,675.174988 539.064880,674.944214 555.773132,660.772217 
	C561.746155,666.192139 568.713684,669.535767 577.219788,668.973328 
	C585.647461,668.416199 591.909851,664.210022 596.920532,657.867676 
	C600.126648,658.571899 600.985535,661.526367 603.067017,663.071472 
	C619.099792,674.972046 636.519287,678.207825 655.365479,671.077148 
	C665.450134,667.261536 669.949768,658.948792 671.602539,648.789001 
	C671.950073,646.652893 672.253967,644.524597 673.295166,642.594849 
	C678.647339,644.134949 682.593323,651.059021 681.877686,658.723572 
	C680.681335,671.536377 676.212341,683.015686 666.627075,692.019287 
	C664.719727,693.810913 663.525757,695.767822 662.816040,698.265442 
	C661.174927,704.040833 659.041809,709.627441 656.017151,714.864807 
	C650.041870,725.211182 640.839172,729.677673 629.210632,730.401367 
	C614.835083,731.296082 601.168030,727.403320 587.275391,724.869751 
	C556.521667,719.261047 525.542175,717.523010 494.286743,718.788086 
	C468.398407,719.835876 442.959320,723.464661 417.654846,728.796387 
	C408.556549,730.713379 399.196381,731.129761 389.842682,729.472839 
	C380.471497,727.812866 373.191406,723.058289 369.171448,714.596313 
	C363.855225,703.405823 358.912903,692.235413 351.224060,682.208008 
	C345.465302,674.697754 342.854034,665.194275 343.690582,655.296509 
	C344.176636,649.545654 346.501221,644.903076 352.118347,641.744080 
	C353.789001,645.019043 353.914032,648.181091 354.473572,651.182617 
	C357.230286,665.969971 366.155640,673.101624 382.151031,674.563599 
	C399.147552,676.117188 414.601349,672.039856 426.491180,658.676025 
	C426.688690,658.454041 427.088013,658.411621 427.861603,658.091553 
	C435.142548,667.268616 444.745514,670.823120 456.838623,668.093933 
z"/>
<path fill="#000000" opacity="1.000000" stroke="none" 
	d="
M345.676453,383.393311 
	C363.421753,378.018738 379.583313,381.027863 394.768616,390.476501 
	C397.333069,392.072174 399.418152,394.241058 401.261597,396.639832 
	C403.865540,400.028168 404.677338,403.465729 403.148743,407.782013 
	C393.026947,436.362671 385.175171,465.562775 379.902679,495.436066 
	C378.690033,502.306671 377.826263,509.246857 376.387115,516.067505 
	C374.405090,525.460999 365.273499,528.666016 357.622314,522.874512 
	C352.639343,519.102661 349.972107,513.689758 347.607544,508.176971 
	C340.666077,491.993713 337.435913,474.829407 334.841766,457.552856 
	C332.118134,439.414246 331.123047,421.148468 331.717682,402.801880 
	C332.107361,390.779999 334.093597,387.896637 345.676453,383.393311 
z"/>
<path fill="#000000" opacity="1.000000" stroke="none" 
	d="
M627.700073,422.180420 
	C625.833191,416.595825 624.261841,411.316040 622.232910,406.218353 
	C620.735657,402.456299 621.452759,399.391205 623.992798,396.562897 
	C625.435486,394.956451 626.833191,393.180115 628.604065,392.018158 
	C644.589722,381.529053 661.713745,377.497162 680.366028,383.660889 
	C688.447632,386.331482 693.167542,391.167511 693.612610,400.682556 
	C695.256409,435.826416 690.877502,470.067413 679.938965,503.465118 
	C677.971252,509.472900 675.347656,515.259949 670.977966,520.055908 
	C667.084900,524.328613 662.396240,526.620239 656.689087,524.914612 
	C650.897339,523.183716 649.434875,518.213379 648.659424,512.827820 
	C644.243225,482.156525 637.408936,452.037659 627.700073,422.180420 
z"/>
<path fill="#000000" opacity="1.000000" stroke="none" 
	d="
M417.521545,639.617676 
	C418.251892,641.542786 418.827362,643.105896 419.448364,644.650635 
	C421.274445,649.193176 420.382385,652.935974 416.730042,656.357422 
	C406.148529,666.269897 383.154999,668.878296 370.692505,661.472778 
	C366.628784,659.057983 364.835785,655.260071 363.731903,650.956787 
	C360.212189,637.235779 360.198120,623.222229 360.871429,609.256470 
	C361.617615,593.779480 363.914886,578.476868 368.738068,563.663818 
	C370.338623,558.748230 372.005096,553.823608 375.549622,549.875488 
	C378.573090,546.507690 382.172363,544.024719 386.934540,545.154236 
	C391.726654,546.290894 393.797943,549.885925 394.583618,554.582581 
	C399.427948,583.542786 406.696869,611.857849 417.521545,639.617676 
z"/>
<path fill="#000000" opacity="1.000000" stroke="none" 
	d="
M652.648438,554.536804 
	C658.828186,567.321716 661.419373,580.719604 663.070923,594.258911 
	C665.027466,610.298767 665.251343,626.409546 663.374695,642.523193 
	C661.420776,659.299866 654.884399,665.164429 638.029419,665.472595 
	C628.398438,665.648743 619.542969,663.411316 611.501526,658.213379 
	C604.661133,653.791931 603.643982,650.243958 606.525635,642.681885 
	C616.970459,615.272156 625.007874,587.198364 629.840881,558.238525 
	C630.004578,557.257690 630.397644,556.314209 630.550598,555.332520 
	C631.330872,550.324585 633.546753,546.364929 638.863525,545.318237 
	C644.152588,544.276978 647.662109,547.396851 650.633240,551.241821 
	C651.340149,552.156494 651.856995,553.218018 652.648438,554.536804 
z"/>
<path fill="#000000" opacity="1.000000" stroke="none" 
	d="
M475.878754,423.942230 
	C473.676300,418.681763 472.012390,413.642365 470.955444,408.425934 
	C469.630890,401.888855 471.600281,397.536194 477.511383,394.321259 
	C484.611267,390.459839 491.906738,390.628204 498.991211,394.240601 
	C505.380493,397.498566 506.851837,401.782623 504.490234,408.538269 
	C501.960144,415.775940 498.626862,422.635864 494.637238,429.167419 
	C489.775513,437.126648 483.477264,437.097473 478.584351,429.133881 
	C477.631012,427.582184 476.873688,425.910065 475.878754,423.942230 
z"/>
<path fill="#000000" opacity="1.000000" stroke="none" 
	d="
M528.561035,393.091705 
	C536.515442,390.507019 543.733154,391.136139 550.199585,395.985168 
	C554.207764,398.990875 556.007019,402.907867 554.690613,408.186646 
	C552.917664,415.295929 551.072021,422.342163 547.326599,428.709595 
	C542.438049,437.020477 536.035828,437.046509 531.133118,428.812531 
	C527.561157,422.813538 524.411011,416.601013 521.867981,410.090332 
	C518.400085,401.211731 519.691101,397.771942 528.561035,393.091705 
z"/>
<path fill="#000000" opacity="1.000000" stroke="none" 
	d="
M435.319153,392.239960 
	C438.731995,392.182678 441.679413,392.564209 444.512421,393.619293 
	C454.278503,397.256378 456.401428,402.048492 452.336548,411.410858 
	C449.490417,417.966156 446.411346,424.418030 442.530426,430.429749 
	C438.379761,436.859375 432.384705,437.017334 428.196350,430.695251 
	C423.540070,423.666840 420.890778,415.758514 419.816284,407.460480 
	C418.804321,399.645599 424.422424,394.272308 435.319153,392.239960 
z"/>
<path fill="#000000" opacity="1.000000" stroke="none" 
	d="
M604.776306,401.518860 
	C606.374390,413.381592 602.566162,423.493774 595.917175,432.516571 
	C592.854248,436.673035 587.407349,436.348419 584.378540,432.080780 
	C578.478455,423.767487 574.392395,414.460022 571.096497,404.848877 
	C569.871643,401.277069 572.422363,398.845428 574.875854,396.816315 
	C584.061951,389.219116 597.750122,391.273590 604.776306,401.518860 
z"/>
<path fill="#000000" opacity="1.000000" stroke="none" 
	d="
M542.902466,660.119568 
	C533.999817,664.309570 526.147400,663.268188 521.119202,657.511292 
	C519.132141,655.236267 518.174622,652.817810 519.128784,649.736694 
	C521.455261,642.224121 524.624573,635.088440 528.873230,628.494141 
	C532.220520,623.298950 537.570007,623.246338 541.043579,628.335449 
	C545.632080,635.057922 547.844666,642.765137 548.975708,650.694214 
	C549.582764,654.949829 546.512451,657.686890 542.902466,660.119568 
z"/>
<path fill="#000000" opacity="1.000000" stroke="none" 
	d="
M506.465210,652.117493 
	C504.206573,660.358826 495.696411,664.608521 486.934875,662.255371 
	C478.587646,660.013550 475.225555,654.290344 477.240356,645.561523 
	C478.552673,639.876282 479.996399,634.193604 483.118744,629.180664 
	C486.888153,623.128845 492.394897,623.071228 496.090149,629.102600 
	C500.448914,636.216980 504.115479,643.684998 506.465210,652.117493 
z"/>
<path fill="#000000" opacity="1.000000" stroke="none" 
	d="
M436.120361,653.394897 
	C433.246185,646.231567 437.406738,629.207214 442.808044,624.802551 
	C445.919586,622.265076 449.978851,622.672424 452.297943,626.293701 
	C456.778442,633.289795 460.291046,640.812378 463.512299,648.473083 
	C464.711090,651.323914 463.333344,653.274414 461.649506,655.174561 
	C455.110718,662.553528 443.801361,661.893188 436.120361,653.394897 
z"/>
<path fill="#000000" opacity="1.000000" stroke="none" 
	d="
M564.056519,642.180603 
	C566.597107,637.081665 568.720886,632.176819 571.424866,627.616028 
	C574.898438,621.757202 580.376160,621.848572 583.999573,627.679260 
	C587.282227,632.961609 589.277283,638.829285 590.162170,644.937073 
	C591.508911,654.232971 582.732056,661.794983 572.903503,660.109314 
	C562.841675,658.383606 559.733826,652.316284 564.056519,642.180603 
z"/>
</svg>