<?xml version="1.0" encoding="UTF-8"?>
<svg version="1.1" xmlns="http://www.w3.org/2000/svg" width="252" height="137">
<path d="M0 0 C7.25667924 1.78470533 13.1845487 1.25708743 20.4609375 -0.0859375 C39.57554934 -3.47644706 63.35187229 -3.6522 80.625 6.4375 C88.84943693 12.9908362 90.09385665 23.87661666 91.88671875 33.640625 C92.08223831 34.68144226 92.27775787 35.72225952 92.47920227 36.7946167 C92.88803683 38.97904422 93.29376941 41.16405439 93.6965332 43.34960938 C94.31351574 46.69300424 94.94216237 50.03405579 95.57226562 53.375 C95.96944166 55.50507948 96.36594946 57.6352837 96.76171875 59.765625 C96.9491716 60.76152649 97.13662445 61.75742798 97.32975769 62.7835083 C97.50026138 63.71507751 97.67076508 64.64664673 97.84643555 65.60644531 C97.99727097 66.42091125 98.14810638 67.2353772 98.30351257 68.07452393 C98.64122123 70.55672825 98.68038835 72.9355236 98.625 75.4375 C99.60557373 75.54239746 99.60557373 75.54239746 100.60595703 75.64941406 C134.9260631 79.40308137 134.9260631 79.40308137 140.625 86.4375 C141.34280839 89.89603135 141.43396312 92.12037953 139.54296875 95.19921875 C114.82048344 123.05113258 51.65832753 124.36379585 17.625 126.4375 C6.6743077 126.93172999 -4.29641578 126.8267944 -15.25494385 126.7600708 C-18.2697939 126.74654688 -21.28449905 126.75193216 -24.299366 126.75692558 C-65.28949467 126.80854292 -65.28949467 126.80854292 -81.375 122.1875 C-82.1491626 121.97351563 -82.9233252 121.75953125 -83.72094727 121.5390625 C-92.41757997 119.01887665 -101.05771305 116.17724113 -106.375 108.4375 C-106.99732667 104.78133079 -106.5733581 102.88144432 -105.0625 99.5 C-95.49208282 86.77267438 -74.10714425 82.27771292 -59.375 78.4375 C-58.715 78.4375 -58.055 78.4375 -57.375 78.4375 C-57.22587158 77.86531738 -57.07674316 77.29313477 -56.9230957 76.70361328 C-54.61261336 68.03003787 -51.99091824 59.45658276 -49.35131836 50.87890625 C-48.57086077 48.33970163 -47.79604414 45.79882141 -47.02148438 43.2578125 C-44.53411535 35.13424713 -41.97597514 27.03514617 -39.2265625 18.99609375 C-38.99627853 18.30228607 -38.76599457 17.60847839 -38.5287323 16.89364624 C-36.09492113 9.9226034 -32.39526285 5.67613071 -26.00390625 2.1171875 C-17.16634801 -2.03312721 -9.44269509 -2.45891822 0 0 Z " fill="#060606" transform="translate(108.375,5.5625)"/>
</svg>
