<svg version="1.1" id="Layer_1" xmlns="http://www.w3.org/2000/svg" xmlns:xlink="http://www.w3.org/1999/xlink" x="0px" y="0px"
	 width="100%" viewBox="0 0 1024 1024" enable-background="new 0 0 1024 1024" xml:space="preserve">
<path fill="#000000" opacity="1.000000" stroke="none" 
	d="
M323.818115,883.417786 
	C306.210052,881.108643 293.198792,872.114807 282.592224,858.776367 
	C265.421509,837.183105 256.145325,812.279297 251.768372,785.445679 
	C242.624008,729.384277 255.566452,677.730652 283.987579,629.381958 
	C304.839752,593.909119 325.917023,558.568542 346.715759,523.064575 
	C348.824921,519.464233 350.404633,519.455444 353.668396,521.416809 
	C381.084015,537.892273 408.593109,554.212219 436.078583,570.571350 
	C437.637360,571.499146 439.235870,572.360168 441.343994,573.550476 
	C445.499298,566.782654 449.635010,560.206604 453.612030,553.535950 
	C461.949036,539.552307 466.225555,538.362183 480.489197,546.570496 
	C488.574860,551.223633 496.604279,555.983154 504.533813,560.896851 
	C514.293884,566.944885 515.838745,573.204285 510.168610,583.042053 
	C506.591766,589.247803 503.074219,595.504761 499.136169,601.479126 
	C496.738831,605.116028 497.757721,606.855591 501.150543,608.864258 
	C525.522278,623.292847 549.810486,637.862427 574.119507,652.396973 
	C578.122803,654.790649 582.059814,657.297668 586.099182,659.627930 
	C588.710938,661.134583 589.553833,662.625549 587.764038,665.595337 
	C564.548035,704.116760 542.393982,743.317444 518.058655,781.114807 
	C489.155212,826.007141 448.982574,857.918640 398.457733,875.964417 
	C374.456757,884.536804 349.683594,887.894592 323.818115,883.417786 
z"/>
<path fill="#000000" opacity="1.000000" stroke="none" 
	d="
M620.025085,277.760468 
	C596.876526,244.230042 598.133362,210.583908 618.182312,176.658890 
	C623.436401,167.768295 628.878845,158.988998 634.230225,150.155853 
	C639.434082,141.566055 646.230469,139.603271 654.945129,144.836365 
	C677.939636,158.644318 700.804199,172.668747 723.706787,186.629501 
	C738.073792,195.387253 752.398254,204.214783 766.775330,212.955948 
	C777.079468,219.220810 779.193726,226.586639 772.972351,236.740555 
	C764.798523,250.081268 758.245850,264.541595 748.086609,276.517273 
	C730.480896,297.271149 708.045410,309.074554 680.413513,308.124542 
	C671.862610,307.830566 667.770752,310.889465 663.729187,317.710449 
	C638.168762,360.848785 612.192261,403.740234 586.413696,446.749573 
	C566.972778,479.185059 547.626709,511.677368 528.218994,544.132812 
	C527.213135,545.815063 526.549377,547.812012 524.748596,548.641418 
	C509.702606,538.075989 494.708344,527.715454 476.952515,521.190918 
	C479.203278,515.208130 483.060089,509.954712 486.339111,504.452362 
	C529.149414,432.613861 572.083374,360.849091 614.908936,289.019684 
	C616.973633,285.556732 620.441223,282.676483 620.025085,277.760468 
M636.628357,237.746353 
	C643.518311,264.621948 661.613708,277.764282 688.918091,275.723358 
	C706.904175,274.378937 728.941162,255.905945 733.709106,237.883575 
	C707.159302,221.842987 680.501404,205.767578 653.890930,189.613968 
	C651.140076,187.944107 649.846375,189.070694 648.270081,191.293167 
	C638.535767,205.017639 633.601746,219.936935 636.628357,237.746353 
z"/>
</svg>