<svg version="1.1" id="Layer_1" xmlns="http://www.w3.org/2000/svg" xmlns:xlink="http://www.w3.org/1999/xlink" x="0px" y="0px"
	 width="100%" viewBox="0 0 1024 704" enable-background="new 0 0 1024 704" xml:space="preserve">
<path fill="#000000" opacity="1.000000" stroke="none" 
	d="
M369.350281,383.547424 
	C374.100281,383.558533 378.390350,383.558533 382.542389,383.558533 
	C383.782776,386.692322 383.128723,389.377655 383.273590,391.990509 
	C383.865143,402.657318 391.005920,409.488678 401.695984,409.731262 
	C410.000275,409.919739 417.975983,408.264404 425.607452,405.276550 
	C442.139587,398.803925 445.090912,381.962189 431.955902,370.100494 
	C431.597992,369.777252 431.348907,369.333466 430.485474,368.217316 
	C440.553833,365.743439 450.431458,365.378967 460.142395,363.996796 
	C460.502106,365.872253 459.507202,366.364899 458.650024,366.789246 
	C452.127808,370.018158 449.292084,375.854553 448.571289,382.519867 
	C446.174286,404.685028 436.206604,412.307373 412.109161,416.257263 
	C409.648010,416.660675 407.156281,416.991302 404.667877,417.095032 
	C392.713257,417.593323 383.506042,413.335388 378.662354,401.751434 
	C375.156067,393.365936 369.695343,387.100189 360.071503,386.453857 
	C350.407837,385.804871 342.129059,389.471100 335.287354,396.250031 
	C325.042969,406.400391 320.316437,419.312500 317.472534,433.022705 
	C314.390228,447.882477 314.807983,462.802887 317.532257,477.688568 
	C319.510254,488.496521 317.730896,490.843262 306.608887,490.971619 
	C286.444733,491.204376 266.277863,491.208435 246.112061,491.298126 
	C241.778976,491.317413 237.444290,491.364563 233.112808,491.277039 
	C224.682953,491.106689 221.099335,486.675476 223.334351,478.579346 
	C229.367447,456.725067 236.846878,435.365448 246.011276,414.614380 
	C252.961655,398.876556 260.817322,383.655548 271.518280,370.058044 
	C285.783264,351.931885 303.429016,339.039825 326.419525,334.297852 
	C335.806488,332.361725 345.303558,332.704529 354.791168,332.602600 
	C358.280701,332.565094 358.334381,334.772858 358.332794,337.262207 
	C358.325012,349.595123 358.342529,361.928070 358.359985,374.260986 
	C358.371796,382.604645 358.378296,382.605469 366.399658,383.336426 
	C367.229065,383.411987 368.060059,383.470093 369.350281,383.547424 
z"/>
<path fill="#000000" opacity="1.000000" stroke="none" 
	d="
M526.258423,311.510620 
	C524.879517,317.770935 522.539795,322.762299 517.332703,326.416382 
	C512.761597,329.624237 511.049744,334.798737 510.278198,340.278351 
	C508.739166,351.208527 504.432495,354.951385 493.405090,356.375183 
	C461.077209,360.549042 428.774750,364.920349 396.468597,369.261017 
	C390.408234,370.075287 385.362976,372.839844 381.949890,378.016846 
	C380.501343,380.213898 378.578339,380.385345 376.339752,380.329193 
	C359.937103,379.917664 361.933136,382.873230 361.865417,366.196503 
	C361.797729,349.531250 361.879913,332.864899 361.711060,316.200928 
	C361.675049,312.645813 362.562836,310.891205 366.381958,310.102753 
	C374.856995,308.353088 375.276581,307.384766 373.780884,299.038025 
	C373.575439,297.891449 373.091095,296.625732 373.372437,295.587677 
	C375.731873,286.882294 372.112274,279.880859 367.705750,272.773560 
	C365.250854,268.814087 362.911652,265.198303 358.386993,263.555389 
	C357.152069,263.106964 355.630859,262.999939 355.698914,261.173462 
	C355.768494,259.307343 357.237335,258.669006 358.683594,258.260742 
	C363.075806,257.020874 366.903137,258.456940 370.329498,261.122314 
	C372.297150,262.652985 373.991211,264.537903 375.972473,266.048157 
	C380.424225,269.441620 385.160339,269.528870 390.021576,266.891937 
	C391.042175,266.338287 392.777527,265.665131 392.360291,264.632294 
	C389.958740,258.687012 395.643829,253.340454 393.408722,247.472824 
	C392.552765,245.225861 392.670868,242.966614 395.322632,242.106125 
	C398.357544,241.121307 399.866211,243.355011 400.143555,245.742645 
	C400.883240,252.110168 404.641174,253.186874 410.212677,252.788788 
	C415.592590,252.404404 421.201569,251.724152 425.872925,255.885681 
	C427.418732,257.262726 429.727112,256.648743 431.705933,256.650635 
	C456.704224,256.674652 481.702515,256.693085 506.700745,256.659790 
	C511.234772,256.653748 515.643066,257.261719 520.016785,258.433990 
	C524.507935,259.637695 526.546082,262.216888 526.469238,267.069672 
	C526.237366,281.731628 526.332642,296.398773 526.258423,311.510620 
M430.502441,338.711761 
	C449.316284,338.708649 468.130219,338.728149 486.943970,338.689026 
	C492.825134,338.676788 493.626495,337.540222 494.090790,331.660034 
	C494.894440,321.482269 491.222595,311.441864 492.789612,301.401428 
	C494.238495,292.118073 493.779236,282.881134 494.059692,273.618347 
	C494.178741,269.686279 492.829651,267.254059 488.373566,267.261688 
	C464.398682,267.302795 440.423523,267.291443 416.448730,267.215302 
	C412.473816,267.202698 410.634247,269.040955 410.431000,272.867950 
	C410.362518,274.157074 410.876007,275.543579 409.702148,276.944366 
	C408.951477,277.065033 407.992859,277.234528 407.029602,277.371674 
	C395.785370,278.972412 388.353882,285.463715 387.202545,294.696777 
	C385.870911,305.375366 391.752777,314.851257 402.291992,319.006500 
	C410.244171,322.141785 410.244232,322.141785 410.346191,330.494568 
	C410.352295,330.994019 410.363861,331.493561 410.360229,331.992950 
	C410.327789,336.464325 412.357422,338.824921 417.017365,338.726532 
	C421.177826,338.638733 425.341644,338.710175 430.502441,338.711761 
z"/>
<path fill="#000000" opacity="1.000000" stroke="none" 
	d="
M721.999878,297.406006 
	C660.024841,297.393463 598.549866,297.384186 537.074829,297.363373 
	C529.877014,297.360931 529.850952,297.331573 529.812805,290.199799 
	C529.775330,283.202850 529.976257,276.199158 529.723450,269.211029 
	C529.586487,265.423523 531.280884,264.121643 534.679260,264.102600 
	C537.011292,264.089508 539.343140,264.018799 541.675110,264.018921 
	C625.140930,264.024017 708.606750,264.033234 792.072571,264.045807 
	C800.241028,264.047028 800.838501,264.559570 802.611511,272.712372 
	C803.949219,278.863831 803.540405,284.958130 801.980469,290.997009 
	C800.856873,295.346802 798.490051,297.551544 793.470703,297.502716 
	C769.815735,297.272583 746.157166,297.403625 721.999878,297.406006 
z"/>
<path fill="#000000" opacity="1.000000" stroke="none" 
	d="
M666.641052,324.218262 
	C619.660767,324.214905 573.136292,324.214905 525.523621,324.214905 
	C528.498108,316.669922 530.070007,310.126038 530.015442,303.272308 
	C530.000916,301.443726 531.604431,300.888916 533.230530,300.848816 
	C535.893188,300.783112 538.557251,300.752502 541.220764,300.751740 
	C593.168701,300.736633 645.116699,300.726776 697.064636,300.719513 
	C704.247803,300.718506 704.247803,300.727417 704.340271,307.916290 
	C704.342407,308.082764 704.345154,308.249268 704.346741,308.415741 
	C704.488220,323.695648 703.999878,324.201874 688.919495,324.201965 
	C686.095764,324.201965 683.746765,324.375671 681.369995,326.821747 
	C678.894958,329.368958 675.039429,328.998352 672.416443,326.222168 
	C670.816345,324.528595 669.139221,324.167328 666.641052,324.218262 
z"/>
<path fill="#000000" opacity="1.000000" stroke="none" 
	d="
M794.861328,254.401245 
	C795.878296,256.486481 797.336731,258.046295 796.741089,260.967407 
	C789.863770,261.727478 782.816467,261.366394 775.778564,261.065247 
	C774.687317,261.018555 774.052795,260.163055 773.854553,259.073547 
	C773.795166,258.747101 773.711060,258.405060 773.750427,258.083862 
	C774.182434,254.553482 771.878296,249.887497 775.050293,247.717178 
	C778.612000,245.280212 783.392395,246.306976 787.525146,248.013214 
	C790.539551,249.257706 792.777100,251.471542 794.861328,254.401245 
z"/>
<path fill="#000000" opacity="1.000000" stroke="none" 
	d="
M391.986786,376.059326 
	C394.466278,371.092438 398.788208,372.536133 403.474060,371.593170 
	C398.231476,384.325989 401.615204,394.453217 410.756195,403.091705 
	C406.664764,405.172516 404.620605,403.051208 402.673706,401.447906 
	C396.401855,396.282867 393.802307,389.199463 392.708405,381.411041 
	C392.477539,379.767456 392.258453,378.122253 391.986786,376.059326 
z"/>
<path fill="#000000" opacity="1.000000" stroke="none" 
	d="
M358.749756,317.912354 
	C358.610260,319.307770 358.482330,320.300873 358.447998,321.297211 
	C358.146881,330.031311 356.313202,331.228668 347.040466,328.102386 
	C349.297272,322.041840 352.183350,316.599030 357.274506,312.512329 
	C359.524628,314.173431 358.811768,315.920135 358.749756,317.912354 
z"/>
<path fill="#000000" opacity="1.000000" stroke="none" 
	d="
M413.800964,327.896362 
	C413.786377,310.427063 413.751038,293.445831 413.768677,276.464691 
	C413.774933,270.464935 414.278564,269.958771 420.368835,269.953979 
	C441.345642,269.937561 462.322632,269.942719 483.299164,270.033508 
	C485.438263,270.042755 488.178802,269.213348 489.161224,272.380157 
	C490.363098,276.254242 488.878754,278.256927 484.563568,278.278625 
	C474.075409,278.331390 463.586761,278.281555 453.098297,278.284760 
	C451.272308,278.285339 449.410614,278.168396 447.826416,279.370789 
	C446.220062,280.589996 445.441376,282.244995 445.927948,284.176544 
	C446.655243,287.063721 448.923920,288.003601 451.646851,288.009460 
	C461.801788,288.031403 471.956909,287.993774 482.111816,288.018707 
	C489.264282,288.036255 489.271729,288.065247 489.298248,295.246887 
	C489.315430,299.908386 489.314941,304.569946 489.307831,309.231476 
	C489.297546,315.999786 489.292084,316.020538 482.262482,316.057739 
	C473.272583,316.105286 464.282501,316.113678 455.292480,316.143005 
	C453.960876,316.147339 452.628326,316.146088 451.298004,316.196045 
	C448.212891,316.311890 446.125061,317.658936 446.123199,320.985443 
	C446.121338,324.301514 448.208069,325.765808 451.279541,325.806458 
	C458.936279,325.907776 466.594543,325.896851 474.252197,325.924225 
	C477.415344,325.935516 480.581665,326.017761 483.740936,325.907776 
	C487.202789,325.787323 489.331970,326.487335 489.399780,330.779205 
	C489.472260,335.366974 486.944122,335.366943 483.672546,335.358917 
	C462.695709,335.307434 441.718719,335.344208 420.741760,335.340729 
	C413.911774,335.339600 413.911774,335.324158 413.800964,327.896362 
z"/>
</svg>