<svg version="1.1" id="Layer_1" xmlns="http://www.w3.org/2000/svg" xmlns:xlink="http://www.w3.org/1999/xlink" x="0px" y="0px"
	 width="100%" viewBox="0 0 1024 1024" enable-background="new 0 0 1024 1024" xml:space="preserve">
<path fill="#000000" opacity="1.000000" stroke="none" 
	d="
M558.375488,912.281006 
	C556.573792,916.084778 554.813110,919.492981 553.273254,922.998169 
	C551.681396,926.621826 549.389893,927.712708 545.349060,926.819824 
	C519.857422,921.187134 494.312805,915.794617 468.788971,910.307373 
	C436.117188,903.283508 403.444550,896.263184 370.781555,889.198547 
	C363.642853,887.654541 363.615479,887.548279 366.921967,880.964966 
	C378.174652,858.560242 386.605591,835.094177 393.322083,810.981018 
	C393.717804,809.560242 393.959625,808.096558 394.581329,805.233337 
	C387.454559,816.485046 381.123108,826.526672 374.745605,836.539001 
	C365.420532,851.178894 354.884003,864.899719 343.580902,878.069397 
	C340.743469,881.375488 338.093323,882.558533 333.719879,881.417419 
	C326.815186,879.615906 319.713226,878.574890 312.704590,877.163269 
	C311.240784,876.868469 309.779968,876.466248 308.385284,875.935974 
	C300.022675,872.755981 298.207184,865.701721 304.238739,859.070190 
	C311.756500,850.804749 319.035461,842.354370 325.618256,833.322266 
	C346.763519,804.309509 362.862854,772.634216 375.378540,739.060181 
	C380.324463,725.792419 384.834473,712.376343 388.056488,698.593506 
	C389.224457,693.597351 391.393311,692.809937 396.067139,693.787720 
	C439.860352,702.949341 483.702881,711.874817 527.515137,720.945984 
	C558.954651,727.455444 590.353271,734.164673 621.814148,740.568237 
	C626.435181,741.508850 627.846558,743.043884 627.611328,748.095581 
	C626.123596,780.053894 622.614502,811.783325 617.225525,843.285339 
	C612.427856,871.330872 607.097290,899.297668 597.165833,926.113647 
	C593.878723,934.989258 592.375793,935.981506 583.033325,934.193115 
	C566.056274,930.943298 569.379578,933.210266 572.082764,918.267639 
	C575.047058,901.881531 577.143066,885.418701 578.584106,868.852539 
	C578.736023,867.106018 578.604553,865.334900 578.051270,863.475464 
	C571.567993,879.720947 565.891968,896.169128 558.375488,912.281006 
z"/>
<path fill="#000000" opacity="1.000000" stroke="none" 
	d="
M556.776001,262.036560 
	C563.779968,227.240311 570.730225,192.867355 577.666199,158.491531 
	C580.985840,142.038971 584.086121,125.539268 587.643982,109.138641 
	C590.510620,95.924080 602.996521,87.974632 616.330688,90.522568 
	C626.298035,92.427155 636.270691,94.349113 646.153198,96.641808 
	C660.222473,99.905815 667.756958,112.297737 664.923279,126.561058 
	C652.379211,189.701202 639.900391,252.854309 627.393555,316.001831 
	C616.502808,370.989502 605.616272,425.978027 594.706543,480.961914 
	C591.308228,498.089111 587.705444,515.177307 584.505249,532.341003 
	C583.761108,536.331665 582.000244,536.708130 578.665527,536.007935 
	C556.365662,531.325623 534.063965,526.647644 511.717682,522.194580 
	C507.181396,521.290588 505.350464,520.153320 506.458740,514.773315 
	C514.908447,473.756134 522.991150,432.663177 531.147888,391.585846 
	C539.694031,348.548065 548.195496,305.501404 556.776001,262.036560 
z"/>
<path fill="#000000" opacity="1.000000" stroke="none" 
	d="
M606.262085,610.701233 
	C621.449585,624.504761 628.026672,642.118652 631.375854,661.433105 
	C634.580139,679.912170 633.162048,698.220581 630.289856,716.551941 
	C629.706665,720.273682 628.462036,721.508057 624.359436,720.648254 
	C581.253357,711.614624 538.100281,702.805054 494.963318,693.918518 
	C463.389984,687.414246 431.833588,680.826477 400.235931,674.443054 
	C395.971527,673.581543 394.461060,672.327637 395.463409,667.543091 
	C400.272858,644.585754 408.286804,623.132019 423.263702,604.722900 
	C436.135925,588.900818 452.156067,578.773376 473.019379,577.740723 
	C476.476685,577.569580 477.033203,575.342224 477.558044,572.861389 
	C478.623505,567.825623 479.342560,562.702271 480.666534,557.738281 
	C483.799133,545.993164 494.242859,539.192566 506.156952,541.507812 
	C529.661987,546.075317 553.122742,550.879761 576.555237,555.807495 
	C587.319092,558.070984 594.513489,569.161865 592.675781,579.963440 
	C591.811340,585.044983 591.166748,590.193115 589.851074,595.159668 
	C588.763733,599.264587 590.013733,601.285645 593.815491,602.747009 
	C598.340637,604.486389 602.371887,607.200012 606.262085,610.701233 
z"/>
</svg>