<svg version="1.1" id="Layer_1" xmlns="http://www.w3.org/2000/svg" xmlns:xlink="http://www.w3.org/1999/xlink" x="0px" y="0px"
	 width="100%" viewBox="0 0 1024 704" enable-background="new 0 0 1024 704" xml:space="preserve">
<path fill="#000000" opacity="1.000000" stroke="none" 
	d="
M450.704895,455.000183 
	C450.697052,427.170013 450.701416,399.839813 450.687988,372.509644 
	C450.684601,365.587891 450.472382,365.375183 443.788727,365.361725 
	C431.123627,365.336273 418.457428,365.423065 405.794098,365.266724 
	C402.426941,365.225159 400.209778,366.290009 398.402252,369.187500 
	C393.818848,376.534912 388.984222,383.725830 384.236969,390.970764 
	C381.609436,394.980743 374.802490,396.723480 370.670349,394.228607 
	C367.415833,392.263611 366.793945,389.310181 368.780823,386.076141 
	C371.831085,381.111298 375.013550,376.226990 378.185486,371.338074 
	C379.060883,369.988892 380.205048,368.788422 380.226959,366.427338 
	C375.569916,368.970612 374.292236,373.566010 371.726746,377.013672 
	C368.355896,381.543579 365.674011,386.580566 362.582245,391.325470 
	C360.000793,395.287231 352.103058,396.539154 348.430206,393.620697 
	C345.741852,391.484528 345.659729,388.905029 347.390717,386.095032 
	C350.359955,381.274841 353.337769,376.459320 356.235077,371.595947 
	C356.876312,370.519531 358.013702,369.565857 357.507111,367.367859 
	C351.636871,374.694641 346.574402,382.049011 342.071564,389.704254 
	C339.219055,394.553772 335.500641,395.808105 330.440704,395.112000 
	C324.677094,394.319092 322.700012,390.529907 325.700348,385.523834 
	C328.351990,381.099518 331.262024,376.829498 334.080841,372.506226 
	C335.224518,370.752106 336.593262,369.110870 336.031189,366.455261 
	C332.279938,372.051361 328.532471,377.649994 324.775513,383.242249 
	C323.291840,385.450714 321.462097,387.494354 320.358002,389.876343 
	C317.897766,395.184021 313.520844,395.593933 308.631775,395.044586 
	C303.341919,394.450226 301.316071,390.781158 304.044281,386.234467 
	C307.299622,380.809296 310.844025,375.554382 314.358887,370.289551 
	C315.819458,368.101868 316.682892,366.418976 314.671051,363.739563 
	C312.121613,360.344269 311.966949,355.990570 314.183441,352.374634 
	C315.872467,349.619263 315.113190,347.852203 313.626709,345.664673 
	C310.444122,340.981293 307.200409,336.324982 304.304535,331.465240 
	C301.360901,326.525391 303.398193,323.264862 309.097870,322.626984 
	C314.661469,322.004303 318.398987,323.792572 321.417053,328.744263 
	C325.803040,335.940338 330.966400,342.662537 335.798248,349.586823 
	C336.148438,349.352234 336.498657,349.117676 336.848846,348.883118 
	C333.567078,343.861145 330.265625,338.851898 327.010468,333.812744 
	C324.862915,330.488159 322.767365,326.968048 326.723938,323.634552 
	C329.350952,321.421204 338.203094,322.384705 340.143646,325.007660 
	C343.804596,329.956116 347.241882,335.070709 350.742920,340.136444 
	C351.675629,341.485901 352.324280,343.069275 355.025726,344.236664 
	C352.345642,339.868896 350.123779,336.323456 347.977509,332.732849 
	C344.526733,326.959686 346.663483,323.088562 353.226257,322.557495 
	C358.041534,322.167847 361.319427,323.530579 363.884308,327.944855 
	C367.471466,334.118500 371.772064,339.880676 375.833435,345.773407 
	C376.753632,347.108582 377.629425,348.599823 379.815247,349.255798 
	C378.185028,344.379120 374.842499,340.893066 372.446075,336.869629 
	C371.084869,334.584229 369.524811,332.397461 368.373291,330.012268 
	C367.119232,327.414581 367.851074,325.087708 370.339111,323.536926 
	C374.352142,321.035706 382.285309,322.872925 384.922821,326.873627 
	C389.049133,333.132629 393.239532,339.352142 397.224091,345.700500 
	C399.081024,348.659088 401.329865,350.107758 404.951355,350.070679 
	C418.447968,349.932526 431.947876,349.950745 445.444672,350.089722 
	C449.216125,350.128510 450.756775,348.957184 450.751434,344.933167 
	C450.656952,273.608032 450.713348,202.282684 450.618744,130.957535 
	C450.609711,124.131615 447.515381,117.716583 447.309509,110.813538 
	C447.055267,102.288582 448.295135,94.210495 452.967804,86.933983 
	C455.624817,82.796333 459.066986,79.450783 463.718719,77.552963 
	C467.896301,75.848587 471.625458,76.763672 474.740021,79.832863 
	C477.836853,82.884521 478.430481,86.809219 476.332916,90.408615 
	C467.565857,105.452896 473.031311,118.401543 482.282898,130.507507 
	C494.564575,146.578430 510.888519,158.325943 526.711243,170.536636 
	C546.101074,185.500137 565.641235,200.221008 581.822571,218.893646 
	C603.785217,244.237732 616.986084,273.634216 623.268066,306.324677 
	C625.719788,319.083405 626.912048,332.017944 627.203247,345.002045 
	C627.285339,348.660461 628.505798,350.074829 632.139832,350.034454 
	C642.803833,349.915955 653.471130,349.886292 664.134460,350.026093 
	C667.956909,350.076233 669.008057,348.359070 668.921082,344.856445 
	C668.757263,338.260956 668.873779,331.658539 668.873779,325.058990 
	C669.379211,324.698212 669.884705,324.337463 670.390137,323.976685 
	C691.532410,334.820831 712.674622,345.664978 733.816895,356.509094 
	C733.841797,357.086273 733.866699,357.663422 733.891602,358.240570 
	C712.786926,369.227539 691.682251,380.214539 669.860779,391.574677 
	C668.284790,385.327118 668.961609,379.851990 668.965332,374.480560 
	C668.972717,363.780426 668.961487,365.431702 659.752991,365.345306 
	C650.921570,365.262451 642.081665,365.563995 633.258972,365.279694 
	C628.714050,365.133209 627.214355,366.610779 627.082397,371.222107 
	C626.442261,393.592468 623.732178,415.642578 616.585571,437.028839 
	C605.991150,468.732544 586.757141,494.375946 562.074158,516.381165 
	C540.915222,535.244629 517.082886,550.820679 496.246063,570.055115 
	C488.027649,577.641541 480.480377,585.855469 475.595337,596.151367 
	C471.285065,605.235840 470.352570,614.213562 475.381744,623.422180 
	C478.313385,628.790161 477.695984,633.113464 474.206146,636.174377 
	C470.956879,639.024353 465.512207,639.383606 461.137421,636.472290 
	C450.678467,629.512390 445.855774,618.749695 447.434509,607.131348 
	C454.292572,556.660706 448.894867,506.016602 450.704895,455.000183 
M475.640656,365.365509 
	C474.807465,365.364899 473.974274,365.363800 473.141083,365.363770 
	C463.881317,365.363617 464.244873,365.356354 464.427338,374.421600 
	C464.812531,393.559998 464.904968,412.707001 464.881104,431.850220 
	C464.855591,452.318298 464.345032,472.787628 464.501373,493.252960 
	C464.552155,499.898499 465.258453,506.590027 464.770294,513.214294 
	C463.935516,524.542908 464.426575,535.865540 464.650757,547.168396 
	C464.745636,551.951233 463.616974,556.981384 465.204163,561.644592 
	C469.936859,557.245178 474.486633,553.164185 478.871521,548.913208 
	C495.755005,532.545288 514.876343,518.761963 532.068481,502.752045 
	C552.922852,483.331818 567.787231,460.291077 574.692871,432.425751 
	C579.488647,413.073730 581.130066,393.398804 580.752808,373.508606 
	C580.603394,365.630157 580.407043,365.318939 572.583740,365.319916 
	C540.590515,365.324005 508.597229,365.348389 475.640656,365.365509 
M464.351196,219.465912 
	C464.378601,241.779984 464.422333,264.094055 464.428375,286.408142 
	C464.433655,305.873566 464.477112,325.339691 464.309875,344.803833 
	C464.276428,348.701172 465.550964,350.282684 469.477081,350.043457 
	C473.128540,349.821014 476.803406,349.975861 480.467987,349.977203 
	C511.950043,349.988708 543.432068,349.991638 574.914124,350.033936 
	C578.128479,350.038239 580.812927,350.046539 580.839966,345.506500 
	C580.976013,322.621857 579.472717,299.980255 572.952271,277.850281 
	C563.998047,247.460648 545.292480,223.907349 521.558228,203.875778 
	C502.732788,187.987183 483.027618,173.102722 466.283478,154.868317 
	C466.117462,154.687515 465.689850,154.746918 464.351135,154.515869 
	C464.351135,175.964798 464.351135,197.229538 464.351196,219.465912 
z"/>
</svg>