<svg version="1.1" id="Layer_1" xmlns="http://www.w3.org/2000/svg" xmlns:xlink="http://www.w3.org/1999/xlink" x="0px" y="0px"
	 width="100%" viewBox="0 0 1024 1024" enable-background="new 0 0 1024 1024" xml:space="preserve">
<path fill="#000000" opacity="1.000000" stroke="none" 
	d="
M679.485474,676.708252 
	C613.094910,688.324890 550.900757,677.245850 492.284912,645.292358 
	C481.020111,639.151489 470.172668,632.238831 460.213867,624.106140 
	C456.685089,621.224426 454.348267,621.143799 451.042114,624.527954 
	C439.401794,636.442627 427.452209,648.054626 415.662537,659.824097 
	C414.066925,661.416992 412.034027,662.854370 412.870026,665.743958 
	C416.364136,677.820557 411.804657,686.823242 403.530487,695.842224 
	C368.954865,733.530090 334.136017,770.990845 299.345978,808.479004 
	C278.607391,830.825928 257.640717,852.963684 237.078552,875.471313 
	C204.706039,910.906494 143.662979,901.039856 123.705780,856.677246 
	C111.987511,830.628967 113.821739,805.440979 132.773209,783.354187 
	C140.946518,773.828613 151.368210,766.220764 160.842026,757.824646 
	C191.886139,730.312134 223.007904,702.887024 254.015030,675.332886 
	C278.299255,653.753052 302.465546,632.040405 326.666687,610.367188 
	C333.162689,604.549744 340.776520,602.380310 349.298553,603.540649 
	C352.712708,604.005432 355.264038,603.322021 357.808929,600.816162 
	C370.273376,588.542908 382.858124,576.389526 395.542603,564.343628 
	C398.232239,561.789368 398.516876,559.814819 396.394897,556.693909 
	C380.930420,533.949036 369.231964,509.366516 361.027588,483.117493 
	C350.167847,448.372986 346.180786,412.838318 349.636688,376.618988 
	C356.789093,301.658203 389.386505,239.481781 445.679291,189.926773 
	C486.855103,153.679337 535.074768,131.364166 589.420959,124.043800 
	C666.643188,113.642044 737.021912,131.878754 799.086609,179.237198 
	C851.217957,219.016083 886.223938,270.908936 901.164429,334.892944 
	C922.206787,425.009186 903.189270,506.834686 844.849304,578.652222 
	C802.086853,631.293518 746.476257,663.469849 679.485474,676.708252 
M752.082825,239.438751 
	C739.439636,229.799286 725.858521,221.756470 711.301819,215.347168 
	C670.677734,197.460464 628.527893,193.066803 585.280518,202.485809 
	C540.671814,212.201294 503.579407,235.132797 473.950500,269.775940 
	C433.421997,317.163300 417.792847,372.238739 427.822174,433.466705 
	C437.824127,494.527252 470.483612,541.596497 523.129211,574.114746 
	C570.783813,603.550110 622.570923,611.873779 676.773315,598.370117 
	C739.655579,582.703979 785.243347,544.522278 813.311584,486.108215 
	C836.862183,437.095886 839.115051,386.415344 821.860962,335.096924 
	C808.809265,296.277435 785.057739,264.832916 752.082825,239.438751 
z"/>
<path fill="#000000" opacity="1.000000" stroke="none" 
	d="
M584.417114,259.476532 
	C546.486084,272.657959 517.467346,296.095459 497.997589,330.907043 
	C486.672241,351.156555 480.728394,372.985229 480.171326,396.221405 
	C480.087189,399.732208 480.028809,403.205322 478.480255,406.473816 
	C475.849609,412.026062 470.589417,414.912689 464.164886,414.258881 
	C458.328247,413.664917 454.102631,409.968811 452.671326,404.046051 
	C450.947266,396.911896 452.197632,389.685242 453.003357,382.673737 
	C457.854858,340.455597 475.316101,304.122070 506.019318,274.672485 
	C533.825623,248.001541 566.855896,231.399521 605.282654,226.154602 
	C613.817383,224.989700 620.805420,230.478470 621.727356,239.027985 
	C622.563354,246.780579 616.778992,253.598709 608.652893,254.304337 
	C600.486938,255.013428 592.567261,256.820953 584.417114,259.476532 
z"/>
</svg>