<?xml version="1.0" encoding="UTF-8"?>
<svg version="1.1" xmlns="http://www.w3.org/2000/svg" width="1238" height="937">
<path d="M0 0 C1.2905127 0.00040283 2.58102539 0.00080566 3.91064453 0.0012207 C5.30244686 0.03029804 6.6942125 0.06118079 8.0859375 0.09375 C9.51545733 0.11132489 10.94498224 0.12849162 12.37451172 0.14526367 C21.81930063 0.3023921 31.19123969 0.90595499 40.5859375 1.90625 C41.69791504 2.02355469 42.80989258 2.14085937 43.95556641 2.26171875 C50.58845398 3.07083402 57.05901357 4.03342503 61.4609375 9.59375 C63.54968784 15.86000103 62.52204746 22.06996992 61.03735352 28.37744141 C56.31693277 48.57468425 56.88657243 70.39960174 61.4609375 90.59375 C61.71834717 91.739646 61.71834717 91.739646 61.98095703 92.90869141 C68.6536365 121.74015274 79.53440231 148.31575875 97.9465332 171.55029297 C109.17550241 185.7492922 119.22024432 200.46403869 127.4609375 216.59375 C128.0789624 217.79306152 128.0789624 217.79306152 128.70947266 219.01660156 C159.88883464 280.12958844 164.43777448 349.05848936 169.47870159 416.23910141 C174.16750083 478.69791381 179.23101559 543.92485704 208.4609375 600.59375 C208.81720215 601.28726563 209.1734668 601.98078125 209.54052734 602.6953125 C238.78980086 658.75313953 289.07735444 693.87370984 348.51855469 712.5546875 C378.15446732 721.61868858 408.81784956 727.56967375 439.08203125 734.1171875 C541.24921565 756.22357081 541.24921565 756.22357081 556.4609375 778.59375 C559.24279374 783.16590976 561.41435928 787.11157477 560.4609375 792.59375 C554.33409964 804.84742572 538.43516897 810.4749088 526.1484375 814.65625 C481.22472834 829.24846968 432.86111134 833.36953808 385.86889648 833.11523438 C381.61440253 833.09239145 377.36090775 833.10607639 373.10644722 833.12900829 C279.30707391 833.55569676 181.14035552 809.26072963 111.4609375 743.59375 C110.72875 742.90410156 109.9965625 742.21445312 109.2421875 741.50390625 C104.34433775 736.75182583 100.00354343 731.62442226 95.78271484 726.26611328 C94.85148604 725.08788696 93.91368458 723.91484069 92.97119141 722.74560547 C46.05527308 664.46576979 35.67817084 587.91383014 30.4609375 515.59375 C30.04432861 516.44267822 29.62771973 517.29160645 29.19848633 518.16625977 C7.56213024 562.17889681 -16.93378477 604.61939447 -50.203125 641.01171875 C-51.45891862 642.39981169 -52.70909627 643.79365376 -53.921875 645.21948242 C-59.1781796 651.37518841 -64.85073335 657.09153941 -70.57128906 662.8112793 C-72.27700848 664.51918056 -73.97455277 666.23493045 -75.671875 667.95117188 C-82.32056501 674.63354692 -89.15229231 680.72715348 -96.5390625 686.59375 C-97.6183118 687.51587817 -98.69139227 688.4453562 -99.75390625 689.38671875 C-113.43464492 701.41870269 -128.67681915 711.66293811 -144.5390625 720.59375 C-145.34537109 721.04959473 -146.15167969 721.50543945 -146.98242188 721.97509766 C-227.40421849 767.20863226 -319.29896799 788.16264664 -571.5390625 824.59375 C-560.6629731 825.18679475 -549.81015533 825.77289208 -538.9140625 825.71875 C-537.82327393 825.71391602 -536.73248535 825.70908203 -535.60864258 825.70410156 C-532.25183221 825.68000905 -528.8956295 825.6404587 -525.5390625 825.59375 C-524.51635254 825.58118164 -523.49364258 825.56861328 -522.43994141 825.55566406 C-431.15119222 824.11758378 -335.95266248 801.25656261 -243.44549561 771.22076416 C-241.62356175 770.62154129 -239.80033601 770.02625065 -237.97705078 769.43115234 C-211.65555628 760.78946834 -186.29679704 750.00599473 -161.5390625 737.59375 C-160.61125977 737.1311377 -159.68345703 736.66852539 -158.72753906 736.19189453 C-130.4953794 722.03561226 -104.1889694 704.21138807 -80.9453125 682.7890625 C-78.91108663 680.93316162 -76.84634559 679.13043814 -74.76171875 677.33203125 C-70.4936913 673.60608606 -66.4699278 669.67285506 -62.4765625 665.65625 C-61.80818359 664.99173828 -61.13980469 664.32722656 -60.45117188 663.64257812 C-55.94159459 659.12423587 -51.70091985 654.43199544 -47.5390625 649.59375 C-46.61332898 648.5456812 -45.68632678 647.49873105 -44.7578125 646.453125 C-17.63945683 615.59225804 3.63033486 580.40497928 23.4609375 544.59375 C24.98119096 547.36375803 25.79267395 549.69720464 26.21948242 552.82275391 C26.3371698 553.65495453 26.45485718 554.48715515 26.57611084 555.34457397 C26.69665833 556.24406769 26.81720581 557.1435614 26.94140625 558.0703125 C27.21693899 560.02382337 27.49291788 561.97727136 27.76928711 563.93066406 C27.91220184 564.95647583 28.05511658 565.9822876 28.20236206 567.03918457 C32.37735835 596.79799371 37.62896171 625.7728195 46.83764648 654.42773438 C47.4609375 656.59375 47.4609375 656.59375 47.4609375 658.59375 C46.8009375 658.59375 46.1409375 658.59375 45.4609375 658.59375 C36.84177785 641.4944494 29.79602738 623.85359086 22.81445312 606.04101562 C21.7071632 603.22086164 20.59033122 600.40510477 19.4609375 597.59375 C16.14002453 600.67792276 13.6463704 604.0662407 11.1875 607.84375 C10.58684723 608.75321129 10.58684723 608.75321129 9.97406006 609.68104553 C9.11791983 610.97777696 8.26372421 612.27579402 7.41131592 613.57498169 C5.17364099 616.98332694 2.91864245 620.38016655 0.6640625 623.77734375 C0.21682831 624.45171982 -0.23040588 625.12609589 -0.69119263 625.82090759 C-18.31946037 652.36117439 -37.63528564 676.68675004 -60.08651733 699.31643677 C-61.49632873 700.7381553 -62.90215929 702.16381788 -64.30786133 703.58959961 C-70.40691417 709.69628513 -76.78205047 715.23056997 -83.5390625 720.59375 C-84.77054246 721.60656882 -86.0000315 722.62181857 -87.2265625 723.640625 C-145.43917174 771.40193567 -218.26693905 797.76534276 -290.5390625 815.59375 C-291.20341309 815.75877014 -291.86776367 815.92379028 -292.55224609 816.09381104 C-339.21399379 827.68392037 -386.69679027 835.76011199 -434.3515625 841.96875 C-435.283172 842.09026428 -436.21478149 842.21177856 -437.17462158 842.3369751 C-446.70429044 843.57053084 -456.24204311 844.71049789 -465.80078125 845.6953125 C-466.53069778 845.77228363 -467.26061432 845.84925476 -468.01264954 845.92855835 C-481.90139907 847.309406 -495.7788136 847.75489327 -509.7265625 847.76171875 C-511.3238935 847.7649501 -512.92122423 847.7683154 -514.51855469 847.77180481 C-517.84294315 847.77773272 -521.16730587 847.77965143 -524.49169922 847.77905273 C-527.84234037 847.77897173 -531.19284405 847.78588458 -534.54345703 847.79956055 C-566.44110304 847.92740276 -566.44110304 847.92740276 -581.6640625 846.76953125 C-582.60991211 846.70017868 -583.55576172 846.63082611 -584.53027344 846.55937195 C-597.25537418 845.42175587 -607.85543263 842.68727881 -616.83203125 833.16015625 C-623.85384658 824.7570002 -626.16251728 818.30620849 -625.87109375 807.296875 C-624.87970524 796.23997722 -618.07197762 788.13503506 -611.5390625 779.59375 C-610.84167969 778.68109375 -610.14429688 777.7684375 -609.42578125 776.828125 C-596.72003755 760.63403083 -581.96934074 745.03119526 -565.5390625 732.59375 C-564.37697499 731.68048753 -563.21556429 730.76636346 -562.0546875 729.8515625 C-545.08859651 716.63855011 -526.47105557 706.18156229 -507.49609375 696.15820312 C-504.69150327 694.67440063 -501.8959312 693.17481421 -499.1015625 691.671875 C-466.57191644 674.29112729 -432.75640817 660.26320795 -398.5390625 646.59375 C-397.33398041 646.11201324 -397.33398041 646.11201324 -396.10455322 645.62054443 C-390.25618266 643.28293187 -384.40619261 640.9493895 -378.55517578 638.6184082 C-353.47571378 628.60199203 -328.55466916 618.00560578 -304.5390625 605.62255859 C-303.13793859 604.90181444 -301.73404498 604.186441 -300.328125 603.47509766 C-278.5494694 592.45286139 -258.20329247 579.34656805 -239.5390625 563.59375 C-238.53101563 562.77132812 -237.52296875 561.94890625 -236.484375 561.1015625 C-228.84607198 554.80170707 -221.74665363 548.01066281 -214.7265625 541.03125 C-213.85531738 540.16918945 -212.98407227 539.30712891 -212.08642578 538.41894531 C-206.14803161 532.45231073 -200.77863406 526.17729374 -195.5390625 519.59375 C-194.53755351 518.37432926 -193.53398452 517.15659411 -192.52734375 515.94140625 C-169.66252161 488.01458632 -151.47814768 456.43038831 -135.72802734 424.02929688 C-134.31929957 421.14357444 -132.89093559 418.26780515 -131.46484375 415.390625 C-120.57724121 393.28218953 -111.01594714 370.66251403 -101.4921875 347.94140625 C-54.03195527 234.72811935 -54.03195527 234.72811935 -16.07421875 190.5703125 C-8.92800037 182.1798373 -2.90147993 174.19640935 0.4609375 163.59375 C0.84934814 162.38138672 0.84934814 162.38138672 1.24560547 161.14453125 C3.79355938 152.29834904 3.93545418 143.70794121 3.8359375 134.59375 C3.83062012 133.81929535 3.82530273 133.0448407 3.81982422 132.24691772 C3.60203509 105.17300646 -0.55378307 74.96063567 -19.7265625 54.28125 C-27.96552087 45.28679855 -27.96552087 45.28679855 -28.859375 39.53125 C-27.57583322 26.79851554 -14.08489451 -0.08739746 0 0 Z " fill="#131313" transform="translate(657.5390625,36.40625)"/>
<path d="M0 0 C1.2229628 -0.00997513 2.4459256 -0.01995026 3.70594788 -0.03022766 C28.71780608 -0.19200944 53.34925255 -0.17160378 78.11486816 3.784729 C84.33840636 4.76441617 90.57070073 5.68795094 96.80078125 6.625 C105.52848323 7.93841532 114.25478175 9.25891909 122.97509766 10.62060547 C158.99456489 16.32262527 158.99456489 16.32262527 195.35546875 18.44140625 C196.17975372 18.44837524 197.0040387 18.45534424 197.853302 18.46252441 C200.48428593 18.47972463 203.11505602 18.48623968 205.74609375 18.48828125 C206.65039124 18.48928833 207.55468872 18.49029541 208.48638916 18.49133301 C232.34159399 18.4734233 256.41969958 16.39607072 279.18359375 8.75390625 C280.99609375 8.23828125 280.99609375 8.23828125 283.99609375 8.23828125 C281.17691086 14.5738643 276.29760404 19.85286747 271.99609375 25.23828125 C271.36646729 26.03105469 271.36646729 26.03105469 270.72412109 26.83984375 C263.83707857 35.42236563 256.18516178 43.25636967 248.43359375 51.05078125 C247.95080963 51.5388324 247.46802551 52.02688354 246.97061157 52.52972412 C240.32704593 59.22925784 233.39372105 65.379395 225.99609375 71.23828125 C224.69499975 72.29880317 223.39532751 73.36107394 222.09765625 74.42578125 C210.87420298 83.53676969 199.25156763 91.81094442 186.7855835 99.16856384 C185.05429623 100.20348909 183.34403422 101.27333831 181.63476562 102.34423828 C172.45341071 107.87870723 164.57339049 109.44641318 153.87109375 109.05078125 C152.32471509 109.01817029 150.77832805 108.98595455 149.23193359 108.95410156 C118.78805764 108.12401626 88.79387223 101.68510379 58.88494873 96.42785645 C15.49740479 88.80322616 -27.49858054 84.3314676 -71.4453125 81.20703125 C-72.65662842 81.12046768 -73.86794434 81.03390411 -75.1159668 80.94471741 C-80.96068142 80.52743653 -86.80564549 80.11626191 -92.65185547 79.72045898 C-107.05617987 78.72401402 -121.36253733 77.27220424 -135.69020081 75.48292542 C-138.11336715 75.18570586 -138.11336715 75.18570586 -141.00390625 75.23828125 C-125.47866652 78.00544454 -110.01133485 80.16720305 -94.31640625 81.67578125 C-92.21111843 81.88478092 -90.10589539 82.09443402 -88.00073242 82.3046875 C-76.79798277 83.41647685 -65.58987494 84.46695097 -54.37890625 85.4921875 C-13.82496295 89.20194801 25.96882126 94.60995343 66.05995178 101.72108459 C67.41366523 101.96119486 68.76737922 102.20130208 70.12109375 102.44140625 C70.79062513 102.56018568 71.46015652 102.67896511 72.14997673 102.80134392 C84.81915797 105.04723407 97.50133206 107.20887954 110.19857788 109.2906189 C112.23242949 109.62424887 114.26599223 109.95964588 116.29922485 110.29702759 C128.50276177 112.31977371 140.6862322 114.01060801 152.99609375 115.23828125 C149.1731689 119.54183394 143.84930801 121.47535309 138.74609375 123.92578125 C137.72128906 124.43689453 136.69648438 124.94800781 135.640625 125.47460938 C134.13822266 126.19874023 134.13822266 126.19874023 132.60546875 126.9375 C131.69764648 127.37924561 130.78982422 127.82099121 129.85449219 128.27612305 C123.30937006 130.4792599 116.75215813 128.8090934 110.16015625 127.55078125 C108.1592115 127.18183999 106.15814756 126.81354477 104.15698242 126.44580078 C103.09756439 126.24940002 102.03814636 126.05299927 100.94662476 125.85064697 C52.62254632 116.95221567 3.94084868 111.12707745 -44.86106777 105.60098076 C-64.93852888 103.32643619 -84.98569315 100.92852721 -104.9921875 98.08984375 C-105.85860304 97.96816204 -106.72501858 97.84648033 -107.61768913 97.7211113 C-160.36099052 90.27585302 -160.36099052 90.27585302 -173.50390625 74.17578125 C-176.03093312 69.04168593 -176.37806531 62.70886709 -175.00390625 57.23828125 C-170.96806893 51.7751998 -165.33908164 48.20065847 -159.56640625 44.80078125 C-158.38026733 44.09320679 -158.38026733 44.09320679 -157.17016602 43.37133789 C-110.8862741 16.09566096 -53.6772506 0.35540673 0 0 Z " fill="#161616" transform="translate(186.00390625,523.76171875)"/>
<path d="M0 0 C4.07402208 1.39451294 6.81906392 3.33004262 10.125 6.0625 C34.25837114 24.91898484 65.61382337 28.61696968 95.1875 28.375 C96.22845825 28.36968262 97.2694165 28.36436523 98.34191895 28.35888672 C113.4527644 28.26846856 128.11450357 27.7568859 143 25 C144.4857007 24.73311097 145.97155261 24.4670629 147.45751953 24.20166016 C162.24355805 21.5517089 176.99602157 18.72696789 191.74853516 15.89746094 C234.64584994 7.67761619 234.64584994 7.67761619 254 6 C254.74604492 5.93232422 255.49208984 5.86464844 256.26074219 5.79492188 C289.31692265 2.92572394 329.50081578 2.31366232 360 17 C361.70736328 17.804375 361.70736328 17.804375 363.44921875 18.625 C371.12842239 22.47750082 376.6268265 26.03790995 380.375 33.875 C381.84477879 41.22389394 381.45778283 48.23785133 378 55 C340.51112138 104.74858075 238.26060421 123.20673661 180.55493164 131.80444336 C167.33198585 133.66156357 154.09048872 135.03821732 140.7578125 135.76806641 C138.0173262 135.93721025 135.28972142 136.13608392 132.5546875 136.36865234 C98.78083838 139.20663129 98.78083838 139.20663129 87.54150391 130.11523438 C86.28410573 129.00256109 85.04722238 127.86621006 83.83349609 126.70605469 C81.92089027 124.92638898 79.93017666 123.37554027 77.83203125 121.8203125 C74.45199967 119.31006103 71.1358282 116.81317064 68 114 C68 113.34 68 112.68 68 112 C74.84608179 112.70774603 81.59027746 113.70207844 88.3671875 114.89453125 C169.43345205 128.36023627 260.87974964 101.05927558 333.5 66.3125 C334.46673645 65.85292404 334.46673645 65.85292404 335.45300293 65.38406372 C349.68171485 58.63809448 349.68171485 58.63809448 362 49 C361.45400146 49.31114746 360.90800293 49.62229492 360.34545898 49.94287109 C304.43633905 81.60708222 238.43430924 100.81018297 175 110 C174.1121582 110.13132324 173.22431641 110.26264648 172.30957031 110.39794922 C158.71845672 112.29878562 145.00840922 112.20021952 131.3125 112.25 C129.94602325 112.25817245 129.94602325 112.25817245 128.55194092 112.26651001 C111.46722211 112.3424874 94.74303382 111.42723963 78.125 107.1875 C77.06200684 106.9196167 75.99901367 106.6517334 74.90380859 106.37573242 C71.92845345 105.60874489 68.96300639 104.81322801 66 104 C65.27425781 103.80567383 64.54851562 103.61134766 63.80078125 103.41113281 C43.68945363 97.80276774 32.01425909 75.25950164 22.3684082 58.21240234 C0 17.48976864 0 17.48976864 0 0 Z M365 46 C364.67 46.66 364.34 47.32 364 48 C364.99 47.67 365.98 47.34 367 47 C366.34 46.67 365.68 46.34 365 46 Z " fill="#141414" transform="translate(854,582)"/>
<path d="M0 0 C1.92730957 -0.00471313 1.92730957 -0.00471313 3.89355469 -0.00952148 C5.27021553 0.0110696 6.64684556 0.03382057 8.0234375 0.05859375 C9.07319763 0.06981766 9.07319763 0.06981766 10.14416504 0.08126831 C21.46416318 0.20833744 32.34702135 0.95634044 43.3984375 3.49609375 C44.92065918 3.83471436 44.92065918 3.83471436 46.47363281 4.18017578 C62.20640487 7.74869428 76.88940866 12.43825478 91.3984375 19.49609375 C92.74711914 20.14578125 92.74711914 20.14578125 94.12304688 20.80859375 C96.81126688 22.11750766 99.48278438 23.45437552 102.1484375 24.80859375 C102.96570313 25.21698486 103.78296875 25.62537598 104.625 26.04614258 C105.37007813 26.43825928 106.11515625 26.83037598 106.8828125 27.234375 C107.53991211 27.57509033 108.19701172 27.91580566 108.87402344 28.2668457 C110.3984375 29.49609375 110.3984375 29.49609375 111.19287109 31.45410156 C111.52394772 34.74284846 109.8435584 37.15792418 108.2734375 39.93359375 C107.9237793 40.56958496 107.57412109 41.20557617 107.21386719 41.86083984 C89.52565545 73.52408911 89.52565545 73.52408911 79.2109375 78.49609375 C78.16341309 79.00873779 78.16341309 79.00873779 77.09472656 79.53173828 C70.07198047 82.84603649 62.87067833 85.14701929 55.34228516 87.00439453 C53.52924401 87.46300604 51.73406813 87.99070295 49.94140625 88.5234375 C42.81782879 90.32449293 42.81782879 90.32449293 39.203125 88.21484375 C37.01131876 86.11758601 35.23089714 83.91330168 33.3984375 81.49609375 C32.68171875 80.64917969 31.965 79.80226563 31.2265625 78.9296875 C28.89033224 76.16246304 26.63905289 73.34113631 24.3984375 70.49609375 C23.68945312 69.61566406 22.98046875 68.73523438 22.25 67.828125 C11.45263135 54.00983191 2.85677059 38.77837012 -3.6015625 22.49609375 C2.05747302 45.86837052 14.39863874 66.34217661 30 84.41015625 C31.3984375 86.49609375 31.3984375 86.49609375 31.3984375 90.49609375 C26.04267371 91.46375998 20.66046388 92.27055624 15.3984375 90.49609375 C10.90448128 86.96809177 8.29142238 81.63904579 5.61132812 76.69775391 C4.48244296 74.64858193 3.27962925 72.68928794 2.0078125 70.7265625 C-8.86630746 53.81329586 -17.62474112 35.02011688 -15.6015625 14.49609375 C-13.48045425 5.63533509 -9.76717798 -0.01571604 0 0 Z M-5.6015625 16.49609375 C-4.6015625 19.49609375 -4.6015625 19.49609375 -4.6015625 19.49609375 Z " fill="#161615" transform="translate(393.6015625,443.50390625)"/>
<path d="M0 0 C0.66 0.33 1.32 0.66 2 1 C2.33 0.67 2.66 0.34 3 0 C3.33 0 3.66 0 4 0 C4.42344349 8.89231328 3.37157718 15.66631433 -2.61450195 22.56079102 C-54.10815948 76.05067844 -165.59412353 94.90069394 -236.2421875 98.76806641 C-238.9826738 98.93721025 -241.71027858 99.13608392 -244.4453125 99.36865234 C-278.21916162 102.20663129 -278.21916162 102.20663129 -289.45849609 93.11523438 C-290.71589427 92.00256109 -291.95277762 90.86621006 -293.16650391 89.70605469 C-295.07910973 87.92638898 -297.06982334 86.37554027 -299.16796875 84.8203125 C-302.54800033 82.31006103 -305.8641718 79.81317064 -309 77 C-309 76.34 -309 75.68 -309 75 C-302.15391821 75.70774603 -295.40972254 76.70207844 -288.6328125 77.89453125 C-207.56654795 91.36023627 -116.12025036 64.05927558 -43.5 29.3125 C-42.53326355 28.85292404 -42.53326355 28.85292404 -41.54699707 28.38406372 C-32.85571298 24.22865708 -24.88731128 19.5288804 -17 14 C-15.86739746 13.23901001 -15.86739746 13.23901001 -14.71191406 12.46264648 C-13.10147908 11.36464085 -11.54231925 10.19179215 -10 9 C-10 8.34 -10 7.68 -10 7 C-7.8125 5.2734375 -7.8125 5.2734375 -5 3.375 C-4.071875 2.74335937 -3.14375 2.11171875 -2.1875 1.4609375 C-1.1046875 0.73777344 -1.1046875 0.73777344 0 0 Z " fill="#202020" transform="translate(1231,619)"/>
<path d="M0 0 C-1.32 0.99 -2.64 1.98 -4 3 C-3.52619973 5.88816545 -3.0462176 8.77494187 -2.5546875 11.66015625 C-2.22190183 13.66390097 -1.90816831 15.67115285 -1.6328125 17.68359375 C2.0032024 42.05973443 16.80778282 64.62324255 32.6015625 82.9140625 C34 85 34 85 34 89 C28.64423621 89.96766623 23.26202638 90.77446249 18 89 C13.50604378 85.47199802 10.89298488 80.14295204 8.21289062 75.20166016 C7.08400546 73.15248818 5.88119175 71.19319419 4.609375 69.23046875 C-6.24979006 52.3404625 -15.06365741 33.50198774 -13 13 C-10.95889104 5.13572723 -8.86514443 -0.59100963 0 0 Z " fill="#242424" transform="translate(391,445)"/>
<path d="M0 0 C21.78 0 43.56 0 66 0 C59.7495496 3.1252252 59.7495496 3.1252252 55.23413086 3.03759766 C54.2422728 3.02072906 53.25041473 3.00386047 52.22850037 2.98648071 C50.61299034 2.9506337 50.61299034 2.9506337 48.96484375 2.9140625 C47.85702042 2.89282318 46.74919708 2.87158386 45.60780334 2.84970093 C43.25646966 2.80335793 40.90518587 2.75442342 38.55395508 2.703125 C34.97682707 2.62584957 31.39961399 2.55837524 27.82226562 2.4921875 C25.53644628 2.44590405 23.25063846 2.39904703 20.96484375 2.3515625 C19.90200668 2.33171295 18.83916962 2.3118634 17.74412537 2.29141235 C11.76844446 2.15483995 5.93007318 1.75548723 0 1 C0 0.67 0 0.34 0 0 Z " fill="#C1C1C1" transform="translate(950,699)"/>
<path d="M0 0 C13.86 0 27.72 0 42 0 C42 0.33 42 0.66 42 1 C41.15703369 1.02505615 40.31406738 1.0501123 39.44555664 1.07592773 C36.32758326 1.17088155 33.20978497 1.27012448 30.09204102 1.37231445 C28.74085853 1.41571223 27.38961947 1.4573837 26.03833008 1.49731445 C24.09963299 1.55489952 22.16113724 1.61914298 20.22265625 1.68359375 C19.05484619 1.72025146 17.88703613 1.75690918 16.68383789 1.79467773 C14.08220205 1.70076188 14.08220205 1.70076188 13 3 C8.47357775 3.15088074 4.41699488 3.10424872 0 2 C0 1.34 0 0.68 0 0 Z " fill="#80807F" transform="translate(72,859)"/>
<path d="M0 0 C1.80711821 2.71067731 2.59731014 4.53818562 3.5078125 7.59765625 C3.77207031 8.48130859 4.03632812 9.36496094 4.30859375 10.27539062 C4.57800781 11.19513672 4.84742188 12.11488281 5.125 13.0625 C5.54072266 14.44791992 5.54072266 14.44791992 5.96484375 15.86132812 C8 22.72371459 8 22.72371459 8 25 C7.34 25 6.68 25 6 25 C4.82845707 22.71070947 3.66261926 20.41881638 2.5 18.125 C2.16613281 17.47402344 1.83226562 16.82304688 1.48828125 16.15234375 C-1 11.2265625 -1 11.2265625 -1 9 C-0.34 9 0.32 9 1 9 C0.67 6.03 0.34 3.06 0 0 Z " fill="#989897" transform="translate(697,670)"/>
<path d="M0 0 C0.9583374 0.04713135 1.9166748 0.0942627 2.90405273 0.14282227 C3.93852539 0.19116211 4.97299805 0.23950195 6.03881836 0.28930664 C7.12743164 0.34538086 8.21604492 0.40145508 9.33764648 0.45922852 C10.43012695 0.51143555 11.52260742 0.56364258 12.64819336 0.61743164 C15.35743724 0.74756999 18.06635442 0.88254906 20.77514648 1.02172852 C20.77514648 1.35172852 20.77514648 1.68172852 20.77514648 2.02172852 C10.08716968 2.75431934 -0.51025046 3.16209449 -11.22485352 3.02172852 C-11.22485352 2.69172852 -11.22485352 2.36172852 -11.22485352 2.02172852 C-9.17407227 1.79386393 -7.12329102 1.56599935 -5.07250977 1.33813477 C-2.63817879 0.92126202 -2.60060183 0.02539817 0 0 Z " fill="#6C6C6D" transform="translate(161.224853515625,880.978271484375)"/>
<path d="M0 0 C2.97 0.33 5.94 0.66 9 1 C8.814375 1.78375 8.62875 2.5675 8.4375 3.375 C7.74037734 5.97089775 7.74037734 5.97089775 9 8 C5.56247993 6.4722133 2.81046312 4.49818944 0 2 C0 1.34 0 0.68 0 0 Z " fill="#6C6C6B" transform="translate(922,694)"/>
<path d="M0 0 C0 0.33 0 0.66 0 1 C-0.56509277 1.08564209 -1.13018555 1.17128418 -1.71240234 1.25952148 C-4.26714633 1.64869818 -6.82106747 2.04303485 -9.375 2.4375 C-10.70917969 2.63956055 -10.70917969 2.63956055 -12.0703125 2.84570312 C-13.34648438 3.04389648 -13.34648438 3.04389648 -14.6484375 3.24609375 C-15.82672119 3.42676392 -15.82672119 3.42676392 -17.02880859 3.61108398 C-19.06611684 3.92238238 -19.06611684 3.92238238 -21 5 C-23.00800456 4.71887936 -25.01014051 4.38932033 -27 4 C-27 3.67 -27 3.34 -27 3 C-24.00114586 2.49212954 -21.00121874 1.99353375 -18 1.5 C-16.74123047 1.28537109 -16.74123047 1.28537109 -15.45703125 1.06640625 C-10.22817799 0.21519758 -5.29724973 -0.14714583 0 0 Z " fill="#7F7F7F" transform="translate(1098,590)"/>
<path d="M0 0 C-1.29299694 2.88437779 -2.65941363 4.87219421 -5 7 C-5.33 5.68 -5.66 4.36 -6 3 C-8.31 3.33 -10.62 3.66 -13 4 C-8.93662608 1.29108405 -4.89951609 0 0 0 Z " fill="#848484" transform="translate(470,532)"/>
<path d="M0 0 C0 0.33 0 0.66 0 1 C-5.64399358 3.44064587 -10.97751478 3.19289099 -17 3 C-11.64153053 -0.57231298 -6.234225 -0.12223971 0 0 Z " fill="#4F4F4F" transform="translate(982,610)"/>
<path d="M0 0 C0.66 0 1.32 0 2 0 C2 6.6 2 13.2 2 20 C1.67 20 1.34 20 1 20 C0.93941406 18.95199219 0.87882813 17.90398438 0.81640625 16.82421875 C0.73198262 15.44529952 0.64733553 14.06639395 0.5625 12.6875 C0.52318359 11.99720703 0.48386719 11.30691406 0.44335938 10.59570312 C0.25072585 7.52838465 -0.02322717 4.93031848 -1 2 C-0.67 1.34 -0.34 0.68 0 0 Z " fill="#B5B6B5" transform="translate(688,547)"/>
<path d="M0 0 C2.18994248 3.28491373 2.35277339 4.83095639 2.625 8.6875 C2.69976563 9.68136719 2.77453125 10.67523437 2.8515625 11.69921875 C2.92503906 12.83810547 2.92503906 12.83810547 3 14 C2.01 14.495 2.01 14.495 1 15 C0.34 13.02 -0.32 11.04 -1 9 C-0.34 9 0.32 9 1 9 C0.67 6.03 0.34 3.06 0 0 Z " fill="#6C6C6C" transform="translate(697,670)"/>
<path d="M0 0 C0.66 0.33 1.32 0.66 2 1 C1.04882866 2.1725131 0.08882991 3.33787015 -0.875 4.5 C-1.40867187 5.1496875 -1.94234375 5.799375 -2.4921875 6.46875 C-2.98976563 6.9740625 -3.48734375 7.479375 -4 8 C-4.66 8 -5.32 8 -6 8 C-6.33 8.99 -6.66 9.98 -7 11 C-6.68232368 5.59950264 -3.80003673 3.47662935 0 0 Z " fill="#474747" transform="translate(18,574)"/>
<path d="M0 0 C4.56454251 0.54339792 7.9728176 1.79463821 12 4 C7.99434629 5.60226148 4.91390601 4.47694566 1 3 C0.67 2.01 0.34 1.02 0 0 Z " fill="#4E4E4E" transform="translate(36,610)"/>
<path d="M0 0 C2.64 0 5.28 0 8 0 C6.8125 1.5 6.8125 1.5 5 3 C2.3125 3.1875 2.3125 3.1875 0 3 C0 2.01 0 1.02 0 0 Z " fill="#4B4B4B" transform="translate(331,639)"/>
<path d="M0 0 C-5.21015348 2.17089728 -8.41778771 3.39555307 -14 2 C-14 1.67 -14 1.34 -14 1 C-12.41913952 0.63495397 -10.83516093 0.28339494 -9.25 -0.0625 C-8.36828125 -0.25972656 -7.4865625 -0.45695313 -6.578125 -0.66015625 C-4.01320972 -0.99825872 -2.42908361 -0.81158635 0 0 Z " fill="#696969" transform="translate(1049,599)"/>
<path d="M0 0 C0.33 0.66 0.66 1.32 1 2 C0.22265625 4.1640625 0.22265625 4.1640625 -0.9375 6.625 C-1.31777344 7.44226563 -1.69804688 8.25953125 -2.08984375 9.1015625 C-2.39019531 9.72804688 -2.69054687 10.35453125 -3 11 C-3.66 11 -4.32 11 -5 11 C-3.77472971 6.94718288 -2.30119506 3.55639236 0 0 Z " fill="#919191" transform="translate(519,467)"/>
<path d="M0 0 C-1.40945366 0.56016748 -2.8280031 1.09748502 -4.25 1.625 C-5.43335938 2.07746094 -5.43335938 2.07746094 -6.640625 2.5390625 C-9.49917715 3.09752136 -10.58959839 2.53690745 -13 1 C-11.58622218 0.63447197 -10.16879424 0.28304505 -8.75 -0.0625 C-7.96109375 -0.25972656 -7.1721875 -0.45695313 -6.359375 -0.66015625 C-3.89605178 -1.01497267 -2.34395868 -0.76877544 0 0 Z " fill="#828282" transform="translate(1069,691)"/>
<path d="M0 0 C2.8086289 2.8086289 2.72711179 5.11134294 3 9 C2.34 9.99 1.68 10.98 1 12 C0.01751476 7.9472484 -0.08159574 4.16138263 0 0 Z " fill="#A4A4A4" transform="translate(386,451)"/>
<path d="M0 0 C0.94875 0.04125 1.8975 0.0825 2.875 0.125 C-1.125 2.125 -1.125 2.125 -5.125 4.125 C-5.125 5.115 -5.125 6.105 -5.125 7.125 C-5.785 7.125 -6.445 7.125 -7.125 7.125 C-4.56730769 0.18269231 -4.56730769 0.18269231 0 0 Z " fill="#474747" transform="translate(388.125,444.875)"/>
<path d="M0 0 C0.66 0.33 1.32 0.66 2 1 C-1.96 4.465 -1.96 4.465 -6 8 C-6.66 7.34 -7.32 6.68 -8 6 C-5.36 4.02 -2.72 2.04 0 0 Z " fill="#B4B4B4" transform="translate(1231,619)"/>
<path d="M0 0 C1.21236328 0.02707031 1.21236328 0.02707031 2.44921875 0.0546875 C3.37154297 0.08949219 3.37154297 0.08949219 4.3125 0.125 C-0.42528043 2.49389021 -2.32720918 3.17375255 -7.6875 2.125 C-4.48369983 -0.01086678 -3.66810033 -0.10632175 0 0 Z " fill="#7B7B7B" transform="translate(1011.6875,698.875)"/>
<path d="M0 0 C0.99 0.33 1.98 0.66 3 1 C4.1875 4.5625 4.1875 4.5625 5 8 C4.34 8 3.68 8 3 8 C0 2.25 0 2.25 0 0 Z " fill="#8B8C8B" transform="translate(700,687)"/>
</svg>
