<svg version="1.1" id="Layer_1" xmlns="http://www.w3.org/2000/svg" xmlns:xlink="http://www.w3.org/1999/xlink" x="0px" y="0px"
	 width="100%" viewBox="0 0 1024 1024" enable-background="new 0 0 1024 1024" xml:space="preserve">
<path fill="#000000" opacity="1.000000" stroke="none" 
	d="
M533.000122,829.671387 
	C594.997131,829.668762 656.494080,829.668274 717.991089,829.662170 
	C725.352295,829.661438 725.304321,829.662476 723.085266,822.534912 
	C715.291016,797.499878 714.946655,772.454651 723.067505,747.408752 
	C723.734192,745.352478 724.327637,743.271240 724.903015,741.187256 
	C725.071106,740.578552 725.058716,739.920044 725.130005,739.276001 
	C722.859070,737.716370 720.459045,738.377686 718.218384,738.376892 
	C598.724304,738.336243 479.230194,738.337830 359.736115,738.335815 
	C350.898438,738.335693 350.884460,738.338440 350.884033,729.270630 
	C350.875427,547.946289 350.870117,366.621918 350.867035,185.297562 
	C350.867004,183.631378 350.912689,181.965225 350.924835,180.298981 
	C350.942902,177.822678 352.186310,176.651459 354.656555,176.709564 
	C355.988800,176.740906 357.322723,176.692810 358.655884,176.692749 
	C483.649780,176.687820 608.643677,176.682281 733.637573,176.682327 
	C750.763306,176.682327 760.245178,186.119797 760.246460,203.242386 
	C760.258850,372.900757 760.241089,542.559082 760.303284,712.217468 
	C760.306763,721.724792 758.491882,730.106934 749.733337,735.536438 
	C748.952026,736.020813 748.345825,736.989685 747.950439,737.865417 
	C735.084045,766.365784 733.114929,795.249939 745.041809,824.580505 
	C746.295959,827.664673 747.856262,830.624451 749.110474,833.708618 
	C751.988892,840.786926 749.029297,846.813416 741.656067,848.740662 
	C739.757629,849.236877 737.703491,849.289062 735.720764,849.289551 
	C601.394043,849.321106 467.066833,849.511414 332.740936,849.180481 
	C305.371521,849.113037 284.671234,836.148743 271.755585,811.717651 
	C267.495209,803.658813 265.664703,794.843201 265.664246,785.698242 
	C265.655487,604.873779 265.631348,424.049316 265.664520,243.224854 
	C265.670013,213.246643 284.125885,188.516357 312.801544,179.749512 
	C316.456421,178.632111 320.214050,177.841309 323.941528,176.974213 
	C326.432404,176.394775 327.794830,177.497253 327.906036,180.033264 
	C328.000885,182.196457 328.028442,184.364044 328.028839,186.529694 
	C328.063568,368.520386 328.075256,550.511108 328.214417,732.501709 
	C328.218262,737.506226 327.154205,740.000793 321.852631,741.727356 
	C301.666962,748.301270 290.400421,767.335144 292.327484,790.219421 
	C293.888062,808.751709 310.306458,825.677246 329.581970,828.805847 
	C333.388885,829.423706 337.172394,829.683838 341.011688,829.682800 
	C404.841156,829.665894 468.670593,829.671326 533.000122,829.671387 
M519.500000,415.719299 
	C561.496582,415.711975 603.493225,415.718536 645.489807,415.689209 
	C658.834595,415.679901 666.632751,407.902313 666.654175,394.597198 
	C666.687927,373.598938 666.682007,352.600586 666.661011,331.602325 
	C666.647949,318.589142 658.534790,310.357880 645.424744,310.347534 
	C579.763428,310.295746 514.102173,310.291077 448.440887,310.339874 
	C436.370850,310.348846 428.324829,318.363312 428.274017,330.363556 
	C428.182312,352.027893 428.183533,373.693207 428.284454,395.357483 
	C428.344421,408.229309 436.012939,415.678497 449.005707,415.699524 
	C472.170410,415.737061 495.335236,415.715179 519.500000,415.719299 
z"/>
</svg>