<svg version="1.1" id="Layer_1" xmlns="http://www.w3.org/2000/svg" xmlns:xlink="http://www.w3.org/1999/xlink" x="0px" y="0px"
	 width="100%" viewBox="0 0 1024 1024" enable-background="new 0 0 1024 1024" xml:space="preserve">
<path fill="#000000" opacity="1.000000" stroke="none" 
	d="
M517.246582,211.118866 
	C546.621155,197.874985 575.487000,198.909378 603.959595,212.497818 
	C608.683533,214.752274 610.952026,213.908173 613.527283,209.820358 
	C616.717712,204.755951 620.514954,200.076157 623.990723,195.187988 
	C625.647949,192.857361 627.477295,192.385956 629.915100,194.050354 
	C633.891663,196.765411 637.807251,201.180862 642.001709,201.494614 
	C645.885193,201.785110 649.958618,197.306061 654.192017,195.497543 
	C692.208862,179.256714 732.884644,200.061081 741.706909,240.152069 
	C743.750061,249.436737 743.397034,258.700745 741.032043,267.835327 
	C740.314270,270.607635 740.934692,272.197998 743.132874,273.728729 
	C746.001160,275.726105 748.738220,277.914459 751.499695,280.061890 
	C754.031677,282.030853 754.469360,284.183563 752.371826,286.898132 
	C748.297607,292.170807 744.441467,297.611481 740.400940,302.910858 
	C738.242615,305.741516 738.302917,307.916504 740.961365,310.649567 
	C756.823303,326.956360 767.465942,345.993866 770.584106,368.826813 
	C774.685303,398.857361 767.178894,425.674164 747.786804,448.923523 
	C728.422363,472.139648 703.133911,483.901001 673.155090,484.830078 
	C654.715027,485.401550 637.127380,480.789001 621.033264,471.546448 
	C617.370605,469.443054 615.601257,470.035126 613.527161,473.368988 
	C611.157471,477.178101 608.284241,480.673889 605.629578,484.305695 
	C602.002563,489.267792 597.936279,490.173096 592.723267,486.833923 
	C588.940247,484.410706 585.244934,481.806122 581.757751,478.977570 
	C577.929443,475.872345 575.082825,476.323273 572.246399,480.313690 
	C567.421204,487.101929 562.229858,493.631348 557.455322,500.453522 
	C555.349426,503.462524 553.588379,503.836426 550.585632,501.655457 
	C530.228943,486.869904 509.828217,472.143494 489.315460,457.575775 
	C486.091736,455.286377 486.318146,453.419647 488.336029,450.654022 
	C493.049652,444.193787 497.638428,437.641937 502.240631,431.101074 
	C505.877502,425.932098 505.723694,424.870026 500.643616,420.889374 
	C497.759247,418.629272 494.776154,416.494171 491.819672,414.327087 
	C483.458282,408.198273 482.824097,404.374084 488.752045,396.076172 
	C491.639709,392.033966 494.463287,387.945984 497.369080,383.802887 
	C466.396881,355.617004 452.416534,321.439819 461.267395,280.339844 
	C468.115570,248.539642 487.315155,225.405731 517.246582,211.118866 
M720.804321,395.317261 
	C727.261414,371.625000 718.446655,347.397644 698.349670,332.656891 
	C684.601440,322.572784 668.976257,319.149811 652.362549,318.310181 
	C640.317566,317.701416 631.721985,311.594604 626.772522,300.515411 
	C624.327942,295.043243 622.166992,289.424042 619.404297,284.117920 
	C607.284851,260.841583 580.195679,245.968979 556.724854,249.572510 
	C534.543579,252.978073 518.685974,265.040588 511.275330,286.104401 
	C503.838959,307.241394 507.707367,327.277710 522.225708,344.630676 
	C536.365295,361.530975 555.561829,367.631805 576.770203,368.647278 
	C591.706909,369.362396 599.963196,375.191589 605.466614,389.223267 
	C607.346924,394.017334 609.460693,398.761414 611.928345,403.276642 
	C625.890930,428.824890 653.363525,442.139252 680.396057,435.478943 
	C701.166687,430.361481 714.063599,416.225647 720.804321,395.317261 
M679.576599,226.478333 
	C675.644714,227.086960 671.673950,227.449982 668.035706,229.341568 
	C655.739136,235.734726 650.616882,251.631241 656.888611,264.116241 
	C663.452637,277.183075 678.765991,282.388336 691.670593,275.939240 
	C704.417542,269.568939 709.643921,253.708618 703.254883,240.960831 
	C698.528809,231.531204 690.508057,227.384247 679.576599,226.478333 
z"/>
<path fill="#000000" opacity="1.000000" stroke="none" 
	d="
M432.026733,827.664185 
	C432.889191,829.874634 431.467468,831.084229 430.550293,832.381897 
	C426.416443,838.230469 422.118866,843.964600 418.051300,849.858032 
	C416.414032,852.230225 414.976685,852.271240 412.751282,850.664490 
	C403.162506,843.741699 393.543243,836.857483 383.810364,830.140015 
	C380.754395,828.030701 380.639740,826.238892 382.679565,823.235718 
	C388.651520,814.443359 388.446136,814.479736 379.783203,807.953064 
	C376.544403,805.513062 374.684387,805.566833 372.246338,809.092346 
	C366.411926,817.529297 366.219574,817.430969 357.782349,811.619080 
	C352.432861,807.934265 347.143860,804.161560 341.815460,800.445862 
	C341.414642,800.166260 340.914795,800.028625 339.654510,799.463257 
	C335.772461,804.753967 331.749390,810.168335 327.803375,815.638245 
	C325.074799,819.420471 322.534241,823.339722 319.766388,827.092163 
	C313.347626,835.793945 303.193359,837.538879 294.266815,831.301270 
	C285.255829,825.004700 276.391632,818.496643 267.507416,812.020447 
	C256.003448,803.634766 254.325150,793.973816 262.444214,782.383240 
	C275.824310,763.282166 289.342255,744.277588 302.702728,725.162903 
	C340.207825,671.504517 377.635925,617.792297 415.153259,564.142517 
	C425.844513,548.854004 436.804291,533.753174 447.481567,518.455078 
	C449.689117,515.292114 451.391266,514.833191 454.637970,517.201721 
	C472.267548,530.062988 490.018677,542.758728 507.810486,555.395264 
	C510.732086,557.470276 511.255066,559.046814 508.969330,562.174377 
	C499.928070,574.545532 491.108673,587.081787 482.386017,599.680664 
	C480.485779,602.425415 478.892639,602.742493 475.824463,601.459778 
	C464.963196,596.919312 454.928040,601.183777 452.684418,611.118530 
	C451.313019,617.191162 452.680756,622.887146 457.056152,627.308838 
	C459.917603,630.200500 459.201691,632.061890 457.088409,634.893372 
	C447.823364,647.306763 438.888977,659.966980 429.620331,672.377625 
	C427.032501,675.842651 427.173126,678.009399 430.891022,680.373840 
	C434.534393,682.690796 437.750092,685.671265 441.332733,688.095520 
	C444.506927,690.243469 444.921631,692.252075 442.510071,695.411621 
	C437.886749,701.468811 433.607452,707.788574 428.871735,714.439880 
	C433.463776,717.953064 437.638000,721.146545 442.416229,724.802185 
	C447.054718,718.485901 451.698425,712.685547 455.731964,706.488037 
	C458.470215,702.280640 460.592468,701.818054 464.713013,704.972778 
	C475.555573,713.274109 486.690002,721.204834 497.890717,729.021606 
	C501.477325,731.524536 502.595856,733.492615 499.438446,737.243408 
	C495.369019,742.077515 491.695221,747.260437 488.068451,752.445190 
	C486.084625,755.281189 484.319489,755.521057 481.564392,753.426880 
	C475.200043,748.589294 468.545959,744.130798 462.220764,739.244812 
	C459.158112,736.878967 457.347778,737.410217 455.510864,740.540161 
	C453.664337,743.686462 451.536652,746.667725 449.549408,749.695068 
	C450.531219,752.469299 452.992096,753.463013 454.908966,754.929443 
	C460.332703,759.078796 465.727325,763.291565 471.398651,767.082581 
	C474.844696,769.386169 474.604126,771.284851 472.395691,774.311829 
	C463.559998,786.422363 454.854065,798.629578 446.262787,810.914856 
	C444.312714,813.703430 442.817657,814.286926 439.918915,812.076172 
	C432.397430,806.339783 424.651154,800.898193 416.460602,794.951233 
	C413.175049,799.609680 410.158691,803.886414 406.856934,808.567810 
	C415.418335,815.021606 423.622314,821.205933 432.026733,827.664185 
M438.581879,780.114563 
	C440.840302,777.034485 443.111206,773.963440 445.351746,770.870422 
	C446.430939,769.380615 446.882965,767.900696 445.072174,766.562561 
	C439.235748,762.249268 433.407745,757.924500 427.026093,753.196350 
	C422.171204,760.505737 416.660889,766.615051 412.483429,774.128479 
	C419.285645,779.095886 425.673126,783.760437 432.434418,788.697998 
	C434.529297,785.759827 436.338287,783.222656 438.581879,780.114563 
M426.639832,634.222717 
	C422.563049,639.979065 418.486267,645.735413 414.299561,651.647034 
	C421.465485,654.281006 427.232391,652.573669 430.666138,647.312561 
	C434.187927,641.916626 433.864105,635.206177 429.864685,630.999512 
	C428.489960,631.436707 427.964966,632.758484 426.639832,634.222717 
z"/>
<path fill="#000000" opacity="1.000000" stroke="none" 
	d="
M504.156616,531.877197 
	C486.414673,519.161743 468.961212,506.659332 451.520813,494.138641 
	C445.224457,489.618408 442.493958,483.414337 444.027985,475.864349 
	C445.459961,468.816528 449.721954,463.924561 456.998932,462.200684 
	C462.185730,460.971954 466.948883,462.187775 471.198395,465.217957 
	C497.215363,483.769562 523.242920,502.306976 549.164917,520.990723 
	C558.033752,527.383118 559.632446,537.431335 553.575134,545.904236 
	C547.933594,553.795654 537.244629,555.542480 528.722046,549.642212 
	C520.513611,543.959351 512.531677,537.949341 504.156616,531.877197 
z"/>
<path fill="#000000" opacity="1.000000" stroke="none" 
	d="
M267.469849,832.483826 
	C272.844360,836.395264 277.928711,840.093262 282.959534,843.752319 
	C278.455383,851.625671 268.670013,853.527283 261.121490,848.413391 
	C253.769867,843.432861 251.860260,832.964233 257.221985,826.000488 
	C261.009735,827.273010 263.727570,830.382996 267.469849,832.483826 
z"/>
</svg>