<svg version="1.1" id="Layer_1" xmlns="http://www.w3.org/2000/svg" xmlns:xlink="http://www.w3.org/1999/xlink" x="0px" y="0px"
	 width="100%" viewBox="0 0 1024 704" enable-background="new 0 0 1024 704" xml:space="preserve">
<path fill="#000000" opacity="1.000000" stroke="none" 
	d="
M643.290894,578.463928 
	C641.502380,580.502686 639.396484,580.089050 637.449402,580.089539 
	C554.456726,580.110840 471.464020,580.109985 388.471313,580.095215 
	C382.446136,580.094177 382.000732,579.608704 382.001495,573.493286 
	C382.014679,466.669617 382.032013,359.845947 382.059143,253.022263 
	C382.061188,245.006989 382.098663,245.018463 374.032196,245.032471 
	C364.533081,245.048965 355.027557,245.252060 345.537384,244.961975 
	C340.509644,244.808304 338.991486,246.566849 338.999084,251.599426 
	C339.135071,341.924408 339.101562,432.249664 339.108002,522.574829 
	C339.109253,539.906555 339.105652,557.238403 339.154816,574.570007 
	C339.163086,577.489929 338.909058,580.052124 335.109863,580.038696 
	C317.448914,579.976379 299.714233,580.886047 282.146118,579.572876 
	C260.864899,577.982117 248.937561,563.257446 248.895416,540.776428 
	C248.794479,486.948029 248.835266,433.119293 248.826920,379.290710 
	C248.821823,346.460266 248.826996,313.629791 248.836487,280.799347 
	C248.843216,257.539215 263.669281,242.704987 286.922058,242.681808 
	C298.921021,242.669830 310.920990,242.578934 322.918274,242.718506 
	C326.458649,242.759674 327.868164,241.658051 328.151154,237.937210 
	C328.795654,229.463425 332.155548,226.628113 340.744263,226.604324 
	C354.242981,226.566925 367.741913,226.565475 381.240601,226.604889 
	C389.786865,226.629852 393.032043,229.113647 393.766602,237.382660 
	C394.162537,241.840149 395.892151,242.895737 399.990021,242.770309 
	C408.481384,242.510391 416.989502,242.547195 425.483887,242.749695 
	C429.358948,242.842087 430.711334,241.520966 430.763062,237.576431 
	C430.882874,228.438477 429.734619,219.241760 431.600616,210.164368 
	C435.908691,189.207031 453.283997,174.861206 474.648346,174.793564 
	C500.812439,174.710724 526.977234,174.710236 553.141296,174.802887 
	C579.281616,174.895432 598.122803,193.850586 598.227173,219.996933 
	C598.251099,225.996216 598.312195,231.998474 598.156189,237.994141 
	C598.069336,241.334396 599.172913,242.835663 602.742920,242.756943 
	C610.905029,242.576996 619.074707,242.611481 627.238892,242.730453 
	C630.288513,242.774918 631.681213,241.944321 631.867004,238.557861 
	C632.347900,229.791977 635.813416,226.630554 644.398743,226.607910 
	C658.230774,226.571442 672.063232,226.550552 685.894897,226.631180 
	C693.835022,226.677460 697.340393,229.941650 697.234192,237.809433 
	C697.176514,242.083084 699.023987,242.778214 702.637634,242.735992 
	C714.468262,242.597717 726.301636,242.677963 738.133911,242.689682 
	C762.658081,242.713974 777.035400,257.003113 777.036743,281.443420 
	C777.039856,340.438202 777.005127,399.432953 776.988708,458.427734 
	C776.981018,486.091949 777.064575,513.756531 776.946350,541.420227 
	C776.868958,559.531860 768.135620,572.585571 752.845459,577.991516 
	C748.557190,579.507690 744.076477,580.023376 739.577026,580.045837 
	C724.245422,580.122437 708.913147,580.097351 693.581238,580.064636 
	C687.054749,580.050720 686.833557,579.787842 686.833923,573.296692 
	C686.839905,466.639404 686.848389,359.982117 686.859009,253.324814 
	C686.859802,244.970612 686.869324,244.989136 678.308167,245.005768 
	C669.142395,245.023560 659.976501,244.997742 650.810669,244.998474 
	C643.636047,244.999039 643.379761,245.241776 643.442871,252.201401 
	C643.683044,278.689545 643.833435,305.188934 643.680359,331.666199 
	C643.335449,391.323883 643.562134,450.979980 643.393677,510.636292 
	C643.330200,533.119019 643.438293,555.602295 643.290894,578.463928 
M565.858704,220.707901 
	C565.640259,210.892578 561.975769,207.107819 552.193176,207.093430 
	C526.704773,207.055923 501.216095,207.102127 475.727844,207.199203 
	C467.579498,207.230240 462.652435,211.844193 462.551270,219.621216 
	C462.468964,225.942719 462.846893,232.269073 462.936157,238.594452 
	C462.977448,241.521423 464.273071,242.708939 467.234467,242.704330 
	C498.720215,242.655365 530.206177,242.646088 561.691833,242.731659 
	C565.122192,242.740982 565.964172,241.163467 565.902405,238.147949 
	C565.789734,232.652695 565.863892,227.153595 565.858704,220.707901 
z"/>
</svg>