<svg version="1.1" id="Layer_1" xmlns="http://www.w3.org/2000/svg" xmlns:xlink="http://www.w3.org/1999/xlink" x="0px" y="0px"
	 width="100%" viewBox="0 0 1024 1024" enable-background="new 0 0 1024 1024" xml:space="preserve">
<path fill="#000000" opacity="1.000000" stroke="none" 
	d="
M678.775940,183.190765 
	C700.974915,200.824448 722.873352,218.263184 744.827087,235.632065 
	C768.902893,254.679779 772.435181,287.332977 753.256104,311.601074 
	C730.325378,340.616333 707.533997,369.742889 684.840942,398.944550 
	C653.151917,439.722382 621.919373,480.859314 589.870178,521.350769 
	C574.573425,540.676819 553.218384,546.989685 529.174438,544.868713 
	C522.378479,544.269165 515.628723,542.849609 509.289673,540.275269 
	C505.550873,538.756897 503.368561,540.005859 501.179962,542.781372 
	C496.042755,549.296204 490.792236,555.721558 485.678436,562.070374 
	C482.812592,561.635437 481.204803,559.812561 479.402649,558.422607 
	C436.522552,525.350830 393.669434,492.244080 350.815521,459.138306 
	C345.014343,454.656708 345.019257,454.639313 349.691742,448.736725 
	C353.414520,444.033844 357.007233,439.216705 360.939056,434.694946 
	C363.211090,432.082031 363.150330,430.176971 361.184387,427.322418 
	C351.583435,413.381958 346.239197,397.971680 346.748108,380.905243 
	C347.185608,366.234253 351.349487,352.663239 360.444061,340.947113 
	C403.657257,285.277466 446.941040,229.662598 490.186890,174.018326 
	C501.739960,159.153046 513.194763,144.211182 524.788635,129.377899 
	C543.749023,105.119812 575.397888,101.634445 599.555359,120.819778 
	C625.780762,141.647430 652.177673,162.259125 678.775940,183.190765 
M612.175232,265.350037 
	C587.805420,246.230362 563.446533,227.096649 539.060059,207.998291 
	C529.906006,200.829300 523.634521,201.684814 516.585754,210.749573 
	C493.488403,240.452805 470.339600,270.116089 447.227020,299.807495 
	C438.124603,311.500793 429.059937,323.223480 419.995056,334.945953 
	C418.985474,336.251495 417.724915,337.627777 418.714111,339.425018 
	C419.579254,340.996918 421.287964,340.697723 422.757904,340.754517 
	C424.255157,340.812378 425.755707,340.814453 427.254425,340.799744 
	C467.720734,340.402527 508.188232,340.958557 548.658020,340.158325 
	C589.449341,339.351746 630.255554,339.285828 671.055847,338.967957 
	C674.538513,338.940826 677.452148,338.607391 679.720886,335.359406 
	C684.696106,328.236694 683.864441,321.977356 676.640198,316.264343 
	C655.348999,299.427155 634.033020,282.621307 612.175232,265.350037 
z"/>
<path fill="#000000" opacity="1.000000" stroke="none" 
	d="
M351.239227,565.785278 
	C327.852417,547.805420 304.728668,530.068970 281.652466,512.270874 
	C271.608582,504.524261 269.753937,491.964050 277.358734,481.725250 
	C282.717682,474.510101 288.367828,467.493896 294.183990,460.640076 
	C301.408295,452.126801 313.904968,451.367035 323.459015,458.711884 
	C344.981384,475.257538 366.448669,491.874969 387.930206,508.473755 
	C421.403290,534.338379 454.895233,560.178772 488.324127,586.100342 
	C499.185913,594.522888 500.694214,605.516602 492.536682,616.742859 
	C487.644745,623.475037 482.491516,630.023682 477.299164,636.529785 
	C469.531891,646.262207 457.807861,647.816101 447.638855,640.167908 
	C435.262970,630.859985 423.163788,621.184937 410.903351,611.722595 
	C391.127289,596.459778 371.317230,581.241089 351.239227,565.785278 
z"/>
<path fill="#000000" opacity="1.000000" stroke="none" 
	d="
M456.677185,906.765137 
	C428.254059,925.650513 392.945892,921.170410 372.194702,895.776184 
	C358.553345,879.082703 355.445038,859.835327 361.371033,839.310059 
	C368.001678,816.343994 379.907349,795.880005 392.891724,776.053345 
	C399.640045,765.748840 406.989380,755.836975 414.112000,745.779419 
	C415.635956,743.627502 417.353333,741.612549 418.765900,739.809814 
	C421.142761,739.537781 421.883911,741.027893 422.757904,742.160156 
	C442.244537,767.405579 460.206604,793.627686 473.027313,822.991272 
	C478.510468,835.549255 482.656921,848.511597 481.433624,862.591370 
	C479.840332,880.929749 471.549408,895.473572 456.677185,906.765137 
M457.173187,868.545776 
	C459.227295,862.416748 458.997223,856.083435 458.763947,849.769104 
	C458.528656,843.398987 454.471710,838.953674 449.635925,839.568970 
	C444.723785,840.193909 442.247498,844.514587 443.071472,851.022766 
	C444.449890,861.910156 439.738800,871.949768 431.622101,875.422119 
	C425.746796,877.935608 423.528259,882.366699 425.761292,887.127991 
	C427.783234,891.439148 432.801056,892.734070 438.276459,890.327881 
	C447.714813,886.180115 453.503815,878.794189 457.173187,868.545776 
z"/>
<path fill="#000000" opacity="1.000000" stroke="none" 
	d="
M405.731812,696.995972 
	C405.715485,683.333435 405.663849,670.169861 405.696991,657.006470 
	C405.719208,648.181824 410.932800,642.233154 418.905060,641.763916 
	C426.811462,641.298584 432.826263,646.613464 433.408539,655.577576 
	C433.892395,663.026489 433.353851,670.539368 433.332245,678.024109 
	C433.302368,688.354858 433.409790,698.686523 433.312744,709.016357 
	C433.235779,717.210815 427.340515,723.195129 419.600647,723.196472 
	C411.982697,723.197876 405.987152,717.108826 405.744415,708.991638 
	C405.629944,705.162781 405.729828,701.327393 405.731812,696.995972 
z"/>
</svg>