<?xml version="1.0" encoding="UTF-8"?>
<svg version="1.1" xmlns="http://www.w3.org/2000/svg" width="928" height="1018">
<path d="M0 0 C56.25289932 44.05347537 92.84217282 127.92437244 106 196.875 C115.28920571 195.52295378 124.34219387 193.4543676 133.46206665 191.27661133 C148.0183237 187.812468 162.60871249 184.64797697 177.3125 181.875 C178.47384964 181.65392075 178.47384964 181.65392075 179.65866089 181.42837524 C187.75098668 179.8944905 195.77873862 178.52426052 204 177.875 C204.20625 176.59625 204.4125 175.3175 204.625 174 C205.90174628 168.21816326 208.72202143 163.74048128 212 158.875 C212.5775 157.988125 213.155 157.10125 213.75 156.1875 C222.51604253 147.17795629 233.00100304 142.77078029 245.5 142.375 C258.3730643 142.79534496 268.81950246 147.43085568 277.80859375 156.75 C281.87714959 161.8224852 288 170.27715767 288 176.875 C289.27230469 177.02195313 290.54460938 177.16890625 291.85546875 177.3203125 C320.30936744 180.84564678 348.86527796 189.09216272 368 211.875 C383.2797269 232.72634002 385.33735429 256.81539587 382.4375 282 C380.55759305 292.79917353 377.07541343 303.36797182 374 313.875 C373.32928698 316.20720725 372.66404449 318.5408836 372 320.875 C372.43570313 321.24109375 372.87140625 321.6071875 373.3203125 321.984375 C381.21994444 329.16585858 386.2708821 339.17092874 387 349.875 C387.10107574 362.37951254 384.47749691 372.51403889 376 381.875 C367.2554859 390.73307922 358.30934414 395.92991104 345.625 396.0625 C339.66833154 396.02554796 339.66833154 396.02554796 336.81176758 395.38208008 C334.39610566 394.88570421 332.45623682 394.60975061 330 394.875 C327.17460263 396.84094204 325.39857998 399.38960639 323.4375 402.1875 C322.8815918 402.92572998 322.32568359 403.66395996 321.75292969 404.42456055 C320.64669978 405.89518992 319.55210424 407.37465413 318.47021484 408.86328125 C316.63947349 411.36831425 314.7074979 413.78067624 312.75 416.1875 C312.12996094 416.96351563 311.50992188 417.73953125 310.87109375 418.5390625 C300.72278757 431.2085554 290.16255162 443.49130838 279.19921875 455.4609375 C276.69333379 458.21162472 274.24531728 461.00793035 271.8046875 463.81640625 C268.24682047 467.87483899 264.61859456 471.87075024 261 475.875 C262.34841922 478.85944121 263.86497685 481.01672217 266.125 483.37890625 C266.7442334 484.03157471 267.3634668 484.68424316 268.00146484 485.35668945 C268.66098145 486.04335693 269.32049805 486.73002441 270 487.4375 C271.36772991 488.87969412 272.7349164 490.3224038 274.1015625 491.765625 C274.76961914 492.46880859 275.43767578 493.17199219 276.12597656 493.89648438 C282.56311872 500.69255004 288.72550142 507.66084123 294.6015625 514.94921875 C296.77240416 517.59736272 298.99293624 520.1866016 301.24243164 522.76733398 C308.55938727 531.176797 315.34542297 539.93539368 322 548.875 C322.53238281 549.58640137 323.06476562 550.29780273 323.61328125 551.03076172 C336.80752987 568.72341445 348.80871126 587.28754485 359 606.875 C359.43908691 607.7098291 359.87817383 608.5446582 360.33056641 609.40478516 C377.13997199 641.71772196 391.10251869 681.84316922 379.95703125 718.28515625 C370.24928133 740.78195555 353.93774372 755.77001373 331.5 765.0625 C264.82246746 791.18761509 182.67381669 774.1174495 115.86328125 756.60180664 C114.98671875 756.37227295 114.11015625 756.14273926 113.20703125 755.90625 C112.08518433 755.60557617 112.08518433 755.60557617 110.94067383 755.29882812 C108.84258273 754.76831834 108.84258273 754.76831834 106 754.875 C105.59442871 756.21401367 105.59442871 756.21401367 105.18066406 757.58007812 C95.73434257 788.60328651 85.21650448 818.67112194 71 847.875 C70.61859863 848.66277832 70.23719727 849.45055664 69.84423828 850.26220703 C67.93060838 854.1997498 65.97367713 858.11188726 63.96533203 862.00195312 C63.30019268 863.29253206 62.63999595 864.58566633 61.98388672 865.88085938 C51.71424091 886.14323818 39.60079572 904.79705464 24.171875 921.51171875 C22.69781636 923.11568543 21.25045777 924.74452292 19.828125 926.39453125 C6.02930507 942.32189255 -14.76524728 957.15579945 -36.45288086 959.09423828 C-61.2268524 960.20044645 -81.27968699 952.97781313 -100 936.875 C-100.54253418 936.41077637 -101.08506836 935.94655273 -101.64404297 935.46826172 C-107.64120977 930.27681577 -113.30915138 924.81500858 -118.5 918.8125 C-118.94827148 918.29751953 -119.39654297 917.78253906 -119.85839844 917.25195312 C-122.60382036 913.95587912 -124.77430406 910.59211471 -126.8359375 906.828125 C-131.47697112 897.71533472 -131.47697112 897.71533472 -139.45117188 892.09667969 C-144.90327614 891.49778947 -150.23405558 892.13720779 -155.66259766 892.73193359 C-162.94149853 893.17745646 -169.64429298 889.10628939 -175.09375 884.6171875 C-184.52578578 875.9969253 -190.07826827 866.15004218 -191.23828125 853.21875 C-191.53688187 841.77763159 -188.93255115 831.37869483 -181 822.875 C-180.195625 822.153125 -179.39125 821.43125 -178.5625 820.6875 C-177.7890625 819.7903125 -177.7890625 819.7903125 -177 818.875 C-177.50215608 814.08804375 -179.41172043 809.50372365 -180.984375 804.98046875 C-181.28184631 804.11545242 -181.57931763 803.2504361 -181.88580322 802.35920715 C-182.83751008 799.59258457 -183.79336626 796.82742249 -184.75 794.0625 C-191.90282671 773.36617608 -191.90282671 773.36617608 -194.953125 763.73828125 C-195.16370544 763.08192184 -195.37428589 762.42556244 -195.59124756 761.74931335 C-196.45121579 758.99351442 -197 756.78405353 -197 753.875 C-197.6305127 754.05039307 -198.26102539 754.22578613 -198.91064453 754.40649414 C-212.38343317 758.13658369 -225.88567584 761.64276855 -239.5 764.8125 C-240.16292053 764.96751984 -240.82584106 765.12253967 -241.5088501 765.28225708 C-252.6233683 767.875 -252.6233683 767.875 -255 767.875 C-255.20625 769.15375 -255.4125 770.4325 -255.625 771.75 C-257.71472482 780.99412994 -263.49999113 789.15845781 -271 794.875 C-282.3130524 801.48602496 -292.50451981 804.65440612 -305.71875 802.4140625 C-317.11700241 799.34807688 -327.42388582 792.2189193 -333.5 782 C-335 778.875 -335 778.875 -335 776.875 C-335.66604248 776.89071045 -336.33208496 776.9064209 -337.01831055 776.92260742 C-375.71331965 777.70316042 -423.09913458 775.48647969 -452.97070312 747.10253906 C-469.71712364 730.36773188 -474.30089693 710.52915232 -474.31469727 687.59912109 C-474.19511147 676.94112543 -472.86634539 667.1267411 -470 656.875 C-469.76925781 656.0490332 -469.53851563 655.22306641 -469.30078125 654.37207031 C-452.00113243 594.57844284 -410.15752783 541.41348308 -368.38964844 496.37353516 C-365.94146374 493.73352151 -363.50101807 491.08644024 -361.0625 488.4375 C-360.18722656 487.49003906 -359.31195313 486.54257812 -358.41015625 485.56640625 C-356.17420983 483.06953901 -354.06454895 480.51436536 -352 477.875 C-353.54127351 474.16231906 -355.80843234 471.89384302 -358.6875 469.125 C-362.2876147 465.59668246 -365.69244266 462.02081178 -368.96484375 458.19140625 C-371.14790293 455.7066575 -373.39858444 453.29677318 -375.6628418 450.88623047 C-381.73031402 444.42337328 -387.46138464 437.80056547 -393 430.875 C-393.98128222 429.68341891 -394.96448045 428.49341404 -395.94921875 427.3046875 C-408.19331688 412.48091106 -419.62347196 397.06423395 -430 380.875 C-430.73186523 379.74384766 -430.73186523 379.74384766 -431.47851562 378.58984375 C-448.52685725 352.13625264 -463.54846858 323.64535077 -471 292.875 C-471.31710937 291.61042969 -471.63421875 290.34585937 -471.9609375 289.04296875 C-477.39184323 264.94781045 -475.81613547 239.23522578 -463 217.875 C-448.78305794 196.85993596 -425.25044915 185.24988931 -401 179.875 C-338.59712083 167.94430797 -276.55290643 178.77391744 -215.67333984 193.62353516 C-214.34569359 193.94587128 -214.34569359 193.94587128 -212.9912262 194.27471924 C-211.31919044 194.68122932 -209.64787375 195.09071214 -207.97740173 195.50360107 C-204.91454397 196.24799664 -202.16469907 196.875 -199 196.875 C-198.65219482 195.83158447 -198.30438965 194.78816895 -197.94604492 193.71313477 C-194.77807617 184.20922852 -191.61010742 174.70532227 -188.44213867 165.20141602 C-188.09353287 164.14206345 -188.09353287 164.14206345 -187.73788452 163.06130981 C-187.21870949 161.52302377 -186.67580176 159.99264499 -186.11587524 158.46871948 C-185.68980484 157.28525436 -185.68980484 157.28525436 -185.25512695 156.07788086 C-184.991418 155.36796494 -184.72770905 154.65804901 -184.45600891 153.92662048 C-183.92223639 151.52513532 -184.1676641 150.17261025 -185 147.875 C-186.4862844 145.95942916 -186.4862844 145.95942916 -188.3125 144.125 C-196.94729388 134.58779938 -198.59898139 123.8613287 -198.3046875 111.390625 C-197.76241645 100.64379883 -193.35704508 91.67420472 -186 83.875 C-177.0316166 76.73423476 -168.34230218 73.4924006 -157 73.1875 C-156.12988281 73.15333984 -155.25976562 73.11917969 -154.36328125 73.08398438 C-152.24261185 73.00242017 -150.12133109 72.93701472 -148 72.875 C-147.74089844 72.18019531 -147.48179687 71.48539062 -147.21484375 70.76953125 C-138.98335494 51.15688429 -124.37587072 33.25649601 -110 17.875 C-108.67548828 16.43447266 -108.67548828 16.43447266 -107.32421875 14.96484375 C-95.58015162 2.49486062 -81.9955708 -6.12024562 -66 -12.125 C-65.09378906 -12.48464844 -64.18757813 -12.84429688 -63.25390625 -13.21484375 C-41.72690346 -20.50245624 -17.65205638 -12.74221288 0 0 Z M-100.984375 47.33203125 C-107.15551522 55.14422309 -112.50845004 63.5366657 -117.79296875 71.96435547 C-118.86243837 73.65724974 -119.96044637 75.3320408 -121.0625 77.00390625 C-121.619375 77.86886719 -122.17625 78.73382813 -122.75 79.625 C-123.21921875 80.34171875 -123.6884375 81.0584375 -124.171875 81.796875 C-125.28611604 84.59298931 -124.92387946 86.03297081 -124 88.875 C-122.70800494 91.20718841 -122.70800494 91.20718841 -121.125 93.5 C-115.35847474 102.8567417 -113.62414249 112.80330261 -115.46875 123.625 C-118.14086373 134.82242898 -123.34620922 144.34012624 -133 150.875 C-140.96054583 155.24549575 -149.03556397 156.90626256 -158 157.875 C-160.01402196 163.16374349 -161.90898836 168.46789977 -163.6640625 173.84765625 C-164.02037247 174.9377726 -164.02037247 174.9377726 -164.38388062 176.0499115 C-164.88064918 177.57305895 -165.37637602 179.09654653 -165.87109375 180.62036133 C-166.62479415 182.93686731 -167.38655868 185.25062616 -168.1484375 187.56445312 C-168.63331267 189.05452484 -169.11770421 190.54475402 -169.6015625 192.03515625 C-169.82760162 192.71763931 -170.05364075 193.40012238 -170.28652954 194.10328674 C-171.66187007 198.37925396 -172.48348811 202.43422241 -173 206.875 C-172.29431885 207.10985107 -171.5886377 207.34470215 -170.86157227 207.58666992 C-131.53207662 220.74485042 -90.21530017 235.20739308 -53.74560547 255.10498047 C-49.56886986 257.38187133 -47.55304251 258.19161336 -43 256.875 C-41.00043501 256.06047822 -39.02406143 255.18799848 -37.06640625 254.27734375 C-35.88014648 253.73134521 -34.69388672 253.18534668 -33.47167969 252.62280273 C-32.83758179 252.32880585 -32.20348389 252.03480896 -31.5501709 251.73190308 C5.18065961 234.74194836 42.70948763 219.95560982 81 206.875 C80.33965213 199.82785005 78.12302556 193.28836539 76 186.5625 C75.79959106 185.92495789 75.59918213 185.28741577 75.3927002 184.6305542 C73.9479976 180.03902408 72.48021959 175.45519254 71 170.875 C70.63841797 169.75464355 70.27683594 168.63428711 69.90429688 167.47998047 C54.80701309 121.20751115 34.06683316 71.43653882 0 35.875 C-1.07314453 34.72451172 -1.07314453 34.72451172 -2.16796875 33.55078125 C-12.96501637 22.29509798 -26.8297622 11.92173459 -42.99902344 11.44311523 C-68.02966203 11.37700307 -85.71204605 29.22172016 -100.984375 47.33203125 Z M-437 226.875 C-443.86148397 234.88859881 -448.57111941 244.20892613 -449 254.875 C-449.03996094 255.81859375 -449.07992187 256.7621875 -449.12109375 257.734375 C-450.07747972 303.86593361 -422.49272702 348.00860047 -396 383.875 C-394.92878906 385.34259766 -394.92878906 385.34259766 -393.8359375 386.83984375 C-387.97635443 394.77691537 -381.76174684 402.40950092 -375.50439453 410.03417969 C-374.18993742 411.64258713 -372.88874538 413.26181695 -371.58984375 414.8828125 C-366.56644421 421.13699052 -361.23924443 427.03370378 -355.765625 432.890625 C-353.65797695 435.15022631 -351.62126663 437.4532758 -349.625 439.8125 C-344.1367944 446.18101929 -337.97774945 451.97186878 -332 457.875 C-327.18564208 453.81554806 -322.52319572 449.6276912 -317.9375 445.3125 C-316.61853755 444.07807375 -315.29952596 442.84369999 -313.98046875 441.609375 C-312.02625811 439.77739169 -310.07334482 437.9440888 -308.12353516 436.10742188 C-301.44607003 429.81811907 -294.73260437 423.71369346 -287.56640625 417.9765625 C-285.02440637 415.89498573 -282.60470665 413.7246162 -280.1875 411.5 C-275.84061815 407.54269718 -271.30912413 403.91328588 -266.66699219 400.31518555 C-261.10909266 395.99642671 -255.689947 391.52004984 -250.28076172 387.01708984 C-246.93962992 384.24824259 -243.58345137 381.52801109 -240.1015625 378.9375 C-239.50158447 378.49027588 -238.90160645 378.04305176 -238.28344727 377.58227539 C-236.67719355 376.39712493 -235.05970061 375.22724938 -233.44140625 374.05859375 C-229.63437113 370.65358153 -228.82232484 366.86130092 -228.24145508 361.90917969 C-228.06491646 360.45415039 -228.06491646 360.45415039 -227.8848114 358.96972656 C-227.76426895 357.92268555 -227.6437265 356.87564453 -227.51953125 355.796875 C-227.24402644 353.51916045 -226.96813109 351.24149311 -226.69189453 348.96386719 C-226.47753754 347.16919006 -226.47753754 347.16919006 -226.2588501 345.33825684 C-222.0508684 310.33139367 -216.31145077 275.88184135 -208.84423828 241.42675781 C-208.6548317 240.54810562 -208.46542511 239.66945343 -208.27027893 238.76417542 C-207.91517477 237.12120149 -207.55645668 235.47900288 -207.19346619 233.8377533 C-206.45139237 230.40640454 -206 227.40520435 -206 223.875 C-235.99189752 214.39820653 -266.81872526 207.90854896 -298 203.875 C-298.99708984 203.74367676 -299.99417969 203.61235352 -301.02148438 203.47705078 C-315.41923738 201.69110821 -329.93919865 201.6334869 -344.42825317 201.52554321 C-346.56183239 201.50882203 -348.69537639 201.48639976 -350.8288269 201.45761108 C-380.0491734 201.10756469 -415.21747921 205.30464662 -437 226.875 Z M200.03393555 204.45068359 C199.25780914 204.57894531 198.48168274 204.70720703 197.68203735 204.83935547 C196.84208221 204.98260254 196.00212708 205.12584961 195.13671875 205.2734375 C194.24842377 205.42393555 193.36012878 205.57443359 192.44491577 205.72949219 C189.52451183 206.22930802 186.60579354 206.73801035 183.6875 207.25 C182.69289764 207.42396301 181.69829529 207.59792603 180.67355347 207.77716064 C158.26059949 211.73567806 135.56601633 216.4677323 114 223.875 C114.67215123 229.96532442 115.75703382 235.87421727 117.0390625 241.86328125 C117.45608097 243.84704279 117.87247649 245.83093535 118.28833008 247.81494141 C118.50647369 248.85273743 118.72461731 249.89053345 118.94937134 250.95977783 C125.84590878 283.90702835 131.47847397 316.95988611 135.31567383 350.40673828 C136.32915657 364.27540122 136.32915657 364.27540122 143.66796875 375.359375 C145.15924261 376.46869861 146.6667439 377.55645076 148.1875 378.625 C149.82158473 379.83291622 151.4543717 381.0425898 153.0859375 382.25390625 C153.90932617 382.85605957 154.73271484 383.45821289 155.58105469 384.07861328 C159.24591727 386.80025831 162.78265154 389.66908932 166.3125 392.5625 C166.97000244 393.0989917 167.62750488 393.6354834 168.30493164 394.18823242 C174.04816247 398.88671833 179.72653321 403.65951545 185.3671875 408.48046875 C187.08593704 409.94839599 188.80848996 411.41178241 190.53125 412.875 C196.98027327 418.36420123 203.32927716 423.93468469 209.5703125 429.66015625 C211.60515415 431.51506817 213.66321247 433.32928798 215.75 435.125 C220.50373111 439.24621803 225.06137492 443.58131911 229.63378906 447.90136719 C232.98200306 451.05109112 236.35407156 454.06561346 240 456.875 C248.67356097 453.20312636 254.93349403 443.88773235 260.65234375 436.7265625 C263.16788241 433.67108293 265.80331007 430.76947518 268.5 427.875 C273.58496663 422.40247312 278.32053467 416.69908274 283 410.875 C284.45723064 409.10325915 285.91557854 407.33243667 287.375 405.5625 C292.25558942 399.587838 297.0692293 393.57051874 301.75927734 387.4453125 C302.8566897 386.05637974 304.02725055 384.7259339 305.20703125 383.40625 C307.05632998 381.18225676 308.2426563 379.67097956 309 376.875 C307.97252943 372.50408467 306.05855219 368.8372829 304 364.875 C300.70566351 355.20515347 302.76348738 343.87135915 307 334.875 C312.68505482 324.94022598 320.15250599 317.80182068 331 313.875 C336.27184458 312.55288327 341.63088984 311.69435552 347 310.875 C354.97541884 287.37409914 363.46534232 260.60860581 352.60546875 236.69140625 C349.77036457 231.71790233 346.1355821 227.79867624 342 223.875 C341.00033203 222.91980469 341.00033203 222.91980469 339.98046875 221.9453125 C327.2922177 211.02807928 309.07928883 206.87571235 293 203.875 C292.28199219 203.71515625 291.56398438 203.5553125 290.82421875 203.390625 C288.22159414 203.06708117 286.51617066 203.07574579 284 203.875 C281.66124224 206.40157387 279.90081846 209.09029849 278.02734375 211.9765625 C272.58317388 219.75994216 263.31747054 225.11045248 254 226.875 C240.48659861 227.80328546 229.35013336 226.1478087 218.1953125 217.80859375 C213.69341529 213.84339958 210.57737689 209.2564675 208 203.875 C205.12429261 203.875 202.81392255 203.98815334 200.03393555 204.45068359 Z M-181 231.875 C-186.24372194 255.5888379 -190.93693835 279.35574746 -194.9375 303.3125 C-195.12827118 304.44246399 -195.31904236 305.57242798 -195.51559448 306.7366333 C-197.87201354 320.75075665 -199.79954536 334.71321578 -201 348.875 C-193.96373373 345.15787126 -187.39582291 340.89876957 -180.8125 336.4375 C-147.35706551 313.97357346 -112.86730018 293.25434426 -77 274.875 C-77 274.215 -77 273.555 -77 272.875 C-104.08377511 259.95292145 -131.90237156 248.61818285 -160.125 238.4375 C-160.89775269 238.15819641 -161.67050537 237.87889282 -162.4666748 237.59112549 C-171.57612221 234.18069779 -171.57612221 234.18069779 -181 231.875 Z M77.62109375 235.0078125 C76.98957397 235.23593124 76.3580542 235.46404999 75.70739746 235.69908142 C73.6145619 236.45843347 71.52584929 237.22840166 69.4375 238 C68.71458771 238.26521454 67.99167542 238.53042908 67.24685669 238.80368042 C25.79589804 253.04854315 25.79589804 253.04854315 -13 272.875 C-10.30705303 275.76709639 -7.81057705 277.72905161 -4.30859375 279.546875 C-3.37756836 280.03808838 -2.44654297 280.52930176 -1.48730469 281.03540039 C0.02234863 281.8222522 0.02234863 281.8222522 1.5625 282.625 C14.24734619 289.36394573 26.58941043 296.62172703 38.89941406 304.01611328 C41.68497848 305.68613591 44.47709842 307.34420025 47.2734375 308.99609375 C65.62567576 319.86331873 83.67655142 331.23726884 100.984375 343.71044922 C101.75136719 344.25975098 102.51835938 344.80905273 103.30859375 345.375 C103.97689209 345.8596875 104.64519043 346.344375 105.33374023 346.84375 C106.956846 348.05042151 106.956846 348.05042151 109 347.875 C108.53265702 334.54295212 106.157823 321.50258882 103.9375 308.375 C103.63945465 306.59701523 103.63945465 306.59701523 103.33538818 304.78311157 C100.70841512 289.15166134 97.89817704 273.57221467 94.625 258.0625 C94.46232635 257.28648437 94.29965271 256.51046875 94.13204956 255.7109375 C92.49270265 247.94564295 90.72584138 240.34179863 88 232.875 C83.86260273 232.875 81.47892274 233.60660316 77.62109375 235.0078125 Z M-54.97265625 291.8203125 C-55.60894958 292.14131927 -56.24524292 292.46232605 -56.90081787 292.7930603 C-58.96568969 293.84204477 -61.01384254 294.91973762 -63.0625 296 C-64.50356544 296.74267259 -65.94522282 297.48419762 -67.38745117 298.22460938 C-79.443694 304.44839714 -91.29776937 311.00930226 -103 317.875 C-104.62977783 318.82656982 -104.62977783 318.82656982 -106.29248047 319.79736328 C-134.5727928 336.31944736 -161.97669654 354.07086293 -188.875 372.75 C-189.82536133 373.40967773 -190.77572266 374.06935547 -191.75488281 374.74902344 C-195.39398993 377.28879472 -195.39398993 377.28879472 -199 379.875 C-199.89364258 380.4841626 -200.78728516 381.0933252 -201.70800781 381.72094727 C-204.53356234 384.37645085 -204.79985376 385.78745772 -205.2421875 389.59765625 C-205.37979492 390.76055176 -205.51740234 391.92344727 -205.65917969 393.12158203 C-206.27013415 399.84995872 -206.7869909 406.56554594 -207.125 413.3125 C-207.18753967 414.5351355 -207.18753967 414.5351355 -207.25134277 415.7824707 C-209.31751356 458.00248905 -209.3374886 500.99128856 -206.26904297 543.15185547 C-206.01901435 546.61187034 -205.8058966 550.07243193 -205.59765625 553.53515625 C-205.46490485 555.37789427 -205.32862017 557.22038398 -205.1875 559.0625 C-205.14189941 559.82385254 -205.09629883 560.58520508 -205.04931641 561.36962891 C-204.71329868 564.92024443 -204.09343723 566.75950822 -201.83203125 569.5546875 C-198.77643731 572.05816723 -195.69991642 574.49770386 -192.5 576.8125 C-191.85764404 577.27994629 -191.21528809 577.74739258 -190.5534668 578.22900391 C-181.55308293 584.71402905 -172.27249957 590.7891778 -163 596.875 C-162.17338867 597.41914551 -161.34677734 597.96329102 -160.49511719 598.52392578 C-130.15258972 618.4790854 -98.97335036 636.7693247 -67.11132812 654.171875 C-64.41755589 655.64643205 -61.73081785 657.13266446 -59.046875 658.625 C-57.71905518 659.35472225 -56.39096527 660.08395346 -55.0625 660.8125 C-54.00160156 661.39902344 -52.94070313 661.98554687 -51.84765625 662.58984375 C-47.90486892 664.36923611 -45.1031876 665.60533611 -40.83666992 664.1237793 C-38.18959328 662.92341966 -35.63004137 661.61228078 -33.0625 660.25 C-32.09739502 659.75218018 -31.13229004 659.25436035 -30.13793945 658.74145508 C-20.2817345 653.60743415 -10.63183303 648.11018592 -0.99462891 642.57958984 C2.08135694 640.82869035 5.17226244 639.10747637 8.26953125 637.39453125 C20.87130085 630.42315402 33.25453702 623.20886319 45.42285156 615.50488281 C48.01330059 613.86658822 50.61152498 612.24121435 53.2109375 610.6171875 C64.98931794 603.2259618 76.6238169 595.61355078 88.05053711 587.68847656 C89.21727384 586.87954097 90.38402168 586.0706214 91.55078125 585.26171875 C92.11254562 584.87170685 92.67431 584.48169495 93.25309753 584.0798645 C96.44184283 581.88478697 99.67167614 579.85802138 103.04296875 577.95703125 C109.71608141 574.12974862 109.71608141 574.12974862 113.76757812 567.76318359 C114.72070673 563.48377682 114.94054887 559.2762198 114.94255066 554.9021759 C114.97859578 549.17100852 115.22151307 543.46474007 115.49731445 537.7409668 C116.0621554 525.0604624 116.16374589 512.39839179 116.16796875 499.70703125 C116.17119806 497.36699912 116.17456325 495.02696718 116.17805481 492.68693542 C116.18398284 487.82050103 116.18590125 482.95408422 116.18530273 478.08764648 C116.18522147 473.16312997 116.19217584 468.23870646 116.20581055 463.31420898 C119.77886626 421.95758932 119.77886626 421.95758932 112 382.875 C109.74902433 380.9981647 107.51729808 379.30572587 105.125 377.625 C104.36759521 377.08560791 103.61019043 376.54621582 102.82983398 375.99047852 C64.98700537 349.33084956 25.6781551 324.95304063 -15 302.875 C-16.15000488 302.24803223 -17.30000977 301.62106445 -18.48486328 300.97509766 C-21.8773007 299.1337873 -25.27999505 297.31324878 -28.6875 295.5 C-29.70859863 294.94610596 -30.72969727 294.39221191 -31.78173828 293.8215332 C-32.74450684 293.31581787 -33.70727539 292.81010254 -34.69921875 292.2890625 C-35.53283936 291.8451416 -36.36645996 291.4012207 -37.2253418 290.94384766 C-44.15455726 288.2745907 -48.40224187 288.44024475 -54.97265625 291.8203125 Z M-237.45703125 409.55078125 C-238.15103027 410.12610596 -238.8450293 410.70143066 -239.56005859 411.29418945 C-240.30336426 411.91898193 -241.04666992 412.54377441 -241.8125 413.1875 C-242.958396 414.14112427 -242.958396 414.14112427 -244.12744141 415.11401367 C-249.26365496 419.39562224 -254.37521872 423.70702032 -259.46606445 428.04248047 C-262.76971385 430.85257635 -266.12006675 433.59491679 -269.5 436.3125 C-274.88142204 440.68834245 -279.93998569 445.36808815 -285.0078125 450.09765625 C-287.32240262 452.25577719 -289.66895746 454.3667381 -292.0625 456.4375 C-295.48818343 459.40399607 -298.84421738 462.44138186 -302.1875 465.5 C-302.93688843 466.18364624 -302.93688843 466.18364624 -303.70141602 466.88110352 C-306.88567966 469.80244145 -309.96485754 472.80101659 -313 475.875 C-311.52053141 479.41939534 -309.57759273 481.37750579 -306.6875 483.875 C-302.52494271 487.52552057 -298.42973563 491.23110735 -294.375 495 C-289.6504186 499.372852 -284.886491 503.68285941 -280 507.875 C-279.5148291 508.29185059 -279.0296582 508.70870117 -278.52978516 509.13818359 C-275.59325329 511.66084773 -272.65352632 514.17971658 -269.7109375 516.6953125 C-267.2917862 518.76470698 -264.88061267 520.84277307 -262.4765625 522.9296875 C-256.58110098 528.03759998 -250.62755294 533.0466124 -244.5 537.875 C-243.93667969 538.31980713 -243.37335938 538.76461426 -242.79296875 539.22290039 C-239.28058321 541.96354609 -235.72359079 544.39260614 -232 546.875 C-232 500.675 -232 454.475 -232 406.875 C-234.68499022 406.875 -235.40858532 407.8414767 -237.45703125 409.55078125 Z M142 406.875 C141.67 453.075 141.34 499.275 141 546.875 C151.08122798 541.83438601 159.65768106 532.78411519 168.18847656 525.43212891 C169.99362396 523.88048064 171.80438559 522.33566415 173.6171875 520.79296875 C179.9442709 515.40396483 186.19133344 509.95597418 192.3046875 504.32421875 C194.44920317 502.37550668 196.61419822 500.4632132 198.80078125 498.5625 C203.05055956 494.85393876 207.1943591 491.04120881 211.3125 487.1875 C212.01439453 486.53716797 212.71628906 485.88683594 213.43945312 485.21679688 C214.11556641 484.58451172 214.79167969 483.95222656 215.48828125 483.30078125 C216.09196533 482.73786377 216.69564941 482.17494629 217.31762695 481.5949707 C219.07283315 479.80053918 220.53870076 477.91301791 222 475.875 C216.67292073 470.86830782 211.33828027 465.8697458 206 460.875 C205.10498779 460.03606201 205.10498779 460.03606201 204.19189453 459.18017578 C197.60408515 453.01174949 190.90476699 447.01234378 184.02563477 441.16992188 C180.56765575 438.23124468 177.16704981 435.24481122 173.8125 432.1875 C169.61625568 428.3814448 165.28501631 424.77873651 160.87890625 421.21875 C158.82728145 419.54849914 156.79547233 417.86589407 154.77734375 416.15625 C154.24093262 415.70306396 153.70452148 415.24987793 153.15185547 414.78295898 C151.64211967 413.50490154 150.13542655 412.22325242 148.62890625 410.94140625 C145.91247195 408.66362184 145.91247195 408.66362184 142 406.875 Z M234.375 501 C233.79959473 501.53407471 233.22418945 502.06814941 232.63134766 502.6184082 C229.47021209 505.55593055 226.32481674 508.50972418 223.1875 511.47265625 C216.85087046 517.44575525 210.48561901 523.23018719 203.67578125 528.66796875 C200.68502339 531.13479822 197.83656394 533.73489035 195 536.375 C190.4173114 540.63360815 185.70055215 544.65479827 180.82421875 548.578125 C178.33706167 550.60087516 175.89592724 552.66790453 173.46582031 554.75854492 C167.88656715 559.55091447 162.16853568 564.11222184 156.3125 568.5625 C155.228479 569.38645264 155.228479 569.38645264 154.12255859 570.22705078 C152.72464907 571.28851537 151.32654439 572.34972302 149.92822266 573.41064453 C147.27393941 575.4263942 144.62848431 577.45060951 142 579.5 C140.8553125 580.38558594 140.8553125 580.38558594 139.6875 581.2890625 C136.43091059 584.34965347 136.65854409 588.47358542 136.23828125 592.70703125 C136.09164203 594.13890227 135.9443103 595.5707025 135.79638672 597.00244141 C135.7183783 597.76308899 135.64036987 598.52373657 135.55999756 599.30743408 C131.59603827 637.42693899 124.23218522 674.78851951 116.50042725 712.29864502 C116.06404102 714.41861762 115.63115689 716.53927374 115.19921875 718.66015625 C114.84670044 720.37730835 114.84670044 720.37730835 114.48706055 722.12915039 C113.91267287 724.90252948 113.91267287 724.90252948 114 727.875 C156.88794494 744.39736143 207.61859328 751.09344454 253.3125 751.125 C254.63584854 751.12601212 254.63584854 751.12601212 255.9859314 751.12704468 C284.41167329 751.09262121 319.85629876 749.27293227 342 728.875 C342.62132812 728.34390625 343.24265625 727.8128125 343.8828125 727.265625 C351.64817333 720.20620607 356.33857818 710.57647748 357.23510742 700.13745117 C358.54540087 671.29923327 350.25356971 646.99881147 336.98242188 621.75 C336.02018785 619.9135295 335.07890996 618.06754826 334.140625 616.21875 C317.79766807 584.38065898 295.11298003 554.35104333 270.96484375 528.01953125 C269.17061569 526.06121872 267.42304764 524.07273863 265.6875 522.0625 C257.8380933 513.06573223 249.79341725 503.95826003 241 495.875 C238.66714556 495.875 236.07821837 499.40611486 234.375 501 Z M-333.9519043 498.58398438 C-334.73476807 499.37095703 -335.51763184 500.15792969 -336.32421875 500.96875 C-337.18853516 501.835 -338.05285156 502.70125 -338.94335938 503.59375 C-340.30170898 504.97046875 -340.30170898 504.97046875 -341.6875 506.375 C-342.57373047 507.261875 -343.45996094 508.14875 -344.37304688 509.0625 C-349.45206439 514.17535256 -354.30828627 519.407184 -359 524.875 C-360.45445517 526.48268373 -361.91220895 528.08739715 -363.375 529.6875 C-368.10518353 534.9370449 -372.58457528 540.35936219 -377 545.875 C-377.41475586 546.3901416 -377.82951172 546.9052832 -378.25683594 547.43603516 C-409.91556396 586.82482883 -448.02269947 637.56175192 -448.25 690.125 C-448.270625 691.30191406 -448.29125 692.47882813 -448.3125 693.69140625 C-448.37255855 707.18956488 -444.68165041 717.93360812 -435.5 728 C-421.58138375 741.09831758 -402.26685845 745.66819429 -384 748.875 C-383.32694824 748.99504395 -382.65389648 749.11508789 -381.96044922 749.23876953 C-371.91450562 750.94142883 -361.79501317 751.15590442 -351.625 751.3125 C-349.68778076 751.36422363 -349.68778076 751.36422363 -347.71142578 751.41699219 C-346.4995459 751.4224707 -345.28766602 751.42794922 -344.0390625 751.43359375 C-342.40251709 751.45377563 -342.40251709 751.45377563 -340.73291016 751.47436523 C-337.78883762 751.13959252 -337.78883762 751.13959252 -336.18237305 748.46240234 C-335.79218994 747.60855957 -335.40200684 746.7547168 -335 745.875 C-334.68417969 745.22917969 -334.36835938 744.58335937 -334.04296875 743.91796875 C-333.61951172 742.99951172 -333.61951172 742.99951172 -333.1875 742.0625 C-328.0227389 731.79100882 -321.36864632 726.23167618 -310.625 722.0625 C-299.15261839 718.30430603 -288.1175319 719.07809538 -277 723.875 C-269.23773416 728.20643011 -262.8182446 733.76123023 -259 741.875 C-253.42310424 741.27029521 -248.12680801 740.29923657 -242.6953125 738.9140625 C-241.9312912 738.72282806 -241.1672699 738.53159363 -240.38009644 738.33456421 C-238.77448178 737.93165992 -237.16943477 737.52648732 -235.56494141 737.11914062 C-233.13966904 736.5037223 -230.71261229 735.89580359 -228.28515625 735.2890625 C-220.46822244 733.32565283 -212.68311008 731.32149584 -205 728.875 C-205.56717539 720.71885807 -207.21727549 712.94918358 -209.03720093 704.99810791 C-216.62489351 671.6224874 -221.9697589 637.79514708 -226.08984375 603.828125 C-226.17509811 603.1262204 -226.26035248 602.4243158 -226.34819031 601.70114136 C-226.82452622 597.67375963 -227.16717204 593.65483493 -227.44140625 589.609375 C-227.80148495 585.63344323 -228.29997275 582.97396062 -231 579.875 C-233.03946348 578.2548388 -235.02611468 576.807424 -237.1875 575.375 C-244.85869285 570.09795598 -252.02350644 564.2930031 -259.19580078 558.36328125 C-261.65964986 556.33085581 -264.14380471 554.32368914 -266.625 552.3125 C-271.42031552 548.38840546 -276.12080809 544.35989902 -280.8112793 540.31176758 C-284.30204045 537.3057151 -287.83867362 534.37692213 -291.4375 531.5 C-297.41363199 526.6554433 -302.96024067 521.37889918 -308.5546875 516.10546875 C-311.66914709 513.1727837 -314.84168692 510.32319693 -318.08984375 507.5390625 C-321.42581301 504.63288069 -324.65434119 501.60572697 -327.8984375 498.59765625 C-330.67920605 496.31825304 -331.2374236 496.20732835 -333.9519043 498.58398438 Z M-200 604.875 C-200.21671945 611.5968147 -199.38488336 617.90640121 -198.3125 624.53515625 C-198.13433746 625.66217453 -197.95617493 626.78919281 -197.77261353 627.95036316 C-197.18974812 631.61407737 -196.59592244 635.27588833 -196 638.9375 C-195.79880554 640.18454712 -195.59761108 641.43159424 -195.39031982 642.71643066 C-192.76972293 658.91511382 -189.96303936 675.05787442 -186.625 691.125 C-186.46241699 691.90803497 -186.29983398 692.69106995 -186.13232422 693.49783325 C-184.28340623 702.33979451 -182.27103949 711.13055433 -180 719.875 C-171.39441456 718.29730934 -163.40681717 715.25753541 -155.25 712.1875 C-154.49577759 711.90554779 -153.74155518 711.62359558 -152.96447754 711.33309937 C-127.00558182 701.62175771 -101.31223291 691.16677778 -76 679.875 C-78.66360203 677.01181754 -81.08150533 675.08988607 -84.578125 673.3515625 C-85.92946533 672.66743286 -85.92946533 672.66743286 -87.30810547 671.96948242 C-88.27893066 671.48455322 -89.24975586 670.99962402 -90.25 670.5 C-102.78920328 664.09352049 -114.90531269 657.07799036 -127 649.875 C-128.06105957 649.24625977 -129.12211914 648.61751953 -130.21533203 647.96972656 C-143.90263562 639.85706004 -157.40295829 631.54141421 -170.67474365 622.7678833 C-174.59083782 620.17917268 -178.5091829 617.5939263 -182.42980957 615.01208496 C-184.41506862 613.70229923 -186.39655997 612.38694834 -188.37792969 611.07128906 C-189.60465779 610.26212729 -190.83153895 609.45319751 -192.05859375 608.64453125 C-193.15486084 607.91854736 -194.25112793 607.19256348 -195.38061523 606.44458008 C-197.77698857 604.70366605 -197.77698857 604.70366605 -200 604.875 Z M103.52734375 607.15625 C102.80579102 607.66019287 102.08423828 608.16413574 101.34082031 608.68334961 C100.54772461 609.24159424 99.75462891 609.79983887 98.9375 610.375 C63.12469388 635.2112432 25.16721063 658.68702307 -14 677.875 C-11.91208676 680.14718461 -10.0134838 681.54194973 -7.22973633 682.85986328 C-6.48189377 683.21571503 -5.73405121 683.57156677 -4.96354675 683.9382019 C-4.15702164 684.3117984 -3.35049652 684.6853949 -2.51953125 685.0703125 C-1.25336723 685.66249069 -1.25336723 685.66249069 0.03837585 686.26663208 C9.00328467 690.41306789 18.12767949 694.12341322 27.3125 697.75 C29.04998138 698.44088294 30.78744861 699.13180145 32.52490234 699.82275391 C47.57702639 705.78785879 62.72192626 711.51235616 78 716.875 C79.02593262 717.24705566 80.05186523 717.61911133 81.10888672 718.00244141 C84.13491315 719.06762313 84.13491315 719.06762313 88 718.875 C91.2679991 709.01748158 93.63023236 699.10356916 95.6875 688.9375 C95.93487915 687.72765945 95.93487915 687.72765945 96.18725586 686.49337769 C99.46926738 670.36883947 102.2749673 654.16418391 105 637.9375 C105.20144623 636.74802765 105.40289246 635.5585553 105.61044312 634.33303833 C106.18565332 630.922495 106.75094195 627.5104712 107.3125 624.09765625 C107.56970573 622.57338013 107.56970573 622.57338013 107.83210754 621.01831055 C108.71574099 615.55638278 109.17690698 610.40784769 109 604.875 C106.43197633 604.875 105.61589032 605.67989605 103.52734375 607.15625 Z M-51.80859375 696.38671875 C-52.90409546 696.89464966 -52.90409546 696.89464966 -54.02172852 697.4128418 C-54.81893311 697.792229 -55.6161377 698.17161621 -56.4375 698.5625 C-58.24648147 699.39781636 -60.05643963 700.23101969 -61.8671875 701.0625 C-62.85170898 701.51625 -63.83623047 701.97 -64.85058594 702.4375 C-99.76724568 718.37465446 -135.58327494 732.73609165 -172 744.875 C-170.53374615 753.72616654 -167.84576565 762.0571682 -165.05175781 770.55859375 C-164.25928 772.97174179 -163.47660631 775.38789846 -162.6953125 777.8046875 C-160.16473903 785.58817824 -157.53220288 793.3231437 -154.671875 800.9921875 C-154.41827209 801.67411163 -154.16466919 802.35603577 -153.90338135 803.05862427 C-152.86111093 806.20848859 -152.86111093 806.20848859 -151 808.875 C-148.89807303 809.12387295 -146.79326036 809.3484719 -144.6875 809.5625 C-133.45404173 811.10681453 -123.55058818 816.04856572 -116.3515625 824.90234375 C-108.48172843 835.82413786 -107.16328896 848.72898376 -109 861.875 C-110.15359204 865.87038921 -111.89135973 869.38519791 -113.8828125 873.02734375 C-115.2573087 875.76388474 -115.2573087 875.76388474 -114.484375 878.3203125 C-112.55767385 881.63626659 -110.41472769 884.7419472 -108.125 887.8125 C-107.6388623 888.46637695 -107.15272461 889.12025391 -106.65185547 889.79394531 C-93.73902821 906.96424776 -78.10152871 924.8411571 -57 931.875 C-37.22121827 933.41226595 -23.77579603 930.46911161 -8.30078125 917.63671875 C-5.81474582 915.43240862 -3.39768611 913.17482137 -1 910.875 C-0.32453125 910.25109375 0.3509375 909.6271875 1.046875 908.984375 C20.43172824 890.52999472 33.39894365 864.82310181 44.95068359 841.02685547 C46.06493606 838.74183424 47.19864583 836.4669918 48.33203125 834.19140625 C58.44621338 813.6730296 66.31916531 792.33379553 73.625 770.6875 C73.8891571 769.91260223 74.15331421 769.13770447 74.42547607 768.33932495 C75.182056 766.11104444 75.92518647 763.87873655 76.6640625 761.64453125 C76.88644592 760.99241669 77.10882935 760.34030212 77.33795166 759.66842651 C78.92745549 754.78026907 79.58772858 749.99146601 80 744.875 C78.38834961 744.29552612 78.38834961 744.29552612 76.74414062 743.7043457 C44.3774158 732.04774484 12.61242727 719.56829333 -18.76283264 705.45664978 C-21.51025204 704.22192765 -24.26022073 702.99296239 -27.01086426 701.76544189 C-28.34480956 701.16829774 -29.67740133 700.56812135 -31.00866699 699.96502686 C-32.91606707 699.10205453 -34.82837198 698.25097399 -36.7421875 697.40234375 C-37.83128418 696.9137085 -38.92038086 696.42507324 -40.04248047 695.92163086 C-44.46091332 694.35800021 -47.59253755 694.38785395 -51.80859375 696.38671875 Z " fill="#101010" transform="translate(497,41.125)"/>
<path d="M0 0 C0.80119263 0.00054382 1.60238525 0.00108765 2.42785645 0.00164795 C14.22563632 0.03853261 25.17075767 0.59200623 36.4375 4.375 C37.10507324 4.58930664 37.77264648 4.80361328 38.46044922 5.02441406 C70.75726014 15.50771626 95.02326587 37.75875654 110.72094727 67.66210938 C125.12959056 96.45682957 126.92912557 131.13572257 117.08203125 161.6875 C106.76646471 191.8068419 85.30926866 216.27779197 57.4375 231.375 C26.92477606 246.18466669 -7.36741612 248.96218475 -39.55859375 237.875 C-56.96340666 231.5225652 -71.18466347 222.14695626 -84.5625 209.375 C-85.1503125 208.85035156 -85.738125 208.32570313 -86.34375 207.78515625 C-106.512863 189.0906718 -119.23795869 159.62672058 -120.7265625 132.37109375 C-122.00142987 97.0572677 -112.61919299 64.11879845 -88.30859375 37.8125 C-64.58002937 12.84814285 -34.3366316 -0.08737281 0 0 Z " fill="#030303" transform="translate(450.5625,395.625)"/>
<path d="M0 0 C2.97 1.98 2.97 1.98 6 4 C5.01 4 4.02 4 3 4 C2.99576806 4.63131144 2.99153612 5.26262287 2.98717594 5.91306496 C2.88350759 21.33160235 2.77481874 36.75009517 2.66066074 52.16855812 C2.60557189 59.62505256 2.55213227 67.08155177 2.50268555 74.53808594 C2.45954305 81.04329828 2.41319369 87.54847886 2.36312145 94.05364168 C2.33675999 97.4925134 2.3119174 100.93137981 2.29092598 104.37028885 C2.26658341 108.22558144 2.23657355 112.08079319 2.20532227 115.93603516 C2.1995668 117.05454361 2.19381134 118.17305206 2.18788147 119.32545471 C2.11547581 127.2475056 1.64157743 135.10440958 1 143 C3.475 141.02 3.475 141.02 6 139 C6.66 139.33 7.32 139.66 8 140 C2.25 145 2.25 145 0 145 C0 97.15 0 49.3 0 0 Z " fill="#9C9C9B" transform="translate(637,445)"/>
<path d="M0 0 C3.49022281 15.13915635 6.72149862 30.31291438 9.6875 45.5625 C9.83148224 46.29883667 9.97546448 47.03517334 10.12380981 47.79382324 C11.73356261 56.04416565 13.26919915 64.30773998 14.70703125 72.58984375 C14.83736252 73.31393936 14.96769379 74.03803497 15.10197449 74.78407288 C15.9170136 79.58519031 16.11327663 84.12978941 16 89 C15.67 89 15.34 89 15 89 C14.79955078 87.80028564 14.59910156 86.60057129 14.39257812 85.36450195 C9.7075473 57.42761598 4.87466904 29.49867617 -2 2 C-5.3 2.33 -8.6 2.66 -12 3 C-8.45266434 -0.54733566 -4.72551531 -1.44220272 0 0 Z " fill="#DBDBDB" transform="translate(587,273)"/>
<path d="M0 0 C2.97 1.98 2.97 1.98 6 4 C5.01 4 4.02 4 3 4 C2.67 14.89 2.34 25.78 2 37 C1.67 37 1.34 37 1 37 C0.36405271 24.65822514 -0.17327227 12.36008863 0 0 Z " fill="#E4E4E3" transform="translate(637,445)"/>
<path d="M0 0 C0.66 0.33 1.32 0.66 2 1 C-2.95 5.95 -7.9 10.9 -13 16 C-13.66 15.67 -14.32 15.34 -15 15 C-10.28109462 9.59947495 -5.69641143 4.38185495 0 0 Z " fill="#5D5D5D" transform="translate(52,240)"/>
<path d="M0 0 C4.875 1.75 4.875 1.75 6 4 C4.68 3.67 3.36 3.34 2 3 C2.144375 4.01320313 2.28875 5.02640625 2.4375 6.0703125 C2.62521291 7.42184545 2.81270096 8.77340964 3 10.125 C3.09539062 10.79015625 3.19078125 11.4553125 3.2890625 12.140625 C3.83611453 16.12628981 4.10022182 19.97859938 4 24 C1.61179994 20.41769992 1.33276322 17.28989489 0.875 13.125 C0.78863281 12.41730469 0.70226562 11.70960938 0.61328125 10.98046875 C0.18189018 7.30337343 -0.10162874 3.70218973 0 0 Z " fill="#B6B7B5" transform="translate(295,643)"/>
<path d="M0 0 C0.53251766 1.91345327 1.05059483 3.8309295 1.5625 5.75 C1.85253906 6.81734375 2.14257812 7.8846875 2.44140625 8.984375 C3 12 3 12 2 16 C0.68 11.38 -0.64 6.76 -2 2 C-5.3 2.33 -8.6 2.66 -12 3 C-8.45266434 -0.54733566 -4.72551531 -1.44220272 0 0 Z " fill="#C9C8C7" transform="translate(587,273)"/>
<path d="M0 0 C0.66 0 1.32 0 2 0 C0.52278578 3.45201639 -1.43794001 5.64961936 -4.125 8.25 C-4.84945312 8.95640625 -5.57390625 9.6628125 -6.3203125 10.390625 C-6.87460937 10.92171875 -7.42890625 11.4528125 -8 12 C-8 8.24111186 -7.049166 7.58681685 -4.5625 4.875 C-3.92441406 4.17117188 -3.28632812 3.46734375 -2.62890625 2.7421875 C-1.76410115 1.81724008 -0.89538137 0.89538137 0 0 Z " fill="#6A6A6A" transform="translate(815,361)"/>
<path d="M0 0 C-3.96 1.98 -7.92 3.96 -12 6 C-11.67 6.99 -11.34 7.98 -11 9 C-13.475 8.01 -13.475 8.01 -16 7 C-13.62905707 4.34828752 -11.16431913 2.8509948 -8 1.25 C-7.13375 0.80140625 -6.2675 0.3528125 -5.375 -0.109375 C-3 -1 -3 -1 0 0 Z " fill="#D7D7D7" transform="translate(497,308)"/>
<path d="M0 0 C2.97 1.98 2.97 1.98 6 4 C4.66666667 4 3.33333333 4 2 4 C1.67 7.63 1.34 11.26 1 15 C0.67 15 0.34 15 0 15 C0 10.05 0 5.1 0 0 Z " fill="#C2C2C2" transform="translate(637,445)"/>
<path d="M0 0 C0.33 0.66 0.66 1.32 1 2 C-0.21484375 4.3828125 -0.21484375 4.3828125 -1.9375 7.125 C-2.50339844 8.03507813 -3.06929688 8.94515625 -3.65234375 9.8828125 C-4.09707031 10.58148437 -4.54179688 11.28015625 -5 12 C-6.60031344 8.79937313 -5.03173691 6.27728194 -4 3 C-3.01 3 -2.02 3 -1 3 C-0.67 2.01 -0.34 1.02 0 0 Z " fill="#AFB0B1" transform="translate(78,645)"/>
<path d="M0 0 C4.875 1.75 4.875 1.75 6 4 C4.68 3.67 3.36 3.34 2 3 C2 4.98 2 6.96 2 9 C0.14223235 5.86501708 -0.20140476 3.62528568 0 0 Z " fill="#CCCCCB" transform="translate(295,643)"/>
<path d="M0 0 C0 3.99904969 -1.72586967 5.80200422 -4 9 C-5 7 -5 7 -4.25 3.9375 C-3.8375 2.968125 -3.425 1.99875 -3 1 C-2.01 0.67 -1.02 0.34 0 0 Z " fill="#929495" transform="translate(92,623)"/>
</svg>
