<svg version="1.1" id="Layer_1" xmlns="http://www.w3.org/2000/svg" xmlns:xlink="http://www.w3.org/1999/xlink" x="0px" y="0px"
	 width="100%" viewBox="0 0 1024 1024" enable-background="new 0 0 1024 1024" xml:space="preserve">
<path fill="#000000" opacity="1.000000" stroke="none" 
	d="
M365.001801,530.994507 
	C374.032776,522.811096 382.786713,514.816895 392.309265,507.795898 
	C413.616943,492.085876 430.019379,471.749420 446.754761,451.602020 
	C474.607391,418.070892 505.069702,387.105377 539.654663,360.395905 
	C547.823730,354.087097 553.725281,345.791626 560.017822,337.825775 
	C575.960022,317.644318 592.516846,298.044281 613.644958,282.960632 
	C631.112305,270.490417 649.382996,259.624725 671.166016,256.519714 
	C691.152954,253.670654 709.946350,257.803955 727.632690,267.023682 
	C731.832642,269.213074 735.747253,270.827698 740.559448,271.325256 
	C749.633972,272.263489 758.606873,274.186279 767.619812,275.713196 
	C768.266235,275.822754 769.375244,275.912476 769.459595,276.227905 
	C770.984009,281.929169 776.438660,280.552673 780.141846,282.014587 
	C795.949646,288.255005 811.298157,295.032898 820.911316,310.167145 
	C823.202087,313.773621 825.326904,317.489349 825.154907,322.503937 
	C816.421448,319.646210 808.134583,322.554413 799.771240,322.861572 
	C791.605713,323.161469 783.475281,323.061737 775.308105,322.801239 
	C767.559082,322.553986 759.867798,323.925598 752.907532,327.795563 
	C749.846985,329.497223 748.157410,332.341156 746.857910,335.502289 
	C745.969666,337.663055 747.127991,341.139130 742.943054,341.351654 
	C742.063965,341.396301 742.406799,343.425293 742.276489,344.560699 
	C741.965210,347.272095 742.842773,350.091400 741.779480,353.036346 
	C738.834900,351.458099 739.130798,348.199982 737.002014,346.053802 
	C734.347168,354.117920 734.014160,362.234650 734.599731,371.506348 
	C730.853088,368.788147 730.625244,365.159302 728.480530,362.190399 
	C726.664856,370.826080 728.808472,378.843018 728.752136,387.102203 
	C725.248840,386.863403 725.739258,383.191437 723.409485,381.942688 
	C722.776917,397.481323 725.005798,413.143707 720.092590,428.667450 
	C717.184998,426.636505 718.224243,422.957825 715.598694,421.047272 
	C712.120483,425.232727 712.893738,430.432526 712.680420,434.875702 
	C711.854614,452.076538 705.346436,467.589142 699.489380,483.313965 
	C694.713440,496.136292 690.123352,509.529022 681.019165,519.684082 
	C664.935486,537.624084 655.604004,559.374390 643.846436,579.785156 
	C634.061340,596.771606 622.381714,612.227356 607.720520,625.441711 
	C592.583191,639.085327 580.149780,654.838074 572.918945,674.195801 
	C571.933655,676.833618 571.062134,679.568542 570.601257,682.335693 
	C569.751831,687.435181 571.065002,691.820251 575.395081,695.156738 
	C591.502869,707.568481 607.779602,719.731079 625.081482,730.464844 
	C634.601807,736.371155 644.629822,737.917542 655.152039,733.853699 
	C662.087524,731.175049 668.435120,730.903137 674.107910,736.448303 
	C675.441040,737.751465 677.173523,737.540955 678.783081,737.857483 
	C686.755859,739.425232 692.226990,744.465332 693.668884,751.512207 
	C694.001770,753.138977 694.500549,754.780701 692.741272,756.378052 
	C689.635498,755.056396 688.799805,751.321594 685.968262,749.641113 
	C683.028137,747.896179 680.332458,745.313660 678.419739,750.757690 
	C677.662170,752.914062 675.848389,753.296692 673.484131,752.807312 
	C667.802856,751.631287 662.031006,751.133423 655.712708,751.585022 
	C656.887817,757.343384 658.803650,762.875366 654.973816,768.243530 
	C652.633484,767.192261 652.852722,764.871704 652.026184,763.244446 
	C649.639404,758.545593 646.988098,757.086060 642.022278,758.665710 
	C637.277405,760.175232 633.161255,758.459229 628.982239,756.842651 
	C623.252258,754.626282 618.012390,751.259644 611.877258,749.944092 
	C608.338501,749.185242 605.056396,749.309143 601.657532,750.691589 
	C603.583069,753.785400 606.245117,754.603394 609.679565,754.758667 
	C619.677246,755.210571 626.742981,763.846130 624.491760,773.588623 
	C620.687195,769.558960 617.717529,764.879028 611.624634,764.130127 
	C610.375488,769.613953 606.994690,769.862488 602.022095,768.452148 
	C598.499573,767.453125 594.465332,768.258545 590.151611,768.258545 
	C592.323730,773.843201 593.663635,779.004211 591.063660,784.247131 
	C588.391724,783.901306 588.468079,781.844421 587.760498,780.481934 
	C584.755371,774.695557 581.895630,773.327576 575.737061,775.485291 
	C571.957947,776.809204 568.478027,775.992004 565.007751,774.820435 
	C557.911499,772.424805 550.877258,769.846069 543.810181,767.363403 
	C541.922241,766.700195 539.963867,765.881470 537.966248,766.433228 
	C531.160156,768.313293 524.392334,769.661072 517.363525,767.410828 
	C515.714661,766.882996 514.241455,768.313049 512.722656,768.957397 
	C508.348419,770.812988 506.281830,769.917236 504.655884,765.505310 
	C502.537018,759.755981 499.664368,758.765503 494.601624,762.605164 
	C492.313568,764.340393 490.708130,766.975708 488.160492,768.784912 
	C486.479462,763.774475 487.926727,759.724487 490.855194,756.334045 
	C495.865112,750.533875 502.454681,748.756104 509.844940,750.206360 
	C513.425659,750.909058 516.906738,752.123657 520.427429,753.126099 
	C522.208496,753.633240 523.973328,754.018982 526.602417,752.563599 
	C513.107056,730.410339 493.445984,714.913879 472.513000,700.443054 
	C471.618744,701.668091 470.581238,703.089355 469.319763,704.817383 
	C466.122650,701.220154 465.865479,696.920410 465.113861,693.026306 
	C464.175232,688.163574 462.270142,687.584290 458.402557,690.076782 
	C457.071899,690.934204 455.617889,691.996826 453.400391,691.314697 
	C453.980896,686.355225 452.079803,686.066284 446.935089,685.596863 
	C441.422546,685.093872 438.712463,687.377075 435.339630,689.909546 
	C427.080536,696.110718 419.126251,702.726624 410.398041,708.284668 
	C408.344269,709.592407 406.378174,711.343201 403.639740,710.924805 
	C401.106567,705.306152 399.684357,704.715881 395.224457,709.073364 
	C387.725403,716.400146 380.753998,724.264404 373.487305,731.832214 
	C363.436798,742.299194 353.108673,752.480896 340.788635,760.324219 
	C335.552216,763.657898 330.047913,766.526733 323.437866,764.891907 
	C321.747070,764.473755 320.575073,765.487427 319.373413,766.366699 
	C312.049438,771.726501 304.127167,775.232605 294.781525,774.381958 
	C293.033386,774.222839 291.505280,774.929260 290.028107,775.694092 
	C280.594910,780.578308 270.405609,783.053589 260.051910,784.831116 
	C255.169388,785.669250 249.638611,786.737549 246.000229,782.285889 
	C242.098404,777.511963 244.864609,772.326477 247.044312,767.719727 
	C251.687622,757.906189 260.029053,750.904053 266.801300,742.710388 
	C270.494232,738.242371 274.379395,733.933167 277.520599,728.695740 
	C275.270874,730.173157 272.928955,731.528503 270.785950,733.147217 
	C252.708588,746.800476 234.686295,760.526733 216.598206,774.165710 
	C213.412949,776.567505 210.052078,778.751038 206.667801,780.868286 
	C204.853287,782.003418 202.837112,782.942261 200.244629,781.646790 
	C202.374725,772.987122 211.824997,766.880859 210.197250,754.801025 
	C217.524155,746.002014 226.212585,735.567932 235.067352,724.934082 
	C231.793076,723.727966 228.529388,725.689636 225.939941,723.337036 
	C225.511459,720.588623 227.833984,719.664246 229.380341,718.363403 
	C252.454361,698.952637 276.043640,680.138428 297.128601,658.463745 
	C309.929718,645.304565 322.248962,631.761047 332.692047,616.622131 
	C334.764801,613.617310 336.475464,610.349487 338.186279,607.114746 
	C338.870361,605.821289 339.395874,604.185364 338.047821,602.947449 
	C336.844208,601.842224 335.539917,602.692932 334.326141,603.201599 
	C332.022980,604.166565 329.793701,605.394287 327.406311,606.046265 
	C325.267944,606.630371 322.749115,607.694214 320.912933,605.364502 
	C319.295746,603.312561 320.460419,601.205994 321.305756,599.240234 
	C323.579956,593.951965 327.349640,589.702332 331.071899,585.424194 
	C334.522736,581.458069 337.945862,577.467834 341.407776,573.457458 
	C339.307251,571.560425 337.734497,572.547607 336.207153,572.896667 
	C334.318787,573.328430 332.459259,573.408447 331.163116,571.749084 
	C329.741516,569.929199 330.135559,567.847107 331.293304,566.130859 
	C333.336365,563.101990 335.381104,560.007141 337.871033,557.359131 
	C346.433136,548.253357 355.343994,539.489563 365.001801,530.994507 
M542.939270,694.628601 
	C536.166870,690.747742 529.952271,686.444458 528.543213,677.882629 
	C528.083191,675.087158 526.115906,675.123108 523.986755,676.237671 
	C520.004456,678.322205 516.009521,680.383118 512.040710,682.493042 
	C510.859436,683.120972 509.553223,683.854919 509.449371,685.330139 
	C508.838776,694.006104 507.935425,702.952271 514.236267,710.085388 
	C523.385498,720.443115 532.714539,730.682983 543.483154,739.435791 
	C546.391541,741.799866 549.223389,744.464661 553.253052,745.427856 
	C559.704590,733.437134 569.690247,730.635620 582.089355,734.032715 
	C584.172913,734.603577 586.285034,735.141418 588.419617,735.436707 
	C590.871826,735.776062 593.449646,736.109497 595.241882,733.263000 
	C593.174744,728.758728 589.186157,725.916016 585.547913,722.857178 
	C572.616882,711.985535 558.285095,703.194275 542.939270,694.628601 
M704.707947,286.883575 
	C702.245300,283.852295 699.346924,282.597961 695.531311,284.405365 
	C692.998840,285.604858 691.542236,287.427826 691.900269,290.268768 
	C692.299255,293.434967 694.372864,295.236664 697.315491,296.102203 
	C702.356201,297.585022 706.019897,293.521576 704.707947,286.883575 
M563.982849,744.273987 
	C561.965454,745.251404 559.815247,746.091614 558.972656,749.003784 
	C563.706177,750.581238 568.060547,752.094360 572.982971,750.909973 
	C570.478210,742.612122 570.478210,742.612122 563.982849,744.273987 
z"/>
</svg>