<svg version="1.1" id="Layer_1" xmlns="http://www.w3.org/2000/svg" xmlns:xlink="http://www.w3.org/1999/xlink" x="0px" y="0px"
	 width="100%" viewBox="0 0 2560 1792" enable-background="new 0 0 2560 1792" xml:space="preserve">
<path fill="#FFFFFF" opacity="1.000000" stroke="none" 
	d="
M1812.000000,1794.000000 
	C1208.069092,1794.000000 605.138306,1794.000000 2.103728,1794.000000 
	C2.103728,1196.804321 2.103728,599.608643 2.103728,2.206481 
	C855.097778,2.206481 1708.195557,2.206481 2561.646729,2.206481 
	C2561.646729,599.333191 2561.646729,1196.666626 2561.646729,1794.000000 
	C2312.274658,1794.000000 2062.637451,1794.000000 1812.000000,1794.000000 
M1600.540894,261.615936 
	C1589.383179,251.170990 1579.090698,240.106476 1574.499146,223.080917 
	C1567.856323,237.285675 1567.459839,249.481781 1574.660034,261.582275 
	C1578.909424,268.723633 1583.738525,275.566254 1587.438232,282.976898 
	C1592.178589,292.471985 1589.084961,299.166046 1578.963989,302.151398 
	C1572.925293,303.932648 1566.624268,304.811981 1560.460938,306.185944 
	C1548.501953,308.851929 1538.865845,314.912323 1533.129639,326.017090 
	C1527.383423,337.141510 1522.012085,348.459473 1515.889282,360.883759 
	C1535.135742,353.888855 1551.167480,360.949005 1566.479980,370.399323 
	C1575.185059,375.771698 1583.361816,382.000061 1591.977783,387.982758 
	C1592.440674,386.093353 1593.120972,383.884430 1593.513306,381.625488 
	C1597.103760,360.957458 1608.364624,346.492249 1627.890015,338.460846 
	C1632.792114,336.444519 1637.621460,334.069183 1642.107300,331.257477 
	C1654.381470,323.563995 1660.417480,312.366089 1659.934448,297.766235 
	C1659.526489,285.440460 1655.195312,274.493591 1648.832031,264.077728 
	C1640.426514,250.319199 1629.494263,237.674271 1629.394897,220.470352 
	C1609.390625,219.325500 1598.762207,230.045502 1601.632324,247.846863 
	C1602.261475,251.749588 1603.776245,255.509567 1604.137207,260.668182 
	C1603.315674,261.217987 1602.494141,261.767761 1600.540894,261.615936 
M1089.188110,474.902527 
	C1083.979492,462.414246 1074.680664,453.643036 1063.548950,446.472076 
	C1060.476440,444.492767 1057.783447,441.918701 1054.689087,439.980621 
	C1052.196655,438.419525 1049.480591,436.935852 1046.660156,436.220001 
	C1008.924500,426.642639 971.089539,417.447754 933.438660,407.551270 
	C924.929810,405.314697 919.637878,407.093475 914.924683,414.304108 
	C904.906433,429.631104 894.724304,444.871765 884.043457,459.741302 
	C826.329651,540.088745 768.441345,620.310791 710.616272,700.578247 
	C660.772156,769.767456 610.878906,838.921387 561.141357,908.187134 
	C552.623413,920.049316 544.777405,932.393982 536.055176,945.356628 
	C553.228760,958.181580 566.514893,974.977661 586.848206,982.889343 
	C587.918274,981.678406 588.872498,980.763550 589.636353,979.710571 
	C636.776245,914.732483 683.879395,849.727661 731.031372,784.758301 
	C794.033447,697.949402 857.069580,611.165222 920.107971,524.382690 
	C922.063354,521.690735 924.008118,518.945862 926.297363,516.550232 
	C932.913574,509.626678 942.389648,509.255798 949.488525,515.511597 
	C950.982788,516.828308 952.272217,518.378967 953.643494,519.833679 
	C993.873169,562.511780 1034.087036,605.204651 1074.361816,647.840088 
	C1076.989502,650.621765 1080.081909,652.964478 1084.045044,656.473938 
	C1086.628418,650.736023 1088.601807,646.352844 1091.459351,640.005798 
	C1092.617676,645.263062 1093.177490,648.172241 1093.903931,651.039185 
	C1097.541870,665.397461 1099.540283,680.432068 1112.968018,690.239685 
	C1115.526611,692.108521 1116.956543,696.349609 1117.682007,699.757080 
	C1120.730225,714.076599 1123.229004,728.512024 1126.092285,742.872375 
	C1128.624268,755.570251 1131.372681,768.224976 1134.015747,780.851868 
	C1157.432861,782.905640 1180.202881,784.902710 1203.743164,786.967285 
	C1206.787231,778.607178 1211.511719,771.206848 1211.613770,763.743225 
	C1211.710815,756.652771 1206.972778,749.496277 1204.360840,742.368835 
	C1209.998047,744.919434 1214.276245,748.412170 1218.488892,751.982239 
	C1222.911011,755.729675 1227.429321,756.889282 1233.202148,754.556763 
	C1239.962769,751.825256 1247.098267,749.998047 1254.127075,747.973083 
	C1255.665161,747.529907 1257.440063,747.908203 1259.105835,747.908203 
	C1251.738770,755.777649 1243.812500,762.106384 1235.505859,767.888672 
	C1231.390991,770.752991 1228.864502,774.056946 1227.874878,778.977173 
	C1226.366333,786.477234 1224.594360,793.936890 1222.594360,801.321655 
	C1220.981445,807.277039 1222.067383,811.648743 1226.568604,816.474670 
	C1264.979492,857.656494 1303.116333,899.095398 1341.104980,940.667542 
	C1344.805420,944.717224 1348.699585,946.593079 1353.885132,947.091003 
	C1367.146729,948.364319 1380.381958,949.909119 1393.637695,951.247253 
	C1411.862915,953.087158 1430.084961,954.979004 1448.333130,956.562622 
	C1456.901245,957.306091 1458.079590,955.900635 1458.142700,947.185730 
	C1458.162231,944.498596 1458.145752,941.811157 1458.145752,939.123901 
	C1462.116089,943.582397 1464.285156,948.438782 1467.336182,952.657166 
	C1469.334839,955.420288 1472.338989,958.677795 1475.362671,959.256042 
	C1485.712646,961.235413 1496.270386,962.128845 1506.455444,963.399841 
	C1510.535889,956.556702 1514.815796,950.862976 1517.540039,944.502991 
	C1523.310913,931.030029 1533.312378,927.516907 1546.695068,930.371704 
	C1547.019897,930.440979 1547.355835,930.457031 1547.685913,930.502625 
	C1581.004639,935.095520 1614.278442,940.055664 1647.661255,944.121826 
	C1663.520264,946.053528 1677.996948,950.555237 1691.389893,959.364502 
	C1699.988403,965.020142 1709.433716,969.371582 1718.327759,974.599548 
	C1726.780396,979.567993 1735.687988,978.437622 1744.528564,976.821289 
	C1746.716431,976.421265 1748.930176,974.042786 1750.352905,972.024536 
	C1753.221680,967.955139 1755.348145,963.367432 1758.150513,959.245056 
	C1765.337402,948.673706 1775.899658,947.772278 1785.066406,956.844421 
	C1792.171509,963.876343 1799.100830,971.087036 1806.253906,978.069031 
	C1816.942139,988.501587 1830.189575,987.807922 1839.638184,976.477417 
	C1841.131714,974.686279 1842.596924,972.868408 1844.154297,971.133911 
	C1852.746094,961.564819 1858.920044,961.251221 1868.787598,969.945618 
	C1875.536499,975.892090 1882.335083,981.791565 1888.871460,987.966003 
	C1891.984619,990.906677 1895.306763,992.337280 1899.560669,992.183960 
	C1904.485962,992.006470 1909.422363,992.142761 1913.616455,992.142761 
	C1917.740234,986.783142 1920.866089,982.011902 1924.702637,977.904175 
	C1930.140381,972.082031 1938.295044,971.671570 1944.487671,976.629944 
	C1947.857056,979.327637 1951.310669,982.168396 1953.869019,985.586304 
	C1963.459351,998.399109 1976.198364,1002.230835 1991.435059,999.709595 
	C1992.075562,999.603638 1992.707642,999.446167 1993.459229,999.288452 
	C2005.199585,981.683838 2016.980347,964.018433 2029.140015,945.784912 
	C2022.472168,939.766968 2016.131348,933.988403 2009.731201,928.276306 
	C1927.936279,855.276733 1846.098633,782.324768 1764.346436,709.277344 
	C1727.321533,676.194824 1690.480469,642.906616 1653.485229,609.790894 
	C1651.011230,607.576233 1649.009888,604.009033 1644.638306,604.642090 
	C1645.126221,639.348938 1645.774536,673.648743 1645.933472,707.950867 
	C1645.961304,713.958313 1647.820190,717.682190 1652.630615,721.100708 
	C1667.832520,731.903687 1682.756104,743.099365 1697.741821,754.204590 
	C1700.190430,756.019165 1702.408569,758.145081 1704.963013,760.323120 
	C1700.753174,763.882996 1698.262939,761.334412 1695.694946,760.390869 
	C1674.771729,752.703979 1653.884766,744.917847 1632.942505,737.283875 
	C1629.852295,736.157349 1626.567017,735.260498 1623.306396,734.952576 
	C1584.500854,731.287720 1545.700928,727.532532 1506.853638,724.363647 
	C1498.512939,723.683289 1492.358643,720.720215 1487.142700,714.456970 
	C1477.335815,702.681396 1467.312622,691.084106 1457.256470,679.519592 
	C1455.337158,677.312439 1453.099365,675.165405 1450.587769,673.722839 
	C1418.338989,655.200500 1386.013672,636.811279 1353.912964,616.610779 
	C1353.967407,616.016907 1354.021973,615.422974 1355.556152,615.393311 
	C1372.628662,621.595825 1389.697021,627.809631 1406.776489,633.993164 
	C1411.204712,635.596497 1415.667480,637.104675 1420.114258,638.656555 
	C1416.881226,631.829590 1412.774170,626.678040 1408.512817,621.657349 
	C1403.955322,616.287415 1402.023438,610.255249 1402.718872,603.187988 
	C1403.794189,592.257751 1404.629395,581.302551 1405.457520,570.349731 
	C1406.353027,558.506470 1407.123535,546.653748 1407.985474,534.275818 
	C1331.988647,513.865540 1256.864136,493.631622 1181.673340,473.646271 
	C1177.380371,472.505219 1172.415649,472.672211 1167.990356,473.477203 
	C1154.961182,475.847229 1143.140503,475.072052 1132.801758,465.295776 
	C1124.447754,457.396454 1113.043091,456.023560 1102.384644,453.772583 
	C1094.441528,452.095032 1089.639648,458.131958 1091.380737,466.369171 
	C1092.068237,469.621948 1092.870850,472.850311 1091.807495,476.007629 
	C1091.202271,476.006775 1090.597046,476.005951 1089.188110,474.902527 
M1098.145752,916.205994 
	C1100.625488,883.316711 1103.216797,850.435181 1105.509033,817.532837 
	C1106.108032,808.936035 1107.082031,800.047363 1105.628662,791.684631 
	C1101.127441,765.785278 1095.387939,740.103394 1090.508667,714.265503 
	C1089.584595,709.372375 1087.551880,705.682495 1084.269775,702.189270 
	C1037.717285,652.641541 991.226562,603.035706 944.693298,553.469849 
	C942.999878,551.666077 941.023987,550.127441 939.078979,548.374390 
	C937.812805,549.995850 936.961670,551.020813 936.179993,552.096191 
	C904.057129,596.286499 871.880859,640.438049 839.836426,684.684998 
	C781.802551,764.818115 723.878540,845.030823 665.764648,925.105713 
	C663.010803,928.900330 662.082947,932.554199 662.125366,937.048401 
	C662.291809,954.711853 662.251831,972.378052 662.178711,990.042786 
	C661.691528,1107.689087 661.231689,1225.335693 660.619995,1342.981445 
	C660.505798,1364.947388 659.745422,1386.909912 659.277527,1409.145020 
	C643.559692,1417.228271 632.703247,1429.542358 625.563721,1445.129517 
	C623.419250,1449.811401 619.584778,1450.947388 615.197510,1451.719971 
	C601.223450,1454.181152 588.375305,1459.535645 576.606628,1467.363525 
	C571.814087,1470.551270 567.442139,1474.371094 562.878784,1477.903442 
	C565.967346,1479.547729 568.173828,1479.553467 570.380249,1479.546875 
	C589.708923,1479.488892 609.054382,1478.900757 628.361755,1479.512695 
	C648.981567,1480.166138 669.714417,1480.817871 690.131104,1483.500732 
	C723.456787,1487.879761 756.557861,1493.958008 789.772034,1499.203003 
	C798.817444,1500.631470 807.928467,1501.644043 817.497314,1502.912109 
	C818.363708,1492.181519 819.220276,1482.591187 819.899048,1472.988525 
	C822.788391,1432.111816 825.694702,1391.235962 828.438171,1350.349365 
	C829.250610,1338.242188 831.628967,1326.736816 837.592041,1315.960327 
	C841.609924,1308.699219 844.178833,1300.618042 848.373779,1293.478271 
	C852.494080,1286.465820 852.388916,1280.015137 849.726074,1272.653442 
	C844.069214,1257.014282 838.561646,1241.295410 833.809814,1225.365479 
	C831.559082,1217.820312 830.271057,1209.730957 830.133057,1201.860352 
	C829.712341,1177.871338 829.986877,1153.868164 830.141357,1129.871460 
	C830.236389,1115.113403 838.040649,1106.947876 852.567505,1106.046387 
	C900.456787,1103.074097 948.345703,1100.096191 996.237122,1097.158081 
	C1013.212952,1096.116699 1021.835510,1104.148193 1021.759949,1121.250122 
	C1021.612793,1154.578491 1021.162964,1187.905396 1021.031738,1221.233887 
	C1020.623718,1324.888794 1020.303894,1428.543945 1019.979919,1532.199219 
	C1019.976013,1533.436890 1020.370544,1534.675903 1020.692627,1536.588379 
	C1098.981079,1549.480591 1177.112793,1562.347046 1255.673706,1575.284058 
	C1265.786133,1563.656128 1278.547974,1556.258179 1294.220215,1552.659668 
	C1294.220215,1540.656860 1293.631348,1529.004395 1294.401245,1517.442383 
	C1295.050903,1507.688110 1293.179565,1499.233398 1287.647827,1491.139893 
	C1282.664795,1483.849121 1278.567627,1475.952759 1273.783569,1467.820190 
	C1262.120728,1476.320923 1251.375244,1484.152954 1240.629883,1491.984863 
	C1240.087646,1491.390137 1239.545532,1490.795288 1239.003296,1490.200562 
	C1250.984741,1473.715576 1263.224731,1457.410889 1274.875977,1440.695679 
	C1286.852539,1423.513550 1298.254028,1405.930542 1309.939453,1388.474976 
	C1305.745117,1379.644043 1301.863647,1371.194580 1297.731323,1362.869751 
	C1295.009521,1357.386841 1293.864136,1351.791626 1293.872437,1345.605103 
	C1294.053223,1211.284058 1294.026855,1076.962891 1294.309937,942.642212 
	C1294.325806,935.089355 1292.230835,929.656128 1287.084473,924.157837 
	C1254.746460,889.607727 1222.649658,854.829407 1190.775146,819.851379 
	C1187.125000,815.845825 1183.064331,815.001221 1178.506714,814.554626 
	C1165.905518,813.320068 1153.284912,812.278198 1140.664673,811.249451 
	C1138.086426,811.039307 1135.476318,811.219055 1132.665649,811.219055 
	C1128.362915,826.024536 1124.126831,840.361206 1120.034546,854.738770 
	C1114.029175,875.837036 1108.126709,896.964478 1100.873291,918.231567 
	C1100.002808,918.125366 1099.132324,918.019165 1098.145752,916.205994 
M1715.868530,1005.810486 
	C1710.131714,1003.190491 1704.222168,1000.888062 1698.694214,997.883728 
	C1687.582764,991.844666 1676.741577,985.309082 1665.650146,979.231750 
	C1662.533325,977.523926 1659.024414,976.088623 1655.539795,975.566650 
	C1633.147461,972.212219 1610.718506,969.098206 1588.288086,966.002869 
	C1573.158203,963.914978 1558.006348,961.987488 1542.922974,959.996033 
	C1537.680176,968.340515 1532.884766,976.320618 1527.737671,984.066956 
	C1522.695190,991.655640 1515.669067,995.143677 1506.336914,993.678284 
	C1499.102173,992.542236 1491.807739,991.758423 1484.522705,990.977051 
	C1449.422363,987.212158 1414.245239,984.053406 1379.240967,979.547668 
	C1360.622925,977.151184 1340.785889,980.013916 1323.405029,967.804016 
	C1323.405029,972.997192 1323.405640,977.317688 1323.405029,981.638184 
	C1323.389038,1093.938354 1323.768066,1206.241211 1323.002686,1318.536255 
	C1322.859863,1339.494019 1325.333984,1358.746216 1336.775635,1376.432007 
	C1337.313843,1377.264282 1337.800903,1378.172363 1338.094727,1379.113037 
	C1339.812866,1384.613647 1343.707520,1387.678467 1348.848511,1390.010742 
	C1355.748657,1393.141113 1362.331665,1396.971191 1369.050781,1400.500854 
	C1360.404419,1401.244507 1352.456665,1400.332520 1344.489868,1400.113281 
	C1341.869995,1400.041260 1338.063477,1400.943237 1336.731323,1402.791748 
	C1324.487793,1419.782349 1312.669189,1437.078857 1300.642944,1454.407104 
	C1307.002441,1466.122681 1312.889893,1477.286377 1319.092896,1488.272095 
	C1322.615723,1494.511108 1324.532959,1500.846436 1324.306152,1508.166504 
	C1323.885254,1521.754150 1324.185669,1535.364258 1324.185669,1549.129150 
	C1326.230957,1549.580078 1327.463989,1549.922974 1328.720093,1550.118286 
	C1357.992676,1554.665894 1387.256714,1559.272949 1416.557251,1563.633545 
	C1420.073975,1564.156738 1423.854736,1563.686279 1427.407593,1563.069336 
	C1475.280518,1554.756714 1523.119263,1546.245483 1570.997925,1537.966797 
	C1624.133057,1528.779297 1677.238525,1519.392944 1730.474976,1510.827148 
	C1768.923706,1504.640503 1807.441162,1498.446655 1846.155151,1494.463867 
	C1886.546143,1490.308350 1927.209839,1488.806763 1967.751709,1486.106445 
	C1969.790161,1485.970825 1971.804199,1485.470093 1974.610718,1485.011841 
	C1967.404297,1476.328491 1959.940186,1469.790405 1950.888184,1465.242554 
	C1939.897339,1459.720825 1928.700195,1454.598511 1917.831055,1448.851929 
	C1914.501099,1447.091431 1911.209106,1444.325073 1909.197266,1441.187500 
	C1903.955933,1433.013062 1898.708252,1424.998291 1891.334839,1420.594482 
	C1884.524902,1287.280762 1888.887817,1155.133789 1894.590698,1023.774597 
	C1887.465454,1020.294983 1880.991455,1017.722229 1875.152466,1014.120178 
	C1869.010986,1010.331665 1863.476807,1005.558533 1857.783569,1001.295105 
	C1838.147949,1018.174316 1806.071289,1022.011230 1782.924683,996.856934 
	C1780.523560,994.247559 1777.885742,991.856079 1774.739746,988.754150 
	C1768.703125,999.362671 1759.317627,1003.371399 1749.105469,1006.027466 
	C1738.583374,1008.764282 1728.041870,1008.941162 1715.868530,1005.810486 
M1537.623657,388.725037 
	C1516.874146,386.756683 1502.928955,397.330750 1499.531738,417.533661 
	C1496.188599,437.414246 1492.783203,457.284363 1489.405273,477.159119 
	C1487.560791,474.796875 1486.665649,472.369415 1486.308472,469.865204 
	C1484.804810,459.315247 1484.081787,448.611206 1481.881958,438.215607 
	C1479.760132,428.188751 1476.426758,418.385376 1473.101685,408.662994 
	C1471.854736,405.017212 1469.654785,401.035217 1464.377686,402.330231 
	C1458.007812,403.893372 1451.675049,405.608521 1446.221680,407.025238 
	C1445.009399,432.764557 1444.279785,457.389374 1442.592529,481.948364 
	C1440.036011,519.158325 1437.038330,556.342773 1433.695801,593.490112 
	C1432.972290,601.529663 1435.244873,607.459045 1440.278320,613.328918 
	C1462.184937,638.876587 1483.937500,664.557739 1505.551025,690.353882 
	C1508.625366,694.023010 1511.985596,695.468262 1516.601929,695.857422 
	C1536.515991,697.536194 1556.397583,699.594421 1576.303467,701.377380 
	C1589.452637,702.555054 1602.622803,703.499634 1616.603882,704.613953 
	C1616.603882,701.007141 1616.638550,698.425293 1616.598511,695.844604 
	C1615.797974,644.205627 1614.998169,592.566467 1614.149902,540.928284 
	C1614.112183,538.638794 1614.267090,535.991089 1613.224976,534.130493 
	C1606.072754,521.362183 1603.883423,505.613892 1590.395996,496.259613 
	C1594.791016,496.556702 1598.534668,497.593628 1602.237915,498.759308 
	C1608.676758,500.786072 1613.259277,499.154785 1616.278564,493.172302 
	C1617.444702,490.861908 1618.075806,488.153503 1618.384155,485.559113 
	C1620.348999,469.029968 1622.206787,452.487457 1623.958130,435.934326 
	C1624.220459,433.454742 1623.739136,430.896454 1623.595947,428.267151 
	C1621.166748,428.104675 1619.522217,427.884308 1617.880249,427.902466 
	C1605.324463,428.041138 1602.362305,430.066223 1597.805298,441.517151 
	C1591.777466,456.663513 1585.780884,471.822540 1579.686890,486.942291 
	C1578.917358,488.851593 1577.639648,490.556122 1576.597290,492.355530 
	C1575.290894,490.056793 1575.198120,488.176331 1575.305664,486.307404 
	C1576.185547,471.010895 1576.919800,455.702850 1578.057007,440.425049 
	C1579.388794,422.531677 1573.361694,408.588776 1557.324585,399.603821 
	C1551.234985,396.192078 1545.191895,392.697418 1537.623657,388.725037 
M1422.598633,639.213623 
	C1422.598633,639.213623 1422.807129,638.911011 1422.807129,638.911011 
	C1422.807129,638.911011 1422.313721,638.947144 1422.598633,639.213623 
z"/>
<path fill="#010101" opacity="1.000000" stroke="none" 
	d="
M1102.180298,918.079407 
	C1108.126709,896.964478 1114.029175,875.837036 1120.034546,854.738770 
	C1124.126831,840.361206 1128.362915,826.024536 1132.665649,811.219055 
	C1135.476318,811.219055 1138.086426,811.039307 1140.664673,811.249451 
	C1153.284912,812.278198 1165.905518,813.320068 1178.506714,814.554626 
	C1183.064331,815.001221 1187.125000,815.845825 1190.775146,819.851379 
	C1222.649658,854.829407 1254.746460,889.607727 1287.084473,924.157837 
	C1292.230835,929.656128 1294.325806,935.089355 1294.309937,942.642212 
	C1294.026855,1076.962891 1294.053223,1211.284058 1293.872437,1345.605103 
	C1293.864136,1351.791626 1295.009521,1357.386841 1297.731323,1362.869751 
	C1301.863647,1371.194580 1305.745117,1379.644043 1309.939453,1388.474976 
	C1298.254028,1405.930542 1286.852539,1423.513550 1274.875977,1440.695679 
	C1263.224731,1457.410889 1250.984741,1473.715576 1239.003296,1490.200562 
	C1239.545532,1490.795288 1240.087646,1491.390137 1240.629883,1491.984863 
	C1251.375244,1484.152954 1262.120728,1476.320923 1273.783569,1467.820190 
	C1278.567627,1475.952759 1282.664795,1483.849121 1287.647827,1491.139893 
	C1293.179565,1499.233398 1295.050903,1507.688110 1294.401245,1517.442383 
	C1293.631348,1529.004395 1294.220215,1540.656860 1294.220215,1552.659668 
	C1278.547974,1556.258179 1265.786133,1563.656128 1255.673706,1575.284058 
	C1177.112793,1562.347046 1098.981079,1549.480591 1020.692627,1536.588379 
	C1020.370544,1534.675903 1019.976013,1533.436890 1019.979919,1532.199219 
	C1020.303894,1428.543945 1020.623718,1324.888794 1021.031738,1221.233887 
	C1021.162964,1187.905396 1021.612793,1154.578491 1021.759949,1121.250122 
	C1021.835510,1104.148193 1013.212952,1096.116699 996.237122,1097.158081 
	C948.345703,1100.096191 900.456787,1103.074097 852.567505,1106.046387 
	C838.040649,1106.947876 830.236389,1115.113403 830.141357,1129.871460 
	C829.986877,1153.868164 829.712341,1177.871338 830.133057,1201.860352 
	C830.271057,1209.730957 831.559082,1217.820312 833.809814,1225.365479 
	C838.561646,1241.295410 844.069214,1257.014282 849.726074,1272.653442 
	C852.388916,1280.015137 852.494080,1286.465820 848.373779,1293.478271 
	C844.178833,1300.618042 841.609924,1308.699219 837.592041,1315.960327 
	C831.628967,1326.736816 829.250610,1338.242188 828.438171,1350.349365 
	C825.694702,1391.235962 822.788391,1432.111816 819.899048,1472.988525 
	C819.220276,1482.591187 818.363708,1492.181519 817.497314,1502.912109 
	C807.928467,1501.644043 798.817444,1500.631470 789.772034,1499.203003 
	C756.557861,1493.958008 723.456787,1487.879761 690.131104,1483.500732 
	C669.714417,1480.817871 648.981567,1480.166138 628.361755,1479.512695 
	C609.054382,1478.900757 589.708923,1479.488892 570.380249,1479.546875 
	C568.173828,1479.553467 565.967346,1479.547729 562.878784,1477.903442 
	C567.442139,1474.371094 571.814087,1470.551270 576.606628,1467.363525 
	C588.375305,1459.535645 601.223450,1454.181152 615.197510,1451.719971 
	C619.584778,1450.947388 623.419250,1449.811401 625.563721,1445.129517 
	C632.703247,1429.542358 643.559692,1417.228271 659.277527,1409.145020 
	C659.745422,1386.909912 660.505798,1364.947388 660.619995,1342.981445 
	C661.231689,1225.335693 661.691528,1107.689087 662.178711,990.042786 
	C662.251831,972.378052 662.291809,954.711853 662.125366,937.048401 
	C662.082947,932.554199 663.010803,928.900330 665.764648,925.105713 
	C723.878540,845.030823 781.802551,764.818115 839.836426,684.684998 
	C871.880859,640.438049 904.057129,596.286499 936.179993,552.096191 
	C936.961670,551.020813 937.812805,549.995850 939.078979,548.374390 
	C941.023987,550.127441 942.999878,551.666077 944.693298,553.469849 
	C991.226562,603.035706 1037.717285,652.641541 1084.269775,702.189270 
	C1087.551880,705.682495 1089.584595,709.372375 1090.508667,714.265503 
	C1095.387939,740.103394 1101.127441,765.785278 1105.628662,791.684631 
	C1107.082031,800.047363 1106.108032,808.936035 1105.509033,817.532837 
	C1103.216797,850.435181 1100.625488,883.316711 1097.924316,917.838257 
	C1097.554810,922.221802 1097.406860,924.973022 1096.805176,928.256531 
	C1096.351685,931.368408 1096.351685,933.948059 1096.351685,936.527710 
	C1096.938843,936.547791 1097.526001,936.567932 1098.113159,936.588013 
	C1098.565186,934.866882 1099.017090,933.145813 1099.664551,930.693970 
	C1100.633545,926.001892 1101.406860,922.040649 1102.180298,918.079407 
M1235.746704,1493.647461 
	C1235.458984,1494.086060 1235.171387,1494.524780 1234.883667,1494.963379 
	C1235.700684,1495.147339 1236.517822,1495.331177 1237.334839,1495.515137 
	C1237.299683,1494.738770 1237.264648,1493.962280 1235.746704,1493.647461 
z"/>
<path fill="#010101" opacity="1.000000" stroke="none" 
	d="
M1353.707764,618.388367 
	C1386.013672,636.811279 1418.338989,655.200500 1450.587769,673.722839 
	C1453.099365,675.165405 1455.337158,677.312439 1457.256470,679.519592 
	C1467.312622,691.084106 1477.335815,702.681396 1487.142700,714.456970 
	C1492.358643,720.720215 1498.512939,723.683289 1506.853638,724.363647 
	C1545.700928,727.532532 1584.500854,731.287720 1623.306396,734.952576 
	C1626.567017,735.260498 1629.852295,736.157349 1632.942505,737.283875 
	C1653.884766,744.917847 1674.771729,752.703979 1695.694946,760.390869 
	C1698.262939,761.334412 1700.753174,763.882996 1704.963013,760.323120 
	C1702.408569,758.145081 1700.190430,756.019165 1697.741821,754.204590 
	C1682.756104,743.099365 1667.832520,731.903687 1652.630615,721.100708 
	C1647.820190,717.682190 1645.961304,713.958313 1645.933472,707.950867 
	C1645.774536,673.648743 1645.126221,639.348938 1644.638306,604.642090 
	C1649.009888,604.009033 1651.011230,607.576233 1653.485229,609.790894 
	C1690.480469,642.906616 1727.321533,676.194824 1764.346436,709.277344 
	C1846.098633,782.324768 1927.936279,855.276733 2009.731201,928.276306 
	C2016.131348,933.988403 2022.472168,939.766968 2029.140015,945.784912 
	C2016.980347,964.018433 2005.199585,981.683838 1993.459229,999.288452 
	C1992.707642,999.446167 1992.075562,999.603638 1991.435059,999.709595 
	C1976.198364,1002.230835 1963.459351,998.399109 1953.869019,985.586304 
	C1951.310669,982.168396 1947.857056,979.327637 1944.487671,976.629944 
	C1938.295044,971.671570 1930.140381,972.082031 1924.702637,977.904175 
	C1920.866089,982.011902 1917.740234,986.783142 1913.616455,992.142761 
	C1909.422363,992.142761 1904.485962,992.006470 1899.560669,992.183960 
	C1895.306763,992.337280 1891.984619,990.906677 1888.871460,987.966003 
	C1882.335083,981.791565 1875.536499,975.892090 1868.787598,969.945618 
	C1858.920044,961.251221 1852.746094,961.564819 1844.154297,971.133911 
	C1842.596924,972.868408 1841.131714,974.686279 1839.638184,976.477417 
	C1830.189575,987.807922 1816.942139,988.501587 1806.253906,978.069031 
	C1799.100830,971.087036 1792.171509,963.876343 1785.066406,956.844421 
	C1775.899658,947.772278 1765.337402,948.673706 1758.150513,959.245056 
	C1755.348145,963.367432 1753.221680,967.955139 1750.352905,972.024536 
	C1748.930176,974.042786 1746.716431,976.421265 1744.528564,976.821289 
	C1735.687988,978.437622 1726.780396,979.567993 1718.327759,974.599548 
	C1709.433716,969.371582 1699.988403,965.020142 1691.389893,959.364502 
	C1677.996948,950.555237 1663.520264,946.053528 1647.661255,944.121826 
	C1614.278442,940.055664 1581.004639,935.095520 1547.685913,930.502625 
	C1547.355835,930.457031 1547.019897,930.440979 1546.695068,930.371704 
	C1533.312378,927.516907 1523.310913,931.030029 1517.540039,944.502991 
	C1514.815796,950.862976 1510.535889,956.556702 1506.455444,963.399841 
	C1496.270386,962.128845 1485.712646,961.235413 1475.362671,959.256042 
	C1472.338989,958.677795 1469.334839,955.420288 1467.336182,952.657166 
	C1464.285156,948.438782 1462.116089,943.582397 1458.145752,939.123901 
	C1458.145752,941.811157 1458.162231,944.498596 1458.142700,947.185730 
	C1458.079590,955.900635 1456.901245,957.306091 1448.333130,956.562622 
	C1430.084961,954.979004 1411.862915,953.087158 1393.637695,951.247253 
	C1380.381958,949.909119 1367.146729,948.364319 1353.885132,947.091003 
	C1348.699585,946.593079 1344.805420,944.717224 1341.104980,940.667542 
	C1303.116333,899.095398 1264.979492,857.656494 1226.568604,816.474670 
	C1222.067383,811.648743 1220.981445,807.277039 1222.594360,801.321655 
	C1224.594360,793.936890 1226.366333,786.477234 1227.874878,778.977173 
	C1228.864502,774.056946 1231.390991,770.752991 1235.505859,767.888672 
	C1243.812500,762.106384 1251.738770,755.777649 1259.105835,747.908203 
	C1257.440063,747.908203 1255.665161,747.529907 1254.127075,747.973083 
	C1247.098267,749.998047 1239.962769,751.825256 1233.202148,754.556763 
	C1227.429321,756.889282 1222.911011,755.729675 1218.488892,751.982239 
	C1214.276245,748.412170 1209.998047,744.919434 1204.360840,742.368835 
	C1206.972778,749.496277 1211.710815,756.652771 1211.613770,763.743225 
	C1211.511719,771.206848 1206.787231,778.607178 1203.743164,786.967285 
	C1180.202881,784.902710 1157.432861,782.905640 1134.015747,780.851868 
	C1131.372681,768.224976 1128.624268,755.570251 1126.092285,742.872375 
	C1123.229004,728.512024 1120.730225,714.076599 1117.682007,699.757080 
	C1116.956543,696.349609 1115.526611,692.108521 1112.968018,690.239685 
	C1099.540283,680.432068 1097.541870,665.397461 1093.903931,651.039185 
	C1093.177490,648.172241 1092.617676,645.263062 1091.459351,640.005798 
	C1088.601807,646.352844 1086.628418,650.736023 1084.045044,656.473938 
	C1080.081909,652.964478 1076.989502,650.621765 1074.361816,647.840088 
	C1034.087036,605.204651 993.873169,562.511780 953.643494,519.833679 
	C952.272217,518.378967 950.982788,516.828308 949.488525,515.511597 
	C942.389648,509.255798 932.913574,509.626678 926.297363,516.550232 
	C924.008118,518.945862 922.063354,521.690735 920.107971,524.382690 
	C857.069580,611.165222 794.033447,697.949402 731.031372,784.758301 
	C683.879395,849.727661 636.776245,914.732483 589.636353,979.710571 
	C588.872498,980.763550 587.918274,981.678406 586.848206,982.889343 
	C566.514893,974.977661 553.228760,958.181580 536.055176,945.356628 
	C544.777405,932.393982 552.623413,920.049316 561.141357,908.187134 
	C610.878906,838.921387 660.772156,769.767456 710.616272,700.578247 
	C768.441345,620.310791 826.329651,540.088745 884.043457,459.741302 
	C894.724304,444.871765 904.906433,429.631104 914.924683,414.304108 
	C919.637878,407.093475 924.929810,405.314697 933.438660,407.551270 
	C971.089539,417.447754 1008.924500,426.642639 1046.660156,436.220001 
	C1049.480591,436.935852 1052.196655,438.419525 1054.689087,439.980621 
	C1057.783447,441.918701 1060.476440,444.492767 1063.548950,446.472076 
	C1074.680664,453.643036 1083.979492,462.414246 1089.611816,476.126312 
	C1091.579224,479.457764 1093.123047,481.565460 1094.666870,483.673126 
	C1095.130005,483.403046 1095.593140,483.132935 1096.056274,482.862823 
	C1095.244507,480.605164 1094.432861,478.347473 1093.621094,476.089813 
	C1092.870850,472.850311 1092.068237,469.621948 1091.380737,466.369171 
	C1089.639648,458.131958 1094.441528,452.095032 1102.384644,453.772583 
	C1113.043091,456.023560 1124.447754,457.396454 1132.801758,465.295776 
	C1143.140503,475.072052 1154.961182,475.847229 1167.990356,473.477203 
	C1172.415649,472.672211 1177.380371,472.505219 1181.673340,473.646271 
	C1256.864136,493.631622 1331.988647,513.865540 1407.985474,534.275818 
	C1407.123535,546.653748 1406.353027,558.506470 1405.457520,570.349731 
	C1404.629395,581.302551 1403.794189,592.257751 1402.718872,603.187988 
	C1402.023438,610.255249 1403.955322,616.287415 1408.512817,621.657349 
	C1412.774170,626.678040 1416.881226,631.829590 1420.114258,638.656555 
	C1415.667480,637.104675 1411.204712,635.596497 1406.776489,633.993164 
	C1389.697021,627.809631 1372.628662,621.595825 1354.413574,614.661499 
	C1350.983887,613.137939 1348.696777,612.346130 1345.983765,611.039429 
	C1342.922119,609.628235 1340.286621,608.731934 1337.651001,607.835571 
	C1337.443481,608.367615 1337.236084,608.899658 1337.028687,609.431641 
	C1338.974731,610.356201 1340.920898,611.280762 1343.381958,612.683594 
	C1347.167114,614.903992 1350.437500,616.646179 1353.707764,618.388367 
M1707.700317,761.405579 
	C1704.495605,761.698181 1704.150391,762.928040 1707.580078,765.917236 
	C1709.555908,766.481323 1711.531616,767.045349 1713.507446,767.609436 
	C1713.678711,767.220764 1713.849976,766.832153 1714.021362,766.443481 
	C1712.315430,765.064819 1710.609497,763.686096 1707.700317,761.405579 
M1263.493774,748.107483 
	C1264.755371,747.124329 1266.016968,746.141235 1267.278564,745.158142 
	C1267.108887,744.684021 1266.939087,744.209839 1266.769409,743.735718 
	C1264.344849,744.635742 1261.920410,745.535767 1259.495850,746.435852 
	C1260.313110,747.225037 1261.130371,748.014160 1263.493774,748.107483 
z"/>
<path fill="#010101" opacity="1.000000" stroke="none" 
	d="
M1716.683594,1005.961121 
	C1728.041870,1008.941162 1738.583374,1008.764282 1749.105469,1006.027466 
	C1759.317627,1003.371399 1768.703125,999.362671 1774.739746,988.754150 
	C1777.885742,991.856079 1780.523560,994.247559 1782.924683,996.856934 
	C1806.071289,1022.011230 1838.147949,1018.174316 1857.783569,1001.295105 
	C1863.476807,1005.558533 1869.010986,1010.331665 1875.152466,1014.120178 
	C1880.991455,1017.722229 1887.465454,1020.294983 1894.590698,1023.774597 
	C1888.887817,1155.133789 1884.524902,1287.280762 1891.334839,1420.594482 
	C1898.708252,1424.998291 1903.955933,1433.013062 1909.197266,1441.187500 
	C1911.209106,1444.325073 1914.501099,1447.091431 1917.831055,1448.851929 
	C1928.700195,1454.598511 1939.897339,1459.720825 1950.888184,1465.242554 
	C1959.940186,1469.790405 1967.404297,1476.328491 1974.610718,1485.011841 
	C1971.804199,1485.470093 1969.790161,1485.970825 1967.751709,1486.106445 
	C1927.209839,1488.806763 1886.546143,1490.308350 1846.155151,1494.463867 
	C1807.441162,1498.446655 1768.923706,1504.640503 1730.474976,1510.827148 
	C1677.238525,1519.392944 1624.133057,1528.779297 1570.997925,1537.966797 
	C1523.119263,1546.245483 1475.280518,1554.756714 1427.407593,1563.069336 
	C1423.854736,1563.686279 1420.073975,1564.156738 1416.557251,1563.633545 
	C1387.256714,1559.272949 1357.992676,1554.665894 1328.720093,1550.118286 
	C1327.463989,1549.922974 1326.230957,1549.580078 1324.185669,1549.129150 
	C1324.185669,1535.364258 1323.885254,1521.754150 1324.306152,1508.166504 
	C1324.532959,1500.846436 1322.615723,1494.511108 1319.092896,1488.272095 
	C1312.889893,1477.286377 1307.002441,1466.122681 1300.642944,1454.407104 
	C1312.669189,1437.078857 1324.487793,1419.782349 1336.731323,1402.791748 
	C1338.063477,1400.943237 1341.869995,1400.041260 1344.489868,1400.113281 
	C1352.456665,1400.332520 1360.404419,1401.244507 1369.050781,1400.500854 
	C1362.331665,1396.971191 1355.748657,1393.141113 1348.848511,1390.010742 
	C1343.707520,1387.678467 1339.812866,1384.613647 1338.094727,1379.113037 
	C1337.800903,1378.172363 1337.313843,1377.264282 1336.775635,1376.432007 
	C1325.333984,1358.746216 1322.859863,1339.494019 1323.002686,1318.536255 
	C1323.768066,1206.241211 1323.389038,1093.938354 1323.405029,981.638184 
	C1323.405640,977.317688 1323.405029,972.997192 1323.405029,967.804016 
	C1340.785889,980.013916 1360.622925,977.151184 1379.240967,979.547668 
	C1414.245239,984.053406 1449.422363,987.212158 1484.522705,990.977051 
	C1491.807739,991.758423 1499.102173,992.542236 1506.336914,993.678284 
	C1515.669067,995.143677 1522.695190,991.655640 1527.737671,984.066956 
	C1532.884766,976.320618 1537.680176,968.340515 1542.922974,959.996033 
	C1558.006348,961.987488 1573.158203,963.914978 1588.288086,966.002869 
	C1610.718506,969.098206 1633.147461,972.212219 1655.539795,975.566650 
	C1659.024414,976.088623 1662.533325,977.523926 1665.650146,979.231750 
	C1676.741577,985.309082 1687.582764,991.844666 1698.694214,997.883728 
	C1704.222168,1000.888062 1710.131714,1003.190491 1716.683594,1005.961121 
M1723.874512,1105.949829 
	C1721.223022,1095.290649 1717.062622,1091.094360 1707.429810,1090.307617 
	C1673.239380,1087.514771 1639.044922,1084.757324 1604.833252,1082.242065 
	C1590.154541,1081.162842 1584.371216,1086.245972 1581.798096,1100.855347 
	C1573.487305,1148.039673 1565.062500,1195.203979 1556.712524,1242.381470 
	C1553.522095,1260.407715 1550.201782,1278.414917 1547.347534,1296.495117 
	C1545.556274,1307.842407 1551.626343,1315.739014 1562.930298,1316.126587 
	C1570.101685,1316.372559 1577.437622,1315.148071 1584.518311,1313.697388 
	C1590.668945,1312.437012 1596.791748,1310.439941 1602.527954,1307.876099 
	C1616.102417,1301.808716 1628.769653,1302.996216 1641.511841,1310.414429 
	C1645.619385,1312.805664 1650.839478,1314.261353 1655.592163,1314.373291 
	C1666.896729,1314.639771 1678.237305,1314.051025 1689.542725,1313.429810 
	C1702.391235,1312.723877 1707.112549,1307.755981 1708.206299,1294.829956 
	C1710.340210,1269.610107 1712.589600,1244.400146 1714.698853,1219.178345 
	C1717.806885,1182.013672 1720.834229,1144.842163 1723.874512,1105.949829 
z"/>
<path fill="#020202" opacity="1.000000" stroke="none" 
	d="
M1538.375610,388.982788 
	C1545.191895,392.697418 1551.234985,396.192078 1557.324585,399.603821 
	C1573.361694,408.588776 1579.388794,422.531677 1578.057007,440.425049 
	C1576.919800,455.702850 1576.185547,471.010895 1575.305664,486.307404 
	C1575.198120,488.176331 1575.290894,490.056793 1576.597290,492.355530 
	C1577.639648,490.556122 1578.917358,488.851593 1579.686890,486.942291 
	C1585.780884,471.822540 1591.777466,456.663513 1597.805298,441.517151 
	C1602.362305,430.066223 1605.324463,428.041138 1617.880249,427.902466 
	C1619.522217,427.884308 1621.166748,428.104675 1623.595947,428.267151 
	C1623.739136,430.896454 1624.220459,433.454742 1623.958130,435.934326 
	C1622.206787,452.487457 1620.348999,469.029968 1618.384155,485.559113 
	C1618.075806,488.153503 1617.444702,490.861908 1616.278564,493.172302 
	C1613.259277,499.154785 1608.676758,500.786072 1602.237915,498.759308 
	C1598.534668,497.593628 1594.791016,496.556702 1590.395996,496.259613 
	C1603.883423,505.613892 1606.072754,521.362183 1613.224976,534.130493 
	C1614.267090,535.991089 1614.112183,538.638794 1614.149902,540.928284 
	C1614.998169,592.566467 1615.797974,644.205627 1616.598511,695.844604 
	C1616.638550,698.425293 1616.603882,701.007141 1616.603882,704.613953 
	C1602.622803,703.499634 1589.452637,702.555054 1576.303467,701.377380 
	C1556.397583,699.594421 1536.515991,697.536194 1516.601929,695.857422 
	C1511.985596,695.468262 1508.625366,694.023010 1505.551025,690.353882 
	C1483.937500,664.557739 1462.184937,638.876587 1440.278320,613.328918 
	C1435.244873,607.459045 1432.972290,601.529663 1433.695801,593.490112 
	C1437.038330,556.342773 1440.036011,519.158325 1442.592529,481.948364 
	C1444.279785,457.389374 1445.009399,432.764557 1446.221680,407.025238 
	C1451.675049,405.608521 1458.007812,403.893372 1464.377686,402.330231 
	C1469.654785,401.035217 1471.854736,405.017212 1473.101685,408.662994 
	C1476.426758,418.385376 1479.760132,428.188751 1481.881958,438.215607 
	C1484.081787,448.611206 1484.804810,459.315247 1486.308472,469.865204 
	C1486.665649,472.369415 1487.560791,474.796875 1489.405273,477.159119 
	C1492.783203,457.284363 1496.188599,437.414246 1499.531738,417.533661 
	C1502.928955,397.330750 1516.874146,386.756683 1538.375610,388.982788 
M1574.732056,494.891907 
	C1574.732056,494.891907 1575.220947,495.229034 1575.220947,495.229034 
	C1575.220947,495.229034 1575.168335,494.450256 1574.732056,494.891907 
z"/>
<path fill="#040404" opacity="1.000000" stroke="none" 
	d="
M1604.883301,259.335266 
	C1603.776245,255.509567 1602.261475,251.749588 1601.632324,247.846863 
	C1598.762207,230.045502 1609.390625,219.325500 1629.394897,220.470352 
	C1629.494263,237.674271 1640.426514,250.319199 1648.832031,264.077728 
	C1655.195312,274.493591 1659.526489,285.440460 1659.934448,297.766235 
	C1660.417480,312.366089 1654.381470,323.563995 1642.107300,331.257477 
	C1637.621460,334.069183 1632.792114,336.444519 1627.890015,338.460846 
	C1608.364624,346.492249 1597.103760,360.957458 1593.513306,381.625488 
	C1593.120972,383.884430 1592.440674,386.093353 1591.977783,387.982758 
	C1583.361816,382.000061 1575.185059,375.771698 1566.479980,370.399323 
	C1551.167480,360.949005 1535.135742,353.888855 1515.889282,360.883759 
	C1522.012085,348.459473 1527.383423,337.141510 1533.129639,326.017090 
	C1538.865845,314.912323 1548.501953,308.851929 1560.460938,306.185944 
	C1566.624268,304.811981 1572.925293,303.932648 1578.963989,302.151398 
	C1589.084961,299.166046 1592.178589,292.471985 1587.438232,282.976898 
	C1583.738525,275.566254 1578.909424,268.723633 1574.660034,261.582275 
	C1567.459839,249.481781 1567.856323,237.285675 1574.499146,223.080917 
	C1579.090698,240.106476 1589.383179,251.170990 1601.372314,262.658386 
	C1603.888306,264.773560 1605.572876,265.846283 1607.257446,266.918976 
	C1607.656250,266.524414 1608.054932,266.129822 1608.453613,265.735260 
	C1607.263550,263.601929 1606.073364,261.468597 1604.883301,259.335266 
z"/>
<path fill="#C0C0C0" opacity="1.000000" stroke="none" 
	d="
M1097.258789,927.724304 
	C1097.406860,924.973022 1097.554810,922.221802 1097.982422,918.691711 
	C1099.132324,918.019165 1100.002808,918.125366 1101.526733,918.155518 
	C1101.406860,922.040649 1100.633545,926.001892 1099.273438,930.313599 
	C1098.210693,929.684143 1097.734741,928.704224 1097.258789,927.724304 
z"/>
<path fill="#B5B5B3" opacity="1.000000" stroke="none" 
	d="
M1353.810303,617.499573 
	C1350.437500,616.646179 1347.167114,614.903992 1344.282227,612.598877 
	C1345.248291,611.875488 1345.829102,611.714966 1346.409790,611.554382 
	C1348.696777,612.346130 1350.983887,613.137939 1353.673828,614.379395 
	C1354.021973,615.422974 1353.967407,616.016907 1353.810303,617.499573 
z"/>
<path fill="#AAAAAA" opacity="1.000000" stroke="none" 
	d="
M1092.714355,476.048706 
	C1094.432861,478.347473 1095.244507,480.605164 1096.056274,482.862823 
	C1095.593140,483.132935 1095.130005,483.403046 1094.666870,483.673126 
	C1093.123047,481.565460 1091.579224,479.457764 1090.013672,476.677612 
	C1090.597046,476.005951 1091.202271,476.006775 1092.714355,476.048706 
z"/>
<path fill="#A6A6A6" opacity="1.000000" stroke="none" 
	d="
M1604.510254,260.001709 
	C1606.073364,261.468597 1607.263550,263.601929 1608.453613,265.735260 
	C1608.054932,266.129822 1607.656250,266.524414 1607.257446,266.918976 
	C1605.572876,265.846283 1603.888306,264.773560 1601.938232,263.009216 
	C1602.494141,261.767761 1603.315674,261.217987 1604.510254,260.001709 
z"/>
<path fill="#010101" opacity="1.000000" stroke="none" 
	d="
M1422.456177,639.080383 
	C1422.313721,638.947144 1422.807129,638.911011 1422.807129,638.911011 
	C1422.807129,638.911011 1422.598633,639.213623 1422.456177,639.080383 
z"/>
<path fill="#595959" opacity="1.000000" stroke="none" 
	d="
M1096.805176,928.256531 
	C1097.734741,928.704224 1098.210693,929.684143 1099.077881,931.044373 
	C1099.017090,933.145813 1098.565186,934.866882 1098.113159,936.588013 
	C1097.526001,936.567932 1096.938843,936.547791 1096.351685,936.527710 
	C1096.351685,933.948059 1096.351685,931.368408 1096.805176,928.256531 
z"/>
<path fill="#FFFFFF" opacity="1.000000" stroke="none" 
	d="
M1236.488159,1493.416748 
	C1237.264648,1493.962280 1237.299683,1494.738770 1237.334839,1495.515137 
	C1236.517822,1495.331177 1235.700684,1495.147339 1234.883667,1494.963379 
	C1235.171387,1494.524780 1235.458984,1494.086060 1236.488159,1493.416748 
z"/>
<path fill="#A6A6A6" opacity="1.000000" stroke="none" 
	d="
M1262.720703,748.455444 
	C1261.130371,748.014160 1260.313110,747.225037 1259.495850,746.435791 
	C1261.920410,745.535767 1264.344849,744.635742 1266.769409,743.735718 
	C1266.939087,744.209839 1267.108887,744.684021 1267.278564,745.158142 
	C1266.016968,746.141235 1264.755371,747.124329 1262.720703,748.455444 
z"/>
<path fill="#767676" opacity="1.000000" stroke="none" 
	d="
M1345.983765,611.039429 
	C1345.829102,611.714966 1345.248291,611.875488 1343.767334,612.120667 
	C1340.920898,611.280762 1338.974731,610.356201 1337.028687,609.431641 
	C1337.236084,608.899658 1337.443481,608.367615 1337.651001,607.835571 
	C1340.286621,608.731934 1342.922119,609.628235 1345.983765,611.039429 
z"/>
<path fill="#969695" opacity="1.000000" stroke="none" 
	d="
M1708.903564,762.307434 
	C1710.609497,763.686096 1712.315430,765.064819 1714.021362,766.443481 
	C1713.849976,766.832153 1713.678711,767.220764 1713.507446,767.609436 
	C1711.531616,767.045349 1709.555908,766.481323 1707.711792,764.856812 
	C1708.196899,763.300110 1708.550171,762.803772 1708.903564,762.307434 
z"/>
<path fill="#969695" opacity="1.000000" stroke="none" 
	d="
M1707.175537,764.420166 
	C1704.150391,762.928040 1704.495605,761.698181 1708.302002,761.856506 
	C1708.550171,762.803772 1708.196899,763.300110 1707.175537,764.420166 
z"/>
<path fill="#FDFDFC" opacity="1.000000" stroke="none" 
	d="
M1723.885254,1106.811768 
	C1720.834229,1144.842163 1717.806885,1182.013672 1714.698853,1219.178345 
	C1712.589600,1244.400146 1710.340210,1269.610107 1708.206299,1294.829956 
	C1707.112549,1307.755981 1702.391235,1312.723877 1689.542725,1313.429810 
	C1678.237305,1314.051025 1666.896729,1314.639771 1655.592163,1314.373291 
	C1650.839478,1314.261353 1645.619385,1312.805664 1641.511841,1310.414429 
	C1628.769653,1302.996216 1616.102417,1301.808716 1602.527954,1307.876099 
	C1596.791748,1310.439941 1590.668945,1312.437012 1584.518311,1313.697388 
	C1577.437622,1315.148071 1570.101685,1316.372559 1562.930298,1316.126587 
	C1551.626343,1315.739014 1545.556274,1307.842407 1547.347534,1296.495117 
	C1550.201782,1278.414917 1553.522095,1260.407715 1556.712524,1242.381470 
	C1565.062500,1195.203979 1573.487305,1148.039673 1581.798096,1100.855347 
	C1584.371216,1086.245972 1590.154541,1081.162842 1604.833252,1082.242065 
	C1639.044922,1084.757324 1673.239380,1087.514771 1707.429810,1090.307617 
	C1717.062622,1091.094360 1721.223022,1095.290649 1723.885254,1106.811768 
z"/>
<path fill="#FFFFFF" opacity="1.000000" stroke="none" 
	d="
M1574.950195,494.671082 
	C1575.168335,494.450256 1575.220947,495.229034 1575.220947,495.229034 
	C1575.220947,495.229034 1574.732056,494.891907 1574.950195,494.671082 
z"/>
</svg>