<svg version="1.1" id="Layer_1" xmlns="http://www.w3.org/2000/svg" xmlns:xlink="http://www.w3.org/1999/xlink" x="0px" y="0px"
	 width="100%" viewBox="0 0 1024 704" enable-background="new 0 0 1024 704" xml:space="preserve">
<path fill="#000000" opacity="1.000000" stroke="none" 
	d="
M429.042053,438.727875 
	C423.113373,436.393921 417.163391,437.050598 411.406036,436.569885 
	C397.309174,435.392883 383.159821,434.813721 369.024902,434.133484 
	C360.116028,433.704773 357.300690,436.394562 357.360565,445.488831 
	C357.526154,470.644165 357.967346,495.798126 358.043091,520.953430 
	C358.081696,533.774841 357.480194,546.597046 357.361664,559.420715 
	C357.326965,563.174438 356.021576,564.160400 352.257629,563.968994 
	C331.985748,562.938232 311.866577,559.520813 291.482361,560.197266 
	C285.327545,560.401611 279.174042,559.759766 273.165558,558.275574 
	C271.590820,557.886536 269.689423,557.347290 269.808899,555.206787 
	C269.909332,553.407654 271.658051,553.001343 273.043610,552.518372 
	C279.512238,550.263550 286.225220,548.995850 292.966766,547.969910 
	C295.805176,547.537903 296.996368,546.410095 296.989716,543.479065 
	C296.972992,536.120728 298.475861,528.930359 299.968475,521.771423 
	C301.182739,515.947510 301.315979,510.178711 299.675690,504.474518 
	C296.330078,492.840118 297.377411,480.955261 298.042175,469.209015 
	C298.588867,459.549255 298.689880,449.907959 298.807343,440.255585 
	C299.093323,416.760162 298.457825,393.271820 297.527435,369.803680 
	C297.279663,363.554016 301.324982,361.065277 304.898804,357.774200 
	C306.107544,356.661133 307.386261,357.277283 308.565674,358.012146 
	C313.984039,361.388306 320.144806,362.010162 326.265320,362.662292 
	C328.532227,362.903870 330.514282,363.036499 331.303009,365.727661 
	C332.694580,370.475769 336.607330,372.420441 340.914490,373.529541 
	C346.970154,375.088898 353.128601,375.452148 359.120392,373.251587 
	C361.802612,372.266541 363.665375,372.644287 365.813507,374.644165 
	C369.997223,378.539093 375.026978,381.175293 380.458405,383.016998 
	C385.325134,384.667297 389.641052,383.947571 393.315094,380.204803 
	C393.898590,379.610382 394.511475,379.044952 395.105225,378.460480 
	C399.324280,374.307159 402.512207,369.539520 410.037445,374.872864 
	C415.061707,378.433716 422.466919,378.358124 428.996552,377.313904 
	C431.785950,376.867828 433.420685,377.208160 434.321564,380.054169 
	C435.498749,383.773132 438.587097,385.513977 442.017395,386.570618 
	C446.946381,388.088959 452.013641,389.176758 456.897583,390.818237 
	C462.450592,392.684601 466.629059,391.017517 470.137604,386.681976 
	C471.487213,385.014252 472.965393,383.450531 474.927734,381.223511 
	C480.674469,386.390472 486.225677,391.311676 491.698273,396.318817 
	C499.565491,403.516876 507.308472,410.852234 515.252319,417.963898 
	C517.513733,419.988434 518.060791,422.244781 517.983948,425.055542 
	C517.122314,456.541168 518.012573,488.022736 518.448059,519.501648 
	C518.582458,529.211121 519.101501,538.975098 521.079529,548.638489 
	C523.265930,544.616211 523.131348,540.129150 523.614624,535.850830 
	C525.056458,523.086121 524.863647,510.243744 524.855469,497.419739 
	C524.842102,476.423035 524.765686,455.426300 524.761108,434.429596 
	C524.760681,432.490448 524.227783,430.411133 525.774658,428.503998 
	C529.144531,428.540466 532.582764,429.361206 536.078125,428.869690 
	C538.501282,428.528931 539.486023,430.600189 540.668030,432.167267 
	C550.699097,445.465790 553.680969,445.801971 566.390503,434.854279 
	C571.255493,430.663696 577.107849,427.211304 577.829407,419.807617 
	C578.016602,417.886810 579.849670,417.908722 581.271301,417.514465 
	C587.366760,415.823975 593.480164,414.190857 599.537170,412.370850 
	C609.274109,409.445129 611.253845,404.319580 606.190430,395.542786 
	C605.706604,394.704254 604.932129,393.934845 605.573608,392.097687 
	C613.069702,390.410614 620.962646,388.676086 628.834106,386.849091 
	C634.829895,385.457397 640.860229,384.155640 646.751099,382.397980 
	C649.423279,381.600769 651.124329,382.146027 652.954529,383.985596 
	C658.123718,389.181396 663.424927,394.245605 668.628357,399.407806 
	C672.660217,403.407745 677.183228,405.135620 682.649292,402.597321 
	C684.335144,401.814423 685.727600,401.981354 687.319824,402.945770 
	C693.495605,406.686615 700.115295,406.246338 706.671997,404.386536 
	C712.334045,402.780487 714.630920,398.248474 715.271301,392.535583 
	C718.955017,392.682983 721.701782,394.755157 724.779236,395.719940 
	C727.046997,396.430939 726.263062,398.831818 726.246033,400.543793 
	C726.077148,417.538971 725.376160,434.550140 726.433655,451.521545 
	C727.201172,463.841309 727.580566,476.153503 727.265991,488.471344 
	C727.007019,498.614288 726.482605,508.773376 725.504578,518.869995 
	C723.714722,537.349060 727.512817,542.065002 746.032532,543.800842 
	C749.825378,544.156372 754.085754,543.938843 756.986755,547.746216 
	C755.084229,551.306274 751.551270,552.069885 748.461060,552.125732 
	C722.260742,552.599121 696.839905,560.000916 670.615723,560.500610 
	C654.784119,560.802185 639.435669,565.447510 623.797363,567.602295 
	C602.877930,570.484680 581.881409,572.813782 560.907532,575.291809 
	C551.658264,576.384644 542.361023,577.087585 533.125244,578.275574 
	C521.088135,579.823914 509.163452,578.157349 497.272736,577.045898 
	C479.728943,575.406067 462.123322,574.263489 444.701691,571.358276 
	C432.004913,569.240967 431.577698,569.421631 432.069214,556.654907 
	C433.242462,526.181091 431.943329,495.674896 433.534363,465.209839 
	C433.872589,458.733490 433.863556,452.227661 432.922302,445.753296 
	C432.519592,442.983307 431.808105,440.557617 429.042053,438.727875 
M658.036621,414.176636 
	C646.758423,414.930450 635.480164,415.682220 624.202148,416.439178 
	C619.693054,416.741791 616.704956,418.806427 615.848999,423.492401 
	C615.521423,425.285797 614.741577,427.008667 614.520935,428.807007 
	C614.080811,432.394012 613.111938,435.340729 608.188171,434.933624 
	C610.174500,439.822235 611.943542,444.099976 613.646973,448.403656 
	C614.398193,450.301636 614.919067,452.377258 613.532532,454.113678 
	C612.023621,456.003357 609.903381,455.271942 607.974548,454.751740 
	C604.712341,453.871918 601.465088,452.936584 597.845337,451.921936 
	C600.039124,457.664551 602.885193,462.641937 603.703796,467.932983 
	C604.571411,473.540710 598.342651,477.447998 597.670654,483.137207 
	C600.150085,484.022888 601.873413,482.696289 603.686523,482.082062 
	C610.559937,479.753418 612.633301,481.100433 613.295166,488.480957 
	C613.970276,496.009125 615.365784,497.053864 622.780273,495.140381 
	C633.405945,492.398163 644.007263,489.560028 654.604004,486.707153 
	C663.057312,484.431305 664.608887,482.462891 664.626526,473.794830 
	C664.658691,457.981567 664.642273,442.168030 664.561157,426.355011 
	C664.548462,423.876648 664.178345,421.387238 663.811401,418.927094 
	C663.398926,416.161469 661.913391,414.354706 658.036621,414.176636 
z"/>
<path fill="#000000" opacity="1.000000" stroke="none" 
	d="
M292.814606,358.875305 
	C290.694031,360.821259 288.670471,362.302460 286.332520,363.244659 
	C276.978943,367.014313 267.143951,368.633301 257.172882,369.518494 
	C255.007523,369.710754 252.713760,369.427612 251.534622,367.134491 
	C250.217041,364.572113 252.172775,362.995117 253.679794,361.580383 
	C262.805389,353.013519 273.078339,345.848846 282.843903,338.068512 
	C316.333435,311.386932 349.988220,284.912781 383.595673,258.379425 
	C384.991913,257.277100 386.134735,255.691589 388.544281,255.547195 
	C389.969513,259.517548 388.992889,263.599976 388.873047,267.617584 
	C388.759033,271.441711 388.570984,275.267242 388.277039,279.081482 
	C387.936188,283.504456 390.067261,286.051239 394.181061,287.028625 
	C406.160187,289.874817 418.159607,292.635315 430.146057,295.450958 
	C432.524628,296.009705 434.425903,295.096527 436.064362,293.557526 
	C445.898010,284.320801 455.710632,275.061554 465.505585,265.783783 
	C467.486542,263.907410 467.773438,261.444885 467.653564,258.862152 
	C467.175018,248.551651 466.918060,238.225754 466.169464,227.935364 
	C465.863007,223.722595 466.665375,221.796570 471.341980,221.838898 
	C486.864746,221.979370 502.330170,222.647629 517.390198,226.733170 
	C524.951782,228.784515 532.238770,227.323532 539.637329,226.248871 
	C548.217407,225.002594 556.773926,224.605011 565.499817,225.225876 
	C581.199280,226.342880 593.759949,233.348175 605.878540,242.922333 
	C640.259705,270.084930 675.189331,296.552551 709.847046,323.366180 
	C728.163513,337.537140 746.380493,351.837006 764.601074,366.131348 
	C768.158752,368.922424 771.291321,372.153015 773.252869,376.338104 
	C774.716797,379.461334 773.865173,381.552582 770.437744,382.270782 
	C765.552429,383.294464 760.656555,384.289703 755.732788,385.100372 
	C752.107788,385.697205 749.354980,383.480865 746.658020,381.576355 
	C739.870911,376.783569 733.183289,371.849854 725.441833,366.237518 
	C726.732727,371.410980 729.266052,374.556946 731.170715,378.028931 
	C732.570862,380.581360 736.584595,383.621552 733.422424,386.135223 
	C730.442322,388.504150 725.629700,389.558929 721.725952,386.792664 
	C717.930481,384.103088 714.531006,380.861725 710.825378,378.036133 
	C707.633362,375.602325 705.239319,371.950958 700.789917,370.959686 
	C700.236328,373.670288 702.110474,375.218933 702.890198,377.124573 
	C703.708191,379.123749 704.839050,380.992340 705.736267,382.962128 
	C708.643494,389.344635 708.399902,395.388397 705.208801,397.288208 
	C700.449341,400.121796 691.390564,398.131653 687.715393,393.431183 
	C686.901794,392.390594 686.138611,391.310669 685.459900,390.394226 
	C684.035156,390.177460 683.943787,391.166870 683.582703,391.850494 
	C680.521484,397.645813 677.383362,398.241302 672.783813,393.776337 
	C665.490967,386.696777 658.272522,379.540558 650.983704,372.456818 
	C648.998962,370.527863 647.020325,368.520996 644.398254,367.606018 
	C643.236572,368.935486 643.974365,369.852936 644.392700,370.676971 
	C646.333313,374.499603 644.534546,376.328796 640.967834,377.120544 
	C627.000732,380.221069 613.019958,383.260315 599.052246,386.358276 
	C596.996277,386.814270 594.736084,386.855682 593.050476,388.791779 
	C594.108093,392.631378 597.464539,394.913605 599.474670,398.094238 
	C602.669922,403.149994 602.472473,403.971405 596.886902,405.636993 
	C594.017517,406.492615 591.058533,407.107269 588.275085,408.180817 
	C580.453552,411.197449 572.879395,412.474396 565.895996,406.206024 
	C565.479248,405.831940 564.724426,405.834595 563.477112,405.474243 
	C564.082703,409.224609 566.532227,411.423828 567.956116,414.085876 
	C571.176575,420.106537 571.106567,421.155945 566.172241,425.633606 
	C563.458862,428.095886 560.672607,430.480804 557.863403,432.833862 
	C553.444031,436.535736 552.618225,436.413574 549.168274,431.900726 
	C544.842285,426.241882 540.970886,420.215790 535.425964,414.530548 
	C535.096008,415.237823 534.787231,415.658203 534.701355,416.120087 
	C533.364075,423.309998 532.021301,423.920441 526.577759,419.004730 
	C510.625671,404.599457 494.821259,390.030792 478.953705,375.531952 
	C473.794769,370.818024 473.787201,370.826324 469.681580,376.154541 
	C462.863281,385.003174 462.863251,385.003235 452.074463,382.212830 
	C451.752167,382.129456 451.429688,382.046692 451.108246,381.960236 
	C439.843567,378.930939 439.872437,378.937134 442.342224,367.565979 
	C442.714233,365.853333 443.458710,364.046936 442.406372,362.272156 
	C440.508453,361.744049 439.540466,363.163055 438.619751,364.197235 
	C431.325012,372.390686 422.205963,370.967438 413.111267,368.937317 
	C409.643738,368.163269 409.287872,365.217957 409.979431,362.104553 
	C410.431091,360.071350 412.019409,358.246368 411.265015,356.005829 
	C409.550934,354.976929 408.740753,356.345398 407.762817,357.119324 
	C401.344543,362.198608 395.563629,367.974792 389.856171,373.809387 
	C387.287048,376.435730 384.744995,376.942291 381.335785,375.596313 
	C374.823639,373.025330 368.792816,370.078461 367.216003,362.678009 
	C364.618927,362.323517 363.096924,363.546814 361.628845,364.507935 
	C356.013916,368.183746 349.882355,367.917969 343.760681,366.826111 
	C337.915375,365.783539 336.709198,363.454498 338.217010,357.535767 
	C338.532745,356.296417 339.452759,355.119446 338.336945,353.255157 
	C332.072327,357.644836 325.360443,355.281525 318.746582,354.226135 
	C311.017456,352.992828 309.842163,350.951630 312.130035,343.223480 
	C304.737305,347.358704 299.271545,353.451782 292.814606,358.875305 
z"/>
<path fill="#000000" opacity="1.000000" stroke="none" 
	d="
M460.290710,253.847839 
	C461.017517,258.841614 459.338104,262.188507 455.922821,265.250214 
	C448.487518,271.915649 441.320831,278.883484 434.124451,285.810913 
	C432.132721,287.728180 430.217255,288.278351 427.407471,287.572052 
	C418.221741,285.262909 408.942291,283.328705 399.716370,281.175415 
	C397.660065,280.695526 395.307190,280.376862 395.451294,277.298767 
	C396.104797,263.340118 396.703674,249.378906 397.368195,235.420822 
	C397.511719,232.406281 397.989075,229.312347 399.577667,226.786438 
	C402.809387,221.647903 401.979218,216.873657 399.409851,211.840179 
	C397.670135,208.432007 396.411194,204.780334 396.818390,200.798431 
	C398.240204,186.894577 395.508728,173.692215 390.360107,160.819046 
	C389.076660,157.610016 386.534058,153.595352 390.326691,150.740311 
	C394.132904,147.875031 397.913818,150.381775 401.298615,152.658630 
	C403.034821,153.826492 404.722015,155.067184 406.772858,156.110428 
	C403.226807,152.723053 403.023865,149.032074 404.762817,144.768402 
	C405.926880,141.914154 407.109772,139.652756 410.662720,139.823669 
	C414.199402,139.993790 417.728119,139.896118 419.280121,144.164352 
	C421.042450,149.011124 423.773132,153.629089 424.758301,158.608597 
	C426.615692,167.996384 429.841675,177.850403 421.115356,186.034210 
	C419.760529,187.304794 418.348297,188.921356 418.195282,191.015228 
	C418.397339,191.204010 418.538757,191.427368 418.630249,191.408508 
	C423.496765,190.405869 428.230713,188.921722 430.335815,195.955276 
	C431.721588,200.585419 435.981506,204.457291 433.624786,210.027359 
	C436.009216,206.269608 437.782623,202.581390 435.090424,198.114502 
	C433.137817,194.874771 433.443970,191.549194 435.256409,188.153122 
	C437.211670,184.489395 438.756744,180.607559 440.503021,176.831161 
	C441.539307,174.590073 443.037964,172.600876 445.745514,173.046402 
	C448.971436,173.577240 448.230560,176.528046 448.444519,178.714417 
	C448.616760,180.474670 448.479370,182.265228 448.479370,184.406891 
	C450.954437,180.057098 451.222473,175.183411 454.042023,171.029449 
	C458.367798,172.323166 460.994690,174.609070 459.800018,179.335724 
	C456.430939,192.665146 457.765900,206.005386 458.962250,219.455582 
	C459.963379,230.710922 459.884644,242.062317 460.290710,253.847839 
z"/>
<path fill="#000000" opacity="1.000000" stroke="none" 
	d="
M364.336731,445.560181 
	C365.099548,438.474121 369.874695,441.756317 373.197479,441.543640 
	C377.074127,441.295502 377.400452,443.712433 377.171173,446.739227 
	C374.750519,478.693451 376.567108,510.685608 376.393280,542.660278 
	C376.376129,545.813049 376.725311,548.983582 377.117859,552.119141 
	C377.712769,556.871460 376.094574,559.818665 371.080536,560.561523 
	C369.146332,560.848022 367.336090,561.890686 365.188416,561.649963 
	C363.332489,559.174316 364.725922,556.470642 364.726135,553.941650 
	C364.728699,519.120972 365.312836,484.298004 364.154816,449.483215 
	C364.116180,448.321350 364.233612,447.154266 364.336731,445.560181 
z"/>
<path fill="#000000" opacity="1.000000" stroke="none" 
	d="
M660.272949,423.351257 
	C660.258850,439.780151 660.311523,455.750519 660.114380,471.717834 
	C660.087280,473.914886 661.996216,477.632202 657.611816,478.000549 
	C653.938354,478.309174 648.638428,473.955170 648.744202,470.923706 
	C649.097778,460.793060 649.426819,450.653290 650.181946,440.548157 
	C650.604675,434.891479 650.711304,429.250519 650.632751,423.603668 
	C650.589783,420.515106 651.144653,418.520996 654.788147,418.300476 
	C658.283386,418.088928 660.281982,419.155518 660.272949,423.351257 
z"/>
<path fill="#000000" opacity="1.000000" stroke="none" 
	d="
M632.682007,479.547394 
	C635.328796,478.860077 637.699707,478.543213 639.802490,477.617218 
	C645.878784,474.941376 650.200134,478.126129 654.630310,481.276825 
	C653.920166,483.453949 652.174500,483.327271 650.820740,483.689728 
	C641.673096,486.139130 632.515869,488.555573 623.332092,490.864929 
	C621.412964,491.347534 618.639099,492.747742 618.046448,489.463623 
	C617.566223,486.802643 617.437195,483.606110 621.205017,482.589081 
	C624.894409,481.593170 628.590454,480.621765 632.682007,479.547394 
z"/>
</svg>