<svg version="1.1" id="Layer_1" xmlns="http://www.w3.org/2000/svg" xmlns:xlink="http://www.w3.org/1999/xlink" x="0px" y="0px"
	 width="100%" viewBox="0 0 1024 1024" enable-background="new 0 0 1024 1024" xml:space="preserve">
<path fill="#000000" opacity="1.000000" stroke="none" 
	d="
M408.063995,659.004883 
	C463.733673,635.099609 515.552307,605.058167 565.203918,571.191528 
	C600.471252,547.136230 634.544495,521.489380 666.108887,492.676178 
	C689.642883,471.193420 712.527283,449.079315 729.240356,421.515594 
	C731.933838,417.073273 734.078979,412.393463 735.589600,407.431763 
	C739.397766,394.923065 733.993164,386.916168 721.099854,385.208038 
	C706.373047,383.256958 692.308716,386.631531 678.206055,389.896606 
	C668.300903,392.189850 658.689880,395.484802 649.082581,398.775452 
	C647.685730,399.253906 646.348999,400.038055 644.650024,399.736603 
	C644.438904,399.382629 643.932007,398.930084 643.995483,398.581421 
	C645.849548,388.403229 648.646912,378.499908 653.368958,369.257965 
	C655.320618,365.438110 659.166626,363.925171 663.035461,362.677887 
	C675.237366,358.744171 687.441833,354.818390 699.641663,350.878265 
	C700.908630,350.469116 702.161011,350.010071 703.403076,349.529816 
	C707.270996,348.034180 710.202209,345.365204 710.298340,341.170502 
	C710.392212,337.072021 707.360962,334.725983 703.729858,333.209442 
	C702.593506,332.734833 701.050781,332.675415 700.574463,330.702026 
	C703.819946,328.554077 707.754517,328.683838 711.359863,328.032959 
	C728.585938,324.923187 745.918213,322.967041 763.489441,323.643829 
	C775.465454,324.105072 786.936218,326.491791 797.759521,331.664978 
	C818.173889,341.422485 827.046204,362.177338 824.751038,382.903046 
	C821.850464,409.095459 809.468628,431.225616 795.232788,452.558380 
	C782.991089,470.902893 768.676819,487.588654 753.600952,503.637787 
	C753.168213,504.098541 752.563416,504.397644 752.046814,504.766418 
	C749.579285,503.887360 749.566895,501.610596 749.016968,499.843048 
	C746.445862,491.579010 744.062805,483.256714 741.540039,474.977356 
	C740.814209,472.595245 740.108582,470.146240 738.941040,467.970886 
	C735.486328,461.534729 728.342529,461.419647 724.736267,467.749725 
	C722.166870,472.259613 720.917786,477.322968 719.325134,482.230469 
	C716.088745,492.202667 712.868286,502.180054 709.608521,512.144592 
	C707.331787,519.104370 703.029358,523.608704 695.602417,525.627808 
	C682.759888,529.119324 670.100159,533.287842 657.386902,537.246582 
	C654.852966,538.035522 652.381104,539.064636 649.955322,540.149780 
	C646.994568,541.474243 645.229004,543.701782 645.124817,547.111023 
	C645.013184,550.762024 646.930908,553.139221 649.954956,554.619385 
	C652.483643,555.857056 655.159119,556.849854 657.851562,557.687683 
	C666.074463,560.246399 674.337036,562.677734 682.919739,565.259644 
	C681.266113,568.934265 678.243469,570.549011 675.776733,572.559814 
	C628.664978,610.963379 578.516846,645.009399 525.716675,675.007263 
	C475.966217,703.272339 424.567444,728.156555 369.552521,744.721191 
	C339.655182,753.723022 309.338745,760.566956 277.798584,759.277039 
	C262.793518,758.663452 248.391479,755.618347 235.728531,746.941223 
	C219.897278,736.093262 214.718674,720.373291 216.269501,702.126160 
	C218.259293,678.714233 228.702179,658.454224 241.271362,639.187012 
	C267.639526,598.767273 301.393799,565.003723 337.321136,533.239014 
	C388.043091,488.393890 442.965149,449.352478 501.299866,415.080902 
	C531.195068,397.517578 561.916016,381.519348 593.526855,367.232849 
	C601.282776,363.727600 604.011475,363.897919 608.142151,373.001892 
	C613.110474,383.952087 615.149048,395.892944 618.944153,407.254181 
	C620.032410,410.512085 617.031555,411.137939 615.043518,412.020386 
	C602.555542,417.563782 590.240784,423.465302 578.082397,429.692474 
	C531.426758,453.588104 487.042877,481.166443 444.719086,512.074341 
	C406.724762,539.820496 370.293823,569.427002 337.629669,603.398926 
	C323.535004,618.057861 310.061951,633.305359 300.300140,651.369873 
	C298.643951,654.434753 297.180145,657.649841 296.037750,660.937988 
	C291.508026,673.975891 297.843231,682.943054 311.693451,683.711792 
	C326.025818,684.507324 339.835144,681.843445 353.563385,678.182922 
	C372.110107,673.237549 389.996429,666.445984 408.063995,659.004883 
z"/>
<path fill="#000000" opacity="1.000000" stroke="none" 
	d="
M721.325439,519.310059 
	C725.381165,510.200623 727.512756,500.783264 730.953491,491.694885 
	C733.472412,493.108398 733.443848,495.317841 733.967834,497.129425 
	C736.050232,504.327850 738.550110,511.373657 741.104187,518.415222 
	C744.501038,527.780212 750.504272,534.392334 760.062927,537.529053 
	C768.282776,540.226318 776.526123,542.852600 784.766785,545.486023 
	C785.991516,545.877441 787.441650,545.774353 788.219116,547.157043 
	C787.555176,548.941162 785.898132,548.872620 784.561035,549.299133 
	C776.636292,551.827576 768.736816,554.442322 760.766235,556.817749 
	C750.679199,559.823975 744.267944,566.485229 740.958496,576.277405 
	C738.402039,583.841614 736.018921,591.464417 733.568787,599.064453 
	C733.075745,600.593811 733.108704,602.393250 731.136597,603.388672 
	C729.143860,601.179260 729.202515,598.206055 728.325256,595.621582 
	C727.096130,592.000488 725.860168,588.364746 724.946533,584.656616 
	C720.906067,568.257019 711.151611,557.848267 694.316467,554.166931 
	C687.574768,552.692810 681.062744,550.168213 674.543640,548.151855 
	C674.883850,545.700562 676.466003,545.898376 677.654968,545.521057 
	C685.743591,542.954468 693.817688,540.340698 701.928589,537.846436 
	C711.365417,534.944580 717.596558,528.724731 721.325439,519.310059 
z"/>
<path fill="#000000" opacity="1.000000" stroke="none" 
	d="
M633.288269,383.194946 
	C631.990234,386.377350 631.946045,389.659271 630.038452,392.264771 
	C627.898865,391.109741 628.011353,389.311066 627.601746,387.763977 
	C625.769409,380.841522 623.445679,374.085175 620.918213,367.385895 
	C617.627991,358.664795 611.542419,353.025635 602.697205,350.282654 
	C595.710266,348.115906 588.708618,345.995850 581.732178,343.795868 
	C580.034729,343.260620 578.064331,343.270996 576.783081,341.632202 
	C577.352905,339.822876 579.029907,339.962311 580.371826,339.547607 
	C587.521484,337.338196 594.647156,335.046234 601.830200,332.951294 
	C610.997986,330.277527 617.116577,324.465912 620.267944,315.506836 
	C622.750427,308.449646 625.159729,301.366638 627.594849,294.292786 
	C628.164062,292.639130 628.184692,290.729645 629.801941,289.452881 
	C631.783020,290.470764 631.740662,292.497925 632.303772,294.122528 
	C634.590210,300.719849 636.735107,307.366150 639.009888,313.967621 
	C642.191101,323.199310 648.218872,329.587555 657.655029,332.639862 
	C665.521423,335.184418 673.335205,337.891846 681.381226,340.597351 
	C680.610291,342.845276 678.742065,342.767761 677.324951,343.251923 
	C670.559937,345.563049 663.780029,347.831573 656.987244,350.059967 
	C647.821167,353.066956 641.622314,359.084442 638.439270,368.189758 
	C636.737671,373.057373 635.072449,377.937653 633.288269,383.194946 
z"/>
<path fill="#000000" opacity="1.000000" stroke="none" 
	d="
M290.506439,522.403198 
	C287.920441,508.470337 279.765625,500.765106 266.288788,498.320404 
	C263.487610,497.812286 260.611053,497.019684 257.682648,495.009735 
	C261.072601,492.695496 264.384766,492.193726 267.520142,491.619568 
	C279.409821,489.442383 286.740448,482.742004 289.763794,470.941620 
	C290.708405,467.254791 291.210327,463.227539 294.123260,459.061523 
	C295.920563,464.523804 297.736694,469.095795 298.913727,473.826782 
	C301.056976,482.441589 306.241547,487.683838 314.815796,489.906433 
	C319.715485,491.176544 324.495270,492.909088 329.686981,494.546265 
	C327.908264,497.387634 325.397858,497.438751 323.294373,497.770508 
	C308.499176,500.104340 299.229462,508.066101 296.606873,523.179626 
	C296.196014,525.547180 295.157623,527.805847 294.209320,530.732361 
	C291.259369,528.299011 291.755035,525.158691 290.506439,522.403198 
z"/>
<path fill="#000000" opacity="1.000000" stroke="none" 
	d="
M456.043091,355.003845 
	C466.389832,352.882874 471.690857,346.330505 474.391602,336.935669 
	C475.549896,332.906311 476.134003,328.604370 478.805969,324.293671 
	C482.793304,332.754883 483.264893,342.261200 489.606659,348.698730 
	C496.020233,355.209137 505.635681,355.363678 513.833923,358.992859 
	C512.560181,361.776459 510.062439,361.756287 508.219696,362.025726 
	C492.479919,364.327209 483.789612,373.505310 481.139771,388.943024 
	C480.846832,390.649902 480.626373,392.581635 479.205261,393.932861 
	C477.372803,394.112091 477.643433,392.497498 477.184082,391.597260 
	C476.813507,390.870941 476.624115,390.024261 476.491333,389.208649 
	C473.938507,373.527100 464.936310,364.382690 449.142761,361.910797 
	C447.299103,361.622253 445.125458,361.398834 443.504547,359.026794 
	C447.380096,356.875824 451.773987,356.674774 456.043091,355.003845 
z"/>
<path fill="#000000" opacity="1.000000" stroke="none" 
	d="
M809.168335,589.930054 
	C814.021973,591.618042 818.536133,593.148193 824.011353,595.004089 
	C817.329102,598.907776 809.584595,598.298889 804.574768,603.376038 
	C799.641174,608.375793 799.294312,615.670105 796.004395,622.470032 
	C791.947021,615.947266 792.688110,608.023010 787.303528,603.195740 
	C782.098999,598.529907 774.745789,598.481506 767.746460,595.186707 
	C774.357849,591.360168 781.910767,591.997498 787.001404,587.395691 
	C792.314819,582.592529 792.632446,575.222351 795.484680,568.679260 
	C798.373291,571.002869 798.240662,574.345459 799.310059,577.063904 
	C801.331299,582.201965 802.997314,587.521362 809.168335,589.930054 
z"/>
</svg>