<svg version="1.1" id="Layer_1" xmlns="http://www.w3.org/2000/svg" xmlns:xlink="http://www.w3.org/1999/xlink" x="0px" y="0px"
	 width="100%" viewBox="0 0 1024 704" enable-background="new 0 0 1024 704" xml:space="preserve">
<path fill="#000000" opacity="1.000000" stroke="none" 
	d="
M339.669861,141.314835 
	C323.768646,122.885109 305.940063,107.212761 285.654724,94.366493 
	C283.967865,93.298248 282.282928,92.192902 280.757324,90.913734 
	C279.246216,89.646721 277.395355,88.172165 278.322571,85.924301 
	C279.250244,83.675156 281.491730,83.899879 283.535553,84.152039 
	C297.450409,85.868774 311.056580,88.861816 324.308624,93.524796 
	C362.253784,106.876480 392.979370,130.475845 419.389771,160.238556 
	C446.090942,190.328979 465.933411,224.693283 482.116547,261.304077 
	C483.530975,264.503937 485.538086,266.199036 488.766327,267.354218 
	C500.988403,271.727631 513.097961,272.198151 525.407104,267.654663 
	C529.091919,266.294556 531.536499,264.393555 533.183655,260.690369 
	C544.786255,234.605270 558.231689,209.531769 574.996399,186.342758 
	C602.917480,147.722275 636.721802,116.088356 681.217712,97.238678 
	C697.097351,90.511635 713.614807,86.115440 730.787964,84.294891 
	C733.102844,84.049500 735.884644,83.536438 736.878418,86.237236 
	C737.889038,88.983528 735.318115,90.354065 733.436523,91.650650 
	C721.917969,99.587944 710.336609,107.403778 699.830444,116.732841 
	C677.432312,136.621674 659.365845,159.973404 644.083984,185.588562 
	C624.156372,218.990723 610.036926,254.858307 598.956543,292.023163 
	C597.562073,296.700623 596.904175,300.800964 600.501709,304.998260 
	C603.335571,308.304626 604.265015,312.754761 605.208191,316.985901 
	C606.758911,323.942871 610.863953,326.745483 617.806519,325.340210 
	C622.922058,324.304779 627.575928,322.056854 632.200012,319.747192 
	C644.903564,313.401947 657.932495,307.973389 672.002625,305.411896 
	C684.973938,303.050507 698.005615,301.707764 711.213135,302.650116 
	C719.974670,303.275238 722.707886,306.493011 720.646606,314.941528 
	C713.124268,345.773193 694.212280,367.333954 666.123291,381.339203 
	C656.211670,386.281158 645.695801,389.636597 634.954529,391.824768 
	C611.768738,396.548126 599.832275,411.722137 594.167480,433.431396 
	C591.644470,443.100189 589.738770,452.880463 588.109558,462.718964 
	C585.132629,480.696533 577.527161,496.654327 566.891724,511.230591 
	C562.846619,516.774414 560.364319,522.792725 559.408569,529.494507 
	C555.553040,556.528687 532.790588,568.517395 514.056885,570.213867 
	C503.143280,571.202087 492.443268,570.002075 482.357788,565.202820 
	C466.500000,557.656738 458.586487,544.499084 455.725220,527.738525 
	C454.959778,523.254822 453.721954,518.860229 450.988708,515.231812 
	C435.976288,495.302826 427.830414,472.784851 424.612122,448.174255 
	C423.295319,438.104187 420.073395,428.422089 415.927917,419.084656 
	C410.223999,406.236908 400.594116,398.063629 387.202759,393.970123 
	C375.595276,390.421936 363.621735,387.963593 352.537842,382.816864 
	C323.448975,369.309662 303.236420,348.045319 295.278412,316.383423 
	C292.713409,306.178253 295.570099,303.127075 306.074982,302.609619 
	C332.816223,301.292297 358.027252,306.700897 381.769684,319.081696 
	C386.494476,321.545471 391.354980,323.771027 396.546112,325.113586 
	C404.104065,327.068268 408.453705,324.569916 410.207153,317.068573 
	C411.432526,311.826233 413.015442,306.773102 416.334045,302.454559 
	C417.943085,300.360718 417.900299,298.163055 417.241852,295.828949 
	C401.340607,239.460495 377.600555,187.022186 339.669861,141.314835 
M522.829285,515.406860 
	C521.014587,516.583191 519.141846,517.679626 517.395630,518.950134 
	C510.923706,523.658997 504.552429,523.624756 498.043549,518.942017 
	C493.995483,516.029785 489.792816,513.325439 485.581451,510.650757 
	C483.955414,509.618042 481.939514,507.908417 480.167023,509.456116 
	C478.358856,511.034943 479.195129,513.462524 480.059418,515.498230 
	C482.936462,522.275085 500.479004,533.321106 507.827728,532.905396 
	C509.462830,532.812927 511.167938,532.523987 512.679138,531.920532 
	C519.363647,529.251404 525.498047,525.579346 531.142090,521.127686 
	C533.529053,519.244995 535.346619,516.882080 536.021545,513.788452 
	C536.399414,512.056458 536.369446,510.367493 534.928650,509.214264 
	C533.456299,508.035736 532.041443,509.151245 530.829834,509.928589 
	C528.312622,511.543579 525.897522,513.317688 522.829285,515.406860 
z"/>
<path fill="#000000" opacity="1.000000" stroke="none" 
	d="
M475.886963,585.086121 
	C476.246155,581.187927 475.455231,577.603577 477.590271,573.926697 
	C497.591797,582.856262 517.742615,582.669922 537.812317,573.677917 
	C538.346863,574.810364 538.827148,575.374756 538.859802,575.963928 
	C539.521912,587.928894 539.601257,599.910217 539.100159,611.873169 
	C538.899475,616.664429 536.511353,617.595215 532.444580,615.150269 
	C531.448608,614.551575 530.461792,613.909668 529.573242,613.165344 
	C526.602356,610.676819 524.714417,611.190918 523.348938,614.920166 
	C521.143921,620.942383 517.461243,626.099548 512.980164,630.623901 
	C508.713379,634.931885 506.272583,634.854858 502.045776,630.580566 
	C498.021423,626.510986 495.112427,621.679565 492.690399,616.525024 
	C491.927887,614.902222 491.597137,613.012512 489.978333,611.736023 
	C487.090485,611.845093 485.375214,614.141174 483.160400,615.470642 
	C478.903961,618.025513 477.113861,617.415161 476.322815,612.477295 
	C475.026611,604.386597 475.915009,596.206970 475.831543,588.065857 
	C475.822998,587.234375 475.859161,586.402527 475.886963,585.086121 
z"/>
</svg>