<svg version="1.1" id="Layer_1" xmlns="http://www.w3.org/2000/svg" xmlns:xlink="http://www.w3.org/1999/xlink" x="0px" y="0px"
	 width="100%" viewBox="0 0 1024 1024" enable-background="new 0 0 1024 1024" xml:space="preserve">
<path fill="#000000" opacity="1.000000" stroke="none" 
	d="
M613.199341,747.362305 
	C590.748962,753.396790 568.401550,757.548706 545.603455,759.458374 
	C526.138000,761.088928 506.663605,761.605286 487.224121,760.127563 
	C450.197449,757.312988 414.197662,749.595764 379.412750,736.363464 
	C315.825989,712.174866 260.709534,674.973083 211.925232,627.933472 
	C181.843933,598.927979 154.957748,567.191956 130.468384,533.371948 
	C128.469223,530.611023 127.872574,528.631714 130.118774,525.502686 
	C180.765396,454.949921 241.021011,394.630493 316.954437,351.333221 
	C363.101471,325.020081 412.401337,307.393921 465.348816,300.573914 
	C538.903931,291.099548 608.940735,303.461426 676.000854,334.250244 
	C735.571777,361.600586 786.559937,400.780701 831.651367,447.985657 
	C854.359070,471.757690 875.250671,497.023560 894.512695,523.675049 
	C897.663330,528.034302 897.334167,530.809143 894.350220,534.920105 
	C865.583130,574.551697 833.819580,611.455750 797.043396,643.952087 
	C760.485596,676.255432 720.666443,703.559143 676.303223,724.063721 
	C656.007202,733.444519 635.155396,741.309143 613.199341,747.362305 
M395.637238,635.861328 
	C446.458160,690.476501 525.612183,703.833740 588.837097,668.650574 
	C655.302368,631.664185 688.429077,553.842712 663.796448,479.593384 
	C640.123535,408.236969 570.317627,362.917236 495.072174,371.599609 
	C454.183441,376.317627 419.771454,394.386292 392.994934,425.840332 
	C362.185303,462.032043 349.697571,504.138885 355.613525,551.209106 
	C359.649658,583.322510 373.568512,611.249878 395.637238,635.861328 
M672.706909,393.860138 
	C665.415344,390.201477 658.219604,386.333313 650.804932,382.944000 
	C643.611328,379.655792 636.594666,375.714386 628.304016,374.839661 
	C678.948730,414.591278 706.148254,466.307648 705.777344,530.561584 
	C705.404602,595.144348 676.940857,646.318420 625.522217,685.122192 
	C626.217346,685.143005 626.785339,684.949463 627.352234,684.753174 
	C647.418518,677.804138 666.288696,668.295593 684.669373,657.780823 
	C717.365967,639.076599 747.081238,616.352478 774.436646,590.526550 
	C793.595520,572.438721 811.483154,553.146423 828.293762,532.848022 
	C830.548889,530.124939 830.539612,528.257141 828.174683,525.627808 
	C822.274109,519.067566 816.736450,512.182434 810.902466,505.560547 
	C771.351624,460.668549 726.062866,422.853088 672.706909,393.860138 
M321.901245,557.250427 
	C319.050964,536.476929 319.194611,515.736206 323.161346,495.129456 
	C332.285400,447.731567 355.885010,409.040375 393.544891,378.882080 
	C394.734589,377.929382 396.618988,377.355988 396.336121,375.214691 
	C395.967377,375.080109 395.610931,374.806183 395.374237,374.886261 
	C393.328003,375.578278 391.283691,376.284515 389.275116,377.078278 
	C367.661804,385.619934 347.296844,396.627533 327.630005,408.899139 
	C278.077576,439.818604 236.062485,479.199402 198.903946,524.021973 
	C195.714371,527.869385 195.931335,530.449036 199.045990,534.194580 
	C216.223450,554.851074 234.556610,574.381958 254.156525,592.761902 
	C292.168610,628.407959 334.569641,657.455017 382.318787,678.504639 
	C387.561768,680.815918 392.699524,683.582458 398.848053,684.188293 
	C356.855835,652.023987 330.590332,610.453857 321.901245,557.250427 
z"/>
<path fill="#000000" opacity="1.000000" stroke="none" 
	d="
M438.775208,616.253601 
	C415.421997,596.045715 401.712616,570.909546 398.948395,540.534973 
	C394.552765,492.233490 418.307953,449.916534 459.466736,428.332428 
	C492.958954,410.768768 527.365234,410.310059 561.929993,425.738831 
	C563.115906,426.268158 564.482910,426.579315 565.531799,428.591278 
	C551.601379,438.374756 545.246887,452.048889 547.494995,469.160583 
	C548.635071,477.838470 552.899658,485.264038 559.233521,491.265320 
	C567.918762,499.494507 578.476318,502.098602 590.174866,500.661591 
	C601.806519,499.232758 610.197815,492.425751 617.310059,483.475372 
	C632.868530,510.737671 634.329590,570.375122 594.135071,610.063538 
	C551.310303,652.349121 484.954102,655.359436 438.775208,616.253601 
z"/>
</svg>