<svg version="1.1" id="Layer_1" xmlns="http://www.w3.org/2000/svg" xmlns:xlink="http://www.w3.org/1999/xlink" x="0px" y="0px"
	 width="100%" viewBox="0 0 1024 1024" enable-background="new 0 0 1024 1024" xml:space="preserve">
<path fill="#000000" opacity="1.000000" stroke="none" 
	d="
M566.074829,295.977783 
	C565.374878,341.279633 564.676636,386.085815 563.980286,430.892029 
	C563.333130,472.534851 563.035522,514.186951 561.922241,555.817322 
	C561.151672,584.627258 561.864197,613.456482 560.421997,642.253845 
	C560.229309,646.102478 559.152771,647.530579 555.203918,647.483704 
	C544.720093,647.359070 534.241821,648.119263 523.740173,647.599792 
	C520.683228,647.448608 519.670044,646.573486 519.627563,643.583374 
	C519.483276,633.425964 519.036255,623.272949 518.884277,613.115540 
	C518.410400,581.464050 518.240479,549.806335 517.539246,518.160156 
	C516.668396,478.855957 515.990112,439.551788 515.548401,400.240173 
	C515.157288,365.429504 514.561035,330.615540 513.487366,295.820557 
	C512.989807,279.695892 513.040833,263.560974 511.735291,247.370148 
	C511.603088,249.270660 511.382843,251.169724 511.351898,253.071869 
	C510.896912,281.053375 510.497162,309.035828 510.024261,337.016998 
	C509.342987,377.324615 508.601105,417.631134 507.907135,457.938538 
	C507.256195,495.747925 507.013306,533.569397 505.859863,571.363220 
	C505.143311,594.842590 505.919006,618.340088 504.527466,641.807251 
	C504.273071,646.097534 503.149323,647.583618 498.752594,647.514832 
	C488.764984,647.358337 478.766785,647.637756 468.777954,647.918945 
	C464.919861,648.027466 463.669678,646.573181 463.575256,642.671631 
	C463.010773,619.352539 462.871033,596.031128 462.619629,572.708313 
	C462.133087,527.567566 461.556274,482.424835 460.542450,437.293610 
	C459.715668,400.487671 458.957520,363.685516 458.605438,326.870911 
	C458.321899,297.225220 457.478363,267.584778 456.853973,237.942612 
	C456.793030,235.048950 457.170654,232.476974 459.033417,229.994934 
	C475.232422,208.410416 491.287659,186.718079 507.459351,165.112976 
	C511.738525,159.396027 512.014221,159.465973 516.279907,165.173447 
	C532.238586,186.526474 548.168945,207.900696 564.143066,229.242172 
	C565.674316,231.287949 566.876831,233.300690 566.835510,236.020157 
	C566.534180,255.840088 566.319397,275.661316 566.074829,295.977783 
z"/>
<path fill="#000000" opacity="1.000000" stroke="none" 
	d="
M568.000000,702.270996 
	C513.836060,702.273010 460.172119,702.278137 406.508179,702.273132 
	C399.674835,702.272461 399.643890,702.247742 399.673462,695.372375 
	C399.697052,689.887573 399.384888,684.396912 400.769135,678.975037 
	C403.206421,669.428528 410.633698,662.728333 420.423920,661.632446 
	C423.396301,661.299805 426.401520,661.111572 429.391815,661.110291 
	C472.222900,661.091614 515.054077,661.081116 557.885010,661.151611 
	C571.212708,661.173523 584.562439,661.994812 597.861633,661.454346 
	C613.217773,660.830322 623.586548,670.073425 623.958496,686.417053 
	C624.401611,705.895691 626.478638,701.920776 609.497559,702.209351 
	C595.835266,702.441528 582.166138,702.265747 568.000000,702.270996 
z"/>
<path fill="#000000" opacity="1.000000" stroke="none" 
	d="
M507.425659,865.204712 
	C487.718414,860.733459 477.794922,850.598572 475.194763,832.138855 
	C473.913818,823.044678 476.159668,814.532715 481.560547,807.112061 
	C484.164276,803.534607 485.101929,799.891724 485.079315,795.531738 
	C484.953125,771.221252 485.040192,746.909729 485.070587,722.598511 
	C485.079193,715.723572 485.104218,715.711365 492.079041,715.705872 
	C505.906342,715.694885 519.735901,715.838257 533.559692,715.616028 
	C538.013428,715.544373 539.285950,717.197815 539.260254,721.464661 
	C539.108643,746.619385 539.169983,771.775452 539.165710,796.931030 
	C539.165222,799.750427 539.148193,802.434753 541.055908,804.969299 
	C550.790161,817.902588 552.471619,831.846191 544.608337,846.125671 
	C536.734985,860.423462 523.949463,866.226013 507.425659,865.204712 
z"/>
</svg>