<svg version="1.1" id="Layer_1" xmlns="http://www.w3.org/2000/svg" xmlns:xlink="http://www.w3.org/1999/xlink" x="0px" y="0px"
	 width="100%" viewBox="0 0 1024 704" enable-background="new 0 0 1024 704" xml:space="preserve">
<path fill="#000000" opacity="1.000000" stroke="none" 
	d="
M561.815552,476.352509 
	C543.554077,469.719452 525.599792,463.634308 506.081879,465.248291 
	C491.642761,466.442291 478.165863,471.243622 464.650177,475.956787 
	C448.630524,481.543121 432.785950,487.655304 415.921448,490.483643 
	C371.046967,498.009613 333.869080,484.328278 304.022705,450.214020 
	C280.835144,423.710632 266.776581,392.460083 256.852173,359.096802 
	C251.183243,340.039368 247.887817,320.543243 247.119492,300.679565 
	C246.863220,294.054108 247.115829,287.324371 249.144165,280.902130 
	C251.504883,273.427521 256.647980,272.126190 261.508362,278.137878 
	C276.647003,296.862457 296.252960,299.197632 317.964172,294.043671 
	C331.607574,290.804871 344.273102,284.581604 357.702698,280.658569 
	C388.284882,271.724915 418.424835,271.850647 447.956909,284.973511 
	C457.907593,289.395172 467.020416,295.188873 475.771301,301.613190 
	C482.883759,306.834625 489.786469,312.354645 497.557495,316.636963 
	C508.311005,322.562744 518.808838,322.109558 529.350952,315.976929 
	C537.163635,311.432098 544.210938,305.844452 551.394165,300.441467 
	C586.632263,273.936554 625.443359,268.495270 667.315308,280.486786 
	C681.090454,284.431732 694.014038,290.893005 707.989929,294.183502 
	C725.031189,298.195740 741.435425,297.763184 755.836182,286.140869 
	C758.798462,283.750183 761.342896,280.831085 764.009644,278.087250 
	C769.355530,272.586609 774.157898,273.655670 776.420105,281.095215 
	C779.389099,290.858887 778.894226,300.965973 777.944336,310.858002 
	C774.034119,351.578186 761.692932,389.652283 740.343872,424.606720 
	C726.162292,447.825897 708.434265,467.676605 683.884155,480.505524 
	C663.443481,491.187042 641.672852,494.029846 618.935913,491.671234 
	C599.183716,489.622192 580.721680,482.967804 561.815552,476.352509 
M579.527344,367.024719 
	C570.229614,376.123138 563.087097,386.619781 558.343018,398.794098 
	C556.880493,402.547119 557.871216,404.364777 561.476929,405.481354 
	C567.043945,407.205353 572.532776,409.185822 578.115051,410.856079 
	C596.536682,416.368073 615.212891,418.913666 634.267212,414.644165 
	C666.311462,407.464020 687.639893,387.351776 701.214722,358.269775 
	C704.141235,352.000153 702.436523,349.932587 695.559326,350.423889 
	C690.070679,350.816010 684.632568,351.003479 679.110413,350.715790 
	C665.452759,350.004333 652.130798,346.762634 638.484131,345.902710 
	C615.971680,344.484070 596.477295,351.039276 579.527344,367.024719 
M430.861115,355.653687 
	C413.744812,345.770844 395.206024,344.638672 376.156952,346.853302 
	C360.498566,348.673737 345.002960,352.250702 329.034088,350.426819 
	C323.817474,349.830994 322.166504,352.474609 324.000366,357.588257 
	C327.020569,366.010101 332.042389,373.300232 337.569305,380.189545 
	C356.598846,403.909973 380.943817,416.884247 411.821259,416.737671 
	C430.119598,416.650818 447.253967,411.507874 464.261780,405.543976 
	C468.829529,403.942261 468.267334,400.886444 466.792145,397.532898 
	C459.161499,380.186127 448.189545,365.668152 430.861115,355.653687 
M729.381653,418.829742 
	C724.718994,426.151672 719.535156,433.096008 713.760132,439.564667 
	C684.812927,471.988373 649.153931,484.554565 606.291016,475.771484 
	C586.291260,471.673279 567.589417,463.562164 548.362549,457.093262 
	C525.317627,449.339752 502.384521,449.211945 479.251892,456.516541 
	C463.215576,461.580414 447.710938,468.182007 431.518311,472.781860 
	C412.697540,478.128204 393.607574,480.353455 374.252502,476.696503 
	C345.073700,471.183441 322.908569,454.549072 305.247406,431.465454 
	C285.110199,405.145416 272.045380,375.359100 263.870239,343.411011 
	C259.748962,327.305206 255.697052,311.078552 258.602661,294.158661 
	C258.831543,292.825806 258.577637,291.442200 256.709686,291.328522 
	C255.617996,292.553314 255.580475,294.071747 255.230148,295.524323 
	C253.386002,303.170593 254.277969,310.858185 255.493454,318.371124 
	C262.778351,363.398438 278.576569,404.897888 308.476593,439.984711 
	C338.678284,475.425537 376.953918,487.726776 422.459320,477.982971 
	C439.807861,474.268219 456.249146,467.794739 472.766968,461.642944 
	C497.661346,452.371368 522.383240,450.627289 547.788513,459.789520 
	C566.543945,466.553558 585.069641,474.069275 604.797729,478.017212 
	C618.990540,480.857483 633.186584,482.136963 647.446350,480.146271 
	C679.338989,475.693970 703.497314,458.261627 722.679565,433.365143 
	C742.362122,407.819122 755.341919,378.911896 763.807861,347.916626 
	C768.159607,331.984467 771.692749,315.912018 770.686829,299.204529 
	C770.410706,294.617523 770.066956,293.717682 767.804138,292.346069 
	C768.840027,338.302002 753.110413,379.394562 729.381653,418.829742 
z"/>
</svg>