<svg version="1.1" id="Layer_1" xmlns="http://www.w3.org/2000/svg" xmlns:xlink="http://www.w3.org/1999/xlink" x="0px" y="0px"
	 width="100%" viewBox="0 0 1024 704" enable-background="new 0 0 1024 704" xml:space="preserve">
<path fill="#000000" opacity="1.000000" stroke="none" 
	d="
M437.591858,204.675964 
	C441.971893,195.502045 446.338318,186.763245 454.152679,178.614990 
	C456.272980,191.662125 460.054321,202.941040 469.315186,213.293732 
	C473.362854,189.047302 483.260895,168.666672 499.227386,151.475235 
	C514.951843,134.544403 533.124634,121.283905 557.294312,114.316078 
	C543.741760,150.816956 548.392578,184.236374 567.612061,216.167999 
	C574.856628,205.649704 575.180542,193.833282 574.182678,181.851730 
	C576.477722,181.381729 577.064453,183.037308 577.882812,184.173874 
	C597.926697,212.011826 603.489441,242.710327 594.627747,275.646759 
	C588.747742,297.501038 573.569397,311.797424 553.523254,321.292297 
	C550.725098,322.617645 546.327942,322.535339 541.303284,321.230835 
	C555.509705,301.316101 552.208435,281.758942 539.932556,261.023651 
	C539.234253,267.643646 539.657776,273.190918 535.646729,278.168549 
	C530.084290,270.784027 527.558044,262.676208 525.722534,254.242798 
	C523.848145,245.630737 525.104614,237.139938 527.286560,228.534317 
	C511.070892,230.660889 495.509613,249.302017 487.228607,276.060974 
	C481.781372,272.504883 480.945740,266.474182 478.181152,260.715668 
	C470.685272,269.836121 467.462982,280.063141 466.682922,291.049500 
	C465.868652,302.517914 469.744080,312.577362 477.944489,321.063812 
	C475.133698,323.195892 472.916260,322.040588 470.705170,320.994659 
	C440.531494,306.720825 423.518036,275.393402 427.350372,242.389786 
	C428.865723,229.339355 431.916565,216.895721 437.591858,204.675964 
z"/>
<path fill="#000000" opacity="1.000000" stroke="none" 
	d="
M535.628418,575.974609 
	C520.846252,576.008423 506.523590,575.872681 492.207458,576.117737 
	C487.866150,576.192017 486.259521,574.499390 485.962891,570.436462 
	C484.945892,556.506714 483.821594,542.584534 482.669556,528.665161 
	C481.257721,511.606445 479.775574,494.553528 478.326202,477.497955 
	C477.115540,463.251221 475.910950,449.004028 474.698486,434.757446 
	C474.064178,427.304016 473.522278,419.840637 472.737457,412.402954 
	C472.297668,408.234955 473.885162,406.838776 478.031921,406.863647 
	C501.343201,407.003601 524.656006,407.011932 547.967346,406.886078 
	C552.133789,406.863586 553.626038,408.314697 553.246033,412.448090 
	C551.313293,433.471649 549.478882,454.504364 547.663147,475.538483 
	C546.176270,492.764618 544.790100,509.999451 543.310730,527.226257 
	C542.030579,542.132996 540.649353,557.031128 539.398926,571.940308 
	C539.209595,574.197693 538.738831,575.883301 535.628418,575.974609 
z"/>
<path fill="#000000" opacity="1.000000" stroke="none" 
	d="
M450.004272,331.931580 
	C494.997650,331.926941 539.492126,331.913635 583.986572,331.942810 
	C586.637512,331.944550 589.338074,332.027679 591.927979,332.527191 
	C596.489746,333.406921 598.914124,336.659637 598.853394,341.065582 
	C598.796448,345.196075 596.527161,348.304443 592.193665,349.355804 
	C591.064880,349.629639 589.908081,349.925018 588.758240,349.951111 
	C583.436218,350.072021 580.934143,353.198181 580.280823,358.042633 
	C578.902893,368.260132 577.767761,378.510712 576.352478,388.722687 
	C575.441101,395.298370 573.026245,397.298920 566.403137,397.303619 
	C530.740906,397.328888 495.078644,397.331390 459.416412,397.307861 
	C452.864075,397.303528 450.405487,395.412323 449.402130,388.727020 
	C447.947144,379.032501 446.996094,369.263397 445.713318,359.541565 
	C444.849792,352.997498 442.752380,350.971100 436.326294,349.984650 
	C430.159180,349.037964 426.506805,345.341797 426.854553,340.399353 
	C427.188965,335.646179 431.076599,332.303253 437.009155,332.006989 
	C441.165405,331.799438 445.339294,331.944672 450.004272,331.931580 
z"/>
<path fill="#000000" opacity="1.000000" stroke="none" 
	d="
M510.000061,585.006714 
	C517.990662,585.013855 525.481812,584.976379 532.971680,585.055359 
	C535.291016,585.079834 537.641113,585.236084 539.917236,585.656250 
	C544.313171,586.467712 546.538391,589.546753 546.729187,593.740662 
	C546.912109,597.760132 544.822937,600.818909 540.927185,602.143555 
	C539.080322,602.771545 537.012756,602.974609 535.043518,602.983154 
	C520.228943,603.047791 505.413910,603.034119 490.599182,602.988953 
	C488.954163,602.983948 487.252991,602.833862 485.676697,602.395630 
	C481.270111,601.170593 478.856903,598.013855 479.047882,593.571167 
	C479.241364,589.070129 482.017670,586.200195 486.561768,585.563171 
	C494.176208,584.495850 501.853455,585.219971 510.000061,585.006714 
z"/>
</svg>