<svg version="1.1" id="Layer_1" xmlns="http://www.w3.org/2000/svg" xmlns:xlink="http://www.w3.org/1999/xlink" x="0px" y="0px"
	 width="100%" viewBox="0 0 1024 704" enable-background="new 0 0 1024 704" xml:space="preserve">
<path fill="#000000" opacity="1.000000" stroke="none" 
	d="
M700.692383,595.606934 
	C687.289795,595.769592 674.345703,593.306885 661.354370,595.247803 
	C658.598633,595.659485 655.836426,596.027283 652.725342,595.995850 
	C659.817383,589.381042 667.422302,583.311279 672.427734,573.871643 
	C668.280212,577.283936 664.755310,580.288635 661.121826,583.155884 
	C641.994751,598.249329 619.717163,605.442627 596.037292,609.294678 
	C568.667969,613.746826 541.077515,615.332581 513.435303,614.913025 
	C471.405396,614.275146 429.639313,610.566528 388.968750,599.184326 
	C373.913361,594.970825 361.934265,585.077087 350.240326,575.097778 
	C346.838104,572.194458 343.646973,569.043640 340.057068,566.307312 
	C346.632233,578.191650 356.996552,586.466797 367.575134,594.265259 
	C366.920898,595.526428 366.222992,595.486267 365.577271,595.430481 
	C348.096405,593.917908 330.612549,595.729370 313.130768,595.380920 
	C310.128815,595.321106 307.168335,595.179443 304.211609,594.471191 
	C290.972900,591.300049 285.519989,581.107300 290.237885,568.289856 
	C292.283691,562.731873 295.654968,557.977844 299.147400,553.308472 
	C304.548615,546.087219 309.652710,538.699036 313.302887,530.400452 
	C313.764648,529.350708 314.171936,528.206421 316.063416,527.540771 
	C319.015808,533.272583 321.516663,539.440308 326.412537,545.269653 
	C323.777435,535.461487 320.681671,526.693359 319.160889,517.496765 
	C316.311188,500.263611 316.517242,483.031250 318.243805,465.733795 
	C320.180847,446.327271 323.730804,427.254120 329.422333,408.580627 
	C344.716705,358.400757 371.540741,315.350403 409.212311,278.932373 
	C418.937714,269.530640 429.285919,260.898560 439.984406,252.653900 
	C443.809357,249.706223 448.430511,248.763641 452.888367,247.506317 
	C459.079590,245.760117 465.238403,243.773773 472.767761,242.907242 
	C468.396759,251.872147 461.946869,258.755066 459.359680,267.948151 
	C464.341797,262.543671 469.989899,257.603119 474.152466,251.627701 
	C480.662476,242.282547 489.235168,239.742706 500.122009,239.417328 
	C517.185547,238.907318 534.029846,239.685562 550.832886,242.556564 
	C553.470276,243.007217 555.521118,243.902710 557.296082,245.836304 
	C561.336121,250.237427 565.459595,254.562073 570.074951,259.477875 
	C569.946289,254.293777 565.995789,251.171204 565.600220,246.053360 
	C571.942017,248.060852 578.152710,248.434525 583.152100,253.051468 
	C626.475464,293.060455 661.824402,338.581787 681.531860,394.931458 
	C690.248718,419.855377 695.603882,445.457672 697.485413,471.866943 
	C698.566345,487.038788 697.915833,502.171295 698.232483,517.317383 
	C698.324097,521.696594 697.238098,523.717651 692.397461,523.416443 
	C687.103699,523.087036 681.928833,524.382263 675.948914,526.456543 
	C683.392700,527.889587 690.076233,527.756836 696.372192,529.947388 
	C699.355164,530.985291 701.499146,532.582581 703.154480,535.362610 
	C707.841614,543.234375 712.901978,550.883484 717.618103,558.738708 
	C719.493225,561.861938 721.124817,565.194336 722.393738,568.607544 
	C727.570618,582.533203 720.425720,593.794556 705.612854,595.284363 
	C704.122192,595.434265 702.620300,595.472290 700.692383,595.606934 
M376.853577,446.011871 
	C375.761902,453.460724 375.704742,460.961609 376.236450,468.432281 
	C378.354004,498.184387 391.928253,520.529541 419.058075,533.982178 
	C422.995514,535.934631 427.028259,537.590881 431.597778,538.576904 
	C431.384277,537.977722 431.375153,537.748962 431.270172,537.689514 
	C430.404449,537.199463 429.508728,536.762085 428.644653,536.269287 
	C414.725220,528.330261 402.450287,518.626343 393.852112,504.755890 
	C384.084198,488.998444 380.433167,471.618073 379.670410,453.410187 
	C379.530396,450.067993 379.836243,446.655212 378.054993,442.767242 
	C377.509674,444.154541 377.277649,444.744781 376.853577,446.011871 
z"/>
<path fill="#000000" opacity="1.000000" stroke="none" 
	d="
M544.178223,142.185791 
	C546.960266,134.869095 549.582092,127.893066 552.301086,120.658424 
	C553.234436,121.103210 554.048401,121.318886 554.646362,121.801941 
	C563.349976,128.832703 573.296753,129.022964 583.588013,126.999611 
	C589.950378,125.748703 595.983459,123.185570 602.451233,122.246384 
	C605.850159,121.752815 609.126404,122.043724 612.341858,122.897987 
	C621.350769,125.291451 625.170471,133.425034 621.298157,141.996490 
	C617.240906,150.977448 610.081299,157.666580 603.776672,164.934631 
	C592.092529,178.404251 580.128906,191.631027 571.801636,207.602829 
	C570.999268,209.141754 570.086121,210.649460 568.021606,210.113205 
	C563.728027,208.997971 559.467346,207.756271 554.958313,206.501205 
	C556.072937,200.985931 560.322998,197.263367 561.089966,191.542450 
	C556.773499,194.245102 554.201843,197.926895 551.406677,201.325653 
	C549.091614,204.140594 546.717346,205.074646 542.830872,204.564194 
	C526.968872,202.480820 511.008575,201.314011 495.027985,203.150665 
	C490.019440,203.726318 486.748199,202.678619 484.093597,197.873322 
	C480.940430,192.165558 477.271271,186.571899 471.385620,181.599976 
	C473.129028,189.890167 477.151337,196.321716 479.340820,203.208527 
	C478.547272,204.855789 477.195251,205.004150 475.882751,205.226822 
	C472.932190,205.727371 469.711975,205.636108 467.079254,206.834900 
	C457.203613,211.331696 450.937073,208.397339 444.684479,199.576584 
	C435.969666,187.282288 423.100555,178.908722 411.418579,169.529587 
	C398.123718,158.855499 398.177856,152.607605 412.069855,142.551300 
	C420.328857,136.572678 429.486053,132.121124 438.596558,127.614006 
	C441.755890,126.051048 444.785767,126.484711 447.667755,128.130859 
	C466.113739,138.666992 482.450104,134.591888 497.529755,121.124046 
	C501.005493,118.019821 504.627899,115.069160 508.299500,112.196976 
	C516.587646,105.713455 525.885193,102.104958 536.563049,102.876450 
	C544.550659,103.453583 547.353333,106.814575 545.976013,114.686134 
	C544.114319,125.325493 541.906860,135.904358 539.843628,146.508377 
	C539.603271,147.743790 538.882812,148.961029 540.031494,150.796677 
	C541.466675,147.819382 542.742371,145.172943 544.178223,142.185791 
z"/>
<path fill="#000000" opacity="1.000000" stroke="none" 
	d="
M504.061005,207.835358 
	C524.761902,207.617172 544.764771,209.203323 564.318054,214.701660 
	C567.689270,215.649612 571.049072,216.657623 573.956421,218.685913 
	C576.033936,220.135269 577.988342,221.931870 578.576904,224.415939 
	C579.711121,229.202408 580.705811,234.051239 581.284851,238.930405 
	C581.722961,242.622803 580.369934,244.412537 575.977356,243.122421 
	C533.208801,230.561172 490.422089,230.551422 447.676971,243.347916 
	C445.814026,243.905624 443.844482,245.119308 442.138306,243.158630 
	C440.444702,241.212418 440.076477,238.717651 441.300995,236.617554 
	C443.214630,233.335648 443.444641,229.831451 444.076691,226.245987 
	C445.151794,220.147232 450.024902,217.290421 455.447357,215.490005 
	C466.710144,211.750443 478.357910,209.884155 490.132172,208.759125 
	C494.599884,208.332230 499.089996,208.140137 504.061005,207.835358 
z"/>
</svg>