<svg version="1.1" id="Layer_1" xmlns="http://www.w3.org/2000/svg" xmlns:xlink="http://www.w3.org/1999/xlink" x="0px" y="0px"
	 width="100%" viewBox="0 0 1024 1024" enable-background="new 0 0 1024 1024" xml:space="preserve">
<path fill="#000000" opacity="1.000000" stroke="none" 
	d="
M253.468658,1025.000000 
	C254.843964,1023.980408 256.868317,1024.117676 258.860687,1024.117676 
	C307.679291,1024.115967 356.497925,1024.116943 405.316528,1024.149048 
	C406.962769,1024.150146 408.608856,1024.480103 410.627502,1024.828369 
	C358.645782,1025.000000 306.291534,1025.000000 253.468658,1025.000000 
z"/>
<path fill="#000000" opacity="1.000000" stroke="none" 
	d="
M177.759979,463.807861 
	C195.996994,437.817169 218.038071,416.613800 247.079971,403.824677 
	C289.351044,385.209717 331.070526,388.399384 372.038177,408.329895 
	C407.276184,425.472961 434.985046,451.625916 459.125366,481.885681 
	C485.403809,514.825562 505.579102,551.305115 521.153015,590.390503 
	C521.873291,592.198242 522.326782,594.155029 523.984192,595.715210 
	C529.155701,587.847168 534.219238,580.064636 539.378662,572.346252 
	C540.746826,570.299561 539.891968,568.546082 539.122864,566.706970 
	C525.882141,535.043091 508.924408,505.513641 488.462189,477.958740 
	C475.415100,460.389252 461.198212,443.872742 445.278961,428.851990 
	C443.163361,426.855804 442.670929,424.998627 443.634338,422.248596 
	C465.408051,360.096222 500.139618,307.613159 557.129211,272.292755 
	C588.792358,252.668915 623.507874,243.166550 660.959290,245.877625 
	C692.319824,248.147797 720.591675,259.099274 745.654358,278.116882 
	C748.160156,280.018250 750.183228,280.495270 753.304016,279.530334 
	C772.418274,273.620239 792.449890,283.902466 798.739624,302.586395 
	C804.960388,321.065460 795.634155,340.717377 777.239807,347.890198 
	C759.046936,354.984497 738.875610,346.555481 731.038452,328.519012 
	C730.115417,326.394775 729.441467,324.136688 728.886597,321.882904 
	C727.182861,314.963196 726.843567,314.705292 719.895813,315.467499 
	C679.502625,319.898743 652.794983,341.684540 639.309265,379.684784 
	C631.845581,400.716064 630.023438,422.475922 632.812256,444.648132 
	C633.851379,452.909760 635.062927,461.112274 637.212280,469.166016 
	C637.598816,470.614380 637.858154,472.058319 639.315979,473.576691 
	C643.880859,470.977875 648.457031,468.358734 653.046082,465.762390 
	C675.478271,453.071381 699.302063,444.119904 725.053223,441.940552 
	C766.333374,438.446991 802.236511,450.910583 832.001587,480.205688 
	C849.628235,497.554169 862.333862,518.104675 871.776733,540.769043 
	C873.268494,544.349609 874.988464,545.679016 878.985107,545.890869 
	C897.657166,546.880737 911.281616,560.018616 913.164551,578.277466 
	C915.025146,596.320496 903.616577,612.827271 886.019714,617.552551 
	C860.556213,624.390259 835.564453,600.769897 841.590393,575.076172 
	C843.029236,568.941101 841.377930,566.246643 836.369812,563.303589 
	C813.026184,549.585632 788.620789,544.696533 762.742310,554.616333 
	C742.318237,562.445374 728.551208,577.904785 718.353516,596.705017 
	C705.627991,620.165466 701.463501,645.562500 701.949951,671.961731 
	C702.269470,689.298096 703.409546,706.541748 707.075256,723.533569 
	C709.601746,735.244812 703.894775,743.073059 694.941528,749.263306 
	C681.108582,758.827087 665.230957,763.413635 649.158142,767.189392 
	C617.625305,774.596924 585.529297,777.702576 553.233704,779.478210 
	C531.240051,780.687439 509.246185,780.750793 487.282654,780.068237 
	C447.810486,778.841736 408.524445,775.458435 370.183105,765.186768 
	C357.465729,761.779785 344.918427,757.735779 333.683136,750.553162 
	C323.970917,744.344238 319.090210,736.476562 320.228638,723.933899 
	C322.392548,700.093323 324.987122,676.169861 323.595703,652.156311 
	C321.662140,618.787170 317.756348,585.786072 302.161407,555.425293 
	C290.758484,533.225708 273.299713,519.042297 248.112244,515.781555 
	C229.414429,513.360962 212.130783,518.459473 195.737427,527.095520 
	C190.455765,529.877930 185.189041,532.740662 180.411484,536.957092 
	C184.803650,546.016357 186.121384,555.354126 183.323395,565.081665 
	C178.216202,582.837463 160.338257,594.163757 142.419250,590.960266 
	C123.525345,587.582520 110.954254,571.240662 112.548759,552.130127 
	C114.105476,533.472412 127.475685,520.120483 146.239960,518.833191 
	C149.396866,518.616699 150.468307,517.140503 151.422165,514.567993 
	C158.055664,496.677673 166.942810,479.940582 177.759979,463.807861 
M566.979126,760.407654 
	C589.373230,758.578674 611.708313,756.249084 633.733643,751.661743 
	C650.211731,748.229858 666.650208,744.573608 681.324524,735.731628 
	C682.944763,734.755432 685.115662,734.177246 685.285217,731.591187 
	C683.944397,729.829834 681.982849,728.869568 680.121948,727.789673 
	C672.412476,723.315918 664.004578,720.607483 655.460571,718.365479 
	C618.719604,708.724121 581.126282,704.854004 543.350586,703.570618 
	C494.518402,701.911804 445.759247,703.581055 397.507263,712.327393 
	C381.117859,715.298157 364.831757,718.842163 349.717621,726.242188 
	C346.670654,727.733948 343.300232,728.973572 341.349976,732.580444 
	C346.810699,737.714661 353.398132,740.476501 360.159088,742.741699 
	C399.722961,755.997375 440.812592,759.879211 482.117767,761.506165 
	C510.072998,762.607300 538.092651,762.410278 566.979126,760.407654 
z"/>
</svg>